M48
;DRILL file {KiCad 5.0.0-rc2-be01b52~65~ubuntu18.04.1} date Mon Jun  4 22:25:17 2018
;FORMAT={-:-/ absolute / metric / decimal}
FMAT,2
METRIC,TZ
T1C0.400
T2C0.700
T3C0.800
T4C1.000
%
G90
G05
M71
T1
X90.861Y-55.755
X91.11Y-87.867
X91.779Y-86.36
X92.288Y-71.568
X92.489Y-57.482
X97.982Y-88.9
X99.819Y-98.451
X101.71Y-101.853
X101.892Y-94.364
X103.698Y-94.61
X104.409Y-60.074
X105.948Y-65.861
X106.962Y-68.715
X108.016Y-70.078
X109.696Y-98.259
X111.912Y-73.66
X115.899Y-81.28
X120.238Y-75.469
X128.52Y-61.846
X130.023Y-87.833
T2
X130.81Y-63.5
X130.81Y-71.12
X99.06Y-110.49
X106.68Y-110.49
X113.665Y-105.41
X113.665Y-113.03
X130.81Y-84.455
X130.81Y-92.075
X99.06Y-102.87
X106.68Y-102.87
T3
X118.11Y-100.33
X118.11Y-102.87
X118.11Y-105.41
X118.11Y-107.95
X118.11Y-110.49
X118.11Y-113.03
X118.11Y-115.57
X125.73Y-100.33
X125.73Y-102.87
X125.73Y-105.41
X125.73Y-107.95
X125.73Y-110.49
X125.73Y-113.03
X125.73Y-115.57
X130.81Y-76.28
X130.81Y-81.28
X99.06Y-107.95
X106.68Y-107.95
X118.11Y-52.07
X118.11Y-54.61
X118.11Y-57.15
X118.11Y-59.69
X118.11Y-62.23
X118.11Y-64.77
X118.11Y-67.31
X125.73Y-52.07
X125.73Y-54.61
X125.73Y-57.15
X125.73Y-59.69
X125.73Y-62.23
X125.73Y-64.77
X125.73Y-67.31
X119.38Y-72.39
X124.38Y-72.39
X119.38Y-96.52
X124.38Y-96.52
X119.38Y-120.65
X124.38Y-120.65
X118.11Y-76.2
X118.11Y-78.74
X118.11Y-81.28
X118.11Y-83.82
X118.11Y-86.36
X118.11Y-88.9
X118.11Y-91.44
X125.73Y-76.2
X125.73Y-78.74
X125.73Y-81.28
X125.73Y-83.82
X125.73Y-86.36
X125.73Y-88.9
X125.73Y-91.44
X95.25Y-54.61
X95.25Y-57.15
X102.87Y-54.61
X102.87Y-57.15
X95.25Y-62.23
X95.25Y-64.77
X95.25Y-67.31
X95.25Y-69.85
X95.25Y-72.39
X95.25Y-74.93
X95.25Y-77.47
X95.25Y-80.01
X95.25Y-82.55
X95.25Y-85.09
X95.25Y-87.63
X95.25Y-90.17
X95.25Y-92.71
X95.25Y-95.25
X110.49Y-62.23
X110.49Y-64.77
X110.49Y-67.31
X110.49Y-69.85
X110.49Y-72.39
X110.49Y-74.93
X110.49Y-77.47
X110.49Y-80.01
X110.49Y-82.55
X110.49Y-85.09
X110.49Y-87.63
X110.49Y-90.17
X110.49Y-92.71
X110.49Y-95.25
X99.06Y-105.41
X106.68Y-105.41
X110.49Y-53.38
X110.49Y-55.88
X100.33Y-100.33
X105.33Y-100.33
T4
X130.81Y-53.19
X130.81Y-59.69
X135.31Y-53.19
X135.31Y-59.69
X130.81Y-112.88
X130.81Y-119.38
X135.31Y-112.88
X135.31Y-119.38
T0
M30
