G04 #@! TF.GenerationSoftware,KiCad,Pcbnew,5.0.0-rc3-6a2723a~65~ubuntu18.04.1*
G04 #@! TF.CreationDate,2018-07-13T18:04:07+02:00*
G04 #@! TF.ProjectId,007_mini,3030375F6D696E692E6B696361645F70,rev?*
G04 #@! TF.SameCoordinates,Original*
G04 #@! TF.FileFunction,Soldermask,Top*
G04 #@! TF.FilePolarity,Negative*
%FSLAX46Y46*%
G04 Gerber Fmt 4.6, Leading zero omitted, Abs format (unit mm)*
G04 Created by KiCad (PCBNEW 5.0.0-rc3-6a2723a~65~ubuntu18.04.1) date Fri Jul 13 18:04:07 2018*
%MOMM*%
%LPD*%
G01*
G04 APERTURE LIST*
%ADD10C,2.100000*%
%ADD11C,2.000000*%
%ADD12R,2.000000X2.000000*%
%ADD13O,2.000000X2.000000*%
%ADD14C,1.800000*%
%ADD15O,1.800000X1.800000*%
%ADD16O,2.800000X2.000000*%
%ADD17R,2.800000X2.000000*%
%ADD18O,5.480000X2.178000*%
%ADD19C,0.100000*%
%ADD20C,1.400000*%
%ADD21R,0.900000X1.900000*%
G04 APERTURE END LIST*
D10*
G04 #@! TO.C,SW1*
X135310000Y-53190000D03*
X135310000Y-59690000D03*
X130810000Y-53190000D03*
X130810000Y-59690000D03*
G04 #@! TD*
D11*
G04 #@! TO.C,C1*
X130810000Y-81280000D03*
X130810000Y-76280000D03*
G04 #@! TD*
D12*
G04 #@! TO.C,D1*
X106680000Y-105410000D03*
D13*
X99060000Y-105410000D03*
G04 #@! TD*
G04 #@! TO.C,D2*
X99060000Y-107950000D03*
D12*
X106680000Y-107950000D03*
G04 #@! TD*
D14*
G04 #@! TO.C,R1*
X106680000Y-102870000D03*
D15*
X99060000Y-102870000D03*
G04 #@! TD*
D14*
G04 #@! TO.C,R2*
X130810000Y-84455000D03*
D15*
X130810000Y-92075000D03*
G04 #@! TD*
G04 #@! TO.C,R3*
X113665000Y-105410000D03*
D14*
X113665000Y-113030000D03*
G04 #@! TD*
D10*
G04 #@! TO.C,SW2*
X130810000Y-119380000D03*
X130810000Y-112880000D03*
X135310000Y-119380000D03*
X135310000Y-112880000D03*
G04 #@! TD*
D16*
G04 #@! TO.C,U3*
X118110000Y-115570000D03*
X125730000Y-100330000D03*
X118110000Y-113030000D03*
X125730000Y-102870000D03*
X118110000Y-110490000D03*
X125730000Y-105410000D03*
X118110000Y-107950000D03*
X125730000Y-107950000D03*
X118110000Y-105410000D03*
X125730000Y-110490000D03*
X118110000Y-102870000D03*
X125730000Y-113030000D03*
X118110000Y-100330000D03*
D17*
X125730000Y-115570000D03*
G04 #@! TD*
D18*
G04 #@! TO.C,J1*
X87630000Y-120650000D03*
X87630000Y-118110000D03*
X87630000Y-115570000D03*
X87630000Y-113030000D03*
X87630000Y-110490000D03*
X87630000Y-107950000D03*
X87630000Y-105410000D03*
X87630000Y-102870000D03*
X87630000Y-100330000D03*
X87630000Y-97790000D03*
X87630000Y-95250000D03*
X87630000Y-92710000D03*
X87630000Y-90170000D03*
X87630000Y-87630000D03*
X87630000Y-85090000D03*
X87630000Y-82550000D03*
X87630000Y-80010000D03*
X87630000Y-77470000D03*
X87630000Y-74930000D03*
X87630000Y-72390000D03*
X87630000Y-69850000D03*
X87630000Y-67310000D03*
X87630000Y-64770000D03*
X87630000Y-59690000D03*
X87630000Y-57150000D03*
X87630000Y-54610000D03*
X87630000Y-52070000D03*
G04 #@! TD*
D11*
G04 #@! TO.C,C3*
X124333000Y-72898000D03*
X119333000Y-72898000D03*
G04 #@! TD*
G04 #@! TO.C,C4*
X124380000Y-96520000D03*
X119380000Y-96520000D03*
G04 #@! TD*
G04 #@! TO.C,C6*
X100330000Y-100330000D03*
X105330000Y-100330000D03*
G04 #@! TD*
D14*
G04 #@! TO.C,R4*
X130810000Y-71120000D03*
D15*
X130810000Y-63500000D03*
G04 #@! TD*
G04 #@! TO.C,R5*
X99060000Y-110490000D03*
D14*
X106680000Y-110490000D03*
G04 #@! TD*
D12*
G04 #@! TO.C,SW3*
X102870000Y-57150000D03*
D13*
X95250000Y-54610000D03*
X102870000Y-54610000D03*
X95250000Y-57150000D03*
G04 #@! TD*
D17*
G04 #@! TO.C,U5*
X125730000Y-67310000D03*
D16*
X118110000Y-52070000D03*
X125730000Y-64770000D03*
X118110000Y-54610000D03*
X125730000Y-62230000D03*
X118110000Y-57150000D03*
X125730000Y-59690000D03*
X118110000Y-59690000D03*
X125730000Y-57150000D03*
X118110000Y-62230000D03*
X125730000Y-54610000D03*
X118110000Y-64770000D03*
X125730000Y-52070000D03*
X118110000Y-67310000D03*
G04 #@! TD*
D11*
G04 #@! TO.C,C2*
X119380000Y-120650000D03*
X124380000Y-120650000D03*
G04 #@! TD*
D12*
G04 #@! TO.C,C5*
X110490000Y-55880000D03*
D11*
X110490000Y-53380000D03*
G04 #@! TD*
D17*
G04 #@! TO.C,U2*
X125730000Y-91440000D03*
D16*
X118110000Y-76200000D03*
X125730000Y-88900000D03*
X118110000Y-78740000D03*
X125730000Y-86360000D03*
X118110000Y-81280000D03*
X125730000Y-83820000D03*
X118110000Y-83820000D03*
X125730000Y-81280000D03*
X118110000Y-86360000D03*
X125730000Y-78740000D03*
X118110000Y-88900000D03*
X125730000Y-76200000D03*
X118110000Y-91440000D03*
G04 #@! TD*
D17*
G04 #@! TO.C,U1*
X110490000Y-95250000D03*
D16*
X95250000Y-62230000D03*
X110490000Y-92710000D03*
X95250000Y-64770000D03*
X110490000Y-90170000D03*
X95250000Y-67310000D03*
X110490000Y-87630000D03*
X95250000Y-69850000D03*
X110490000Y-85090000D03*
X95250000Y-72390000D03*
X110490000Y-82550000D03*
X95250000Y-74930000D03*
X110490000Y-80010000D03*
X95250000Y-77470000D03*
X110490000Y-77470000D03*
X95250000Y-80010000D03*
X110490000Y-74930000D03*
X95250000Y-82550000D03*
X110490000Y-72390000D03*
X95250000Y-85090000D03*
X110490000Y-69850000D03*
X95250000Y-87630000D03*
X110490000Y-67310000D03*
X95250000Y-90170000D03*
X110490000Y-64770000D03*
X95250000Y-92710000D03*
X110490000Y-62230000D03*
X95250000Y-95250000D03*
G04 #@! TD*
D19*
G04 #@! TO.C,JP1*
G36*
X94033613Y-96843371D02*
X94101564Y-96853450D01*
X94168200Y-96870142D01*
X94232879Y-96893284D01*
X94294979Y-96922655D01*
X94353900Y-96957971D01*
X94409076Y-96998893D01*
X94459976Y-97045025D01*
X94506108Y-97095925D01*
X94547030Y-97151101D01*
X94582346Y-97210022D01*
X94611717Y-97272122D01*
X94634859Y-97336801D01*
X94651551Y-97403437D01*
X94661630Y-97471388D01*
X94665001Y-97540000D01*
X94665001Y-98040000D01*
X94661630Y-98108612D01*
X94651551Y-98176563D01*
X94634859Y-98243199D01*
X94611717Y-98307878D01*
X94582346Y-98369978D01*
X94547030Y-98428899D01*
X94506108Y-98484075D01*
X94459976Y-98534975D01*
X94409076Y-98581107D01*
X94353900Y-98622029D01*
X94294979Y-98657345D01*
X94232879Y-98686716D01*
X94168200Y-98709858D01*
X94101564Y-98726550D01*
X94033613Y-98736629D01*
X93965001Y-98740000D01*
X93964999Y-98740000D01*
X93896387Y-98736629D01*
X93828436Y-98726550D01*
X93761800Y-98709858D01*
X93697121Y-98686716D01*
X93635021Y-98657345D01*
X93576100Y-98622029D01*
X93520924Y-98581107D01*
X93470024Y-98534975D01*
X93423892Y-98484075D01*
X93382970Y-98428899D01*
X93347654Y-98369978D01*
X93318283Y-98307878D01*
X93295141Y-98243199D01*
X93278449Y-98176563D01*
X93268370Y-98108612D01*
X93264999Y-98040000D01*
X93264999Y-97540000D01*
X93268370Y-97471388D01*
X93278449Y-97403437D01*
X93295141Y-97336801D01*
X93318283Y-97272122D01*
X93347654Y-97210022D01*
X93382970Y-97151101D01*
X93423892Y-97095925D01*
X93470024Y-97045025D01*
X93520924Y-96998893D01*
X93576100Y-96957971D01*
X93635021Y-96922655D01*
X93697121Y-96893284D01*
X93761800Y-96870142D01*
X93828436Y-96853450D01*
X93896387Y-96843371D01*
X93964999Y-96840000D01*
X93965001Y-96840000D01*
X94033613Y-96843371D01*
X94033613Y-96843371D01*
G37*
D20*
X93965000Y-97790000D03*
D19*
G36*
X95333613Y-96843371D02*
X95401564Y-96853450D01*
X95468200Y-96870142D01*
X95532879Y-96893284D01*
X95594979Y-96922655D01*
X95653900Y-96957971D01*
X95709076Y-96998893D01*
X95759976Y-97045025D01*
X95806108Y-97095925D01*
X95847030Y-97151101D01*
X95882346Y-97210022D01*
X95911717Y-97272122D01*
X95934859Y-97336801D01*
X95951551Y-97403437D01*
X95961630Y-97471388D01*
X95965001Y-97540000D01*
X95965001Y-98040000D01*
X95961630Y-98108612D01*
X95951551Y-98176563D01*
X95934859Y-98243199D01*
X95911717Y-98307878D01*
X95882346Y-98369978D01*
X95847030Y-98428899D01*
X95806108Y-98484075D01*
X95759976Y-98534975D01*
X95709076Y-98581107D01*
X95653900Y-98622029D01*
X95594979Y-98657345D01*
X95532879Y-98686716D01*
X95468200Y-98709858D01*
X95401564Y-98726550D01*
X95333613Y-98736629D01*
X95265001Y-98740000D01*
X95264999Y-98740000D01*
X95196387Y-98736629D01*
X95128436Y-98726550D01*
X95061800Y-98709858D01*
X94997121Y-98686716D01*
X94935021Y-98657345D01*
X94876100Y-98622029D01*
X94820924Y-98581107D01*
X94770024Y-98534975D01*
X94723892Y-98484075D01*
X94682970Y-98428899D01*
X94647654Y-98369978D01*
X94618283Y-98307878D01*
X94595141Y-98243199D01*
X94578449Y-98176563D01*
X94568370Y-98108612D01*
X94564999Y-98040000D01*
X94564999Y-97540000D01*
X94568370Y-97471388D01*
X94578449Y-97403437D01*
X94595141Y-97336801D01*
X94618283Y-97272122D01*
X94647654Y-97210022D01*
X94682970Y-97151101D01*
X94723892Y-97095925D01*
X94770024Y-97045025D01*
X94820924Y-96998893D01*
X94876100Y-96957971D01*
X94935021Y-96922655D01*
X94997121Y-96893284D01*
X95061800Y-96870142D01*
X95128436Y-96853450D01*
X95196387Y-96843371D01*
X95264999Y-96840000D01*
X95265001Y-96840000D01*
X95333613Y-96843371D01*
X95333613Y-96843371D01*
G37*
D20*
X95265000Y-97790000D03*
D21*
X95015000Y-97790000D03*
X94215000Y-97790000D03*
G04 #@! TD*
M02*
