G04 #@! TF.GenerationSoftware,KiCad,Pcbnew,5.0.0-rc3-6a2723a~65~ubuntu18.04.1*
G04 #@! TF.CreationDate,2018-07-22T22:16:49+02:00*
G04 #@! TF.ProjectId,007_mini,3030375F6D696E692E6B696361645F70,rev?*
G04 #@! TF.SameCoordinates,Original*
G04 #@! TF.FileFunction,Copper,L2,Bot,Signal*
G04 #@! TF.FilePolarity,Positive*
%FSLAX46Y46*%
G04 Gerber Fmt 4.6, Leading zero omitted, Abs format (unit mm)*
G04 Created by KiCad (PCBNEW 5.0.0-rc3-6a2723a~65~ubuntu18.04.1) date Sun Jul 22 22:16:49 2018*
%MOMM*%
%LPD*%
G01*
G04 APERTURE LIST*
G04 #@! TA.AperFunction,NonConductor*
%ADD10C,0.300000*%
G04 #@! TD*
G04 #@! TA.AperFunction,ComponentPad*
%ADD11C,1.700000*%
G04 #@! TD*
G04 #@! TA.AperFunction,ComponentPad*
%ADD12C,1.600000*%
G04 #@! TD*
G04 #@! TA.AperFunction,ComponentPad*
%ADD13R,1.600000X1.600000*%
G04 #@! TD*
G04 #@! TA.AperFunction,ComponentPad*
%ADD14O,1.600000X1.600000*%
G04 #@! TD*
G04 #@! TA.AperFunction,ComponentPad*
%ADD15C,1.400000*%
G04 #@! TD*
G04 #@! TA.AperFunction,ComponentPad*
%ADD16O,1.400000X1.400000*%
G04 #@! TD*
G04 #@! TA.AperFunction,ComponentPad*
%ADD17O,2.400000X1.600000*%
G04 #@! TD*
G04 #@! TA.AperFunction,ComponentPad*
%ADD18R,2.400000X1.600000*%
G04 #@! TD*
G04 #@! TA.AperFunction,ConnectorPad*
%ADD19O,5.080000X1.778000*%
G04 #@! TD*
G04 #@! TA.AperFunction,ViaPad*
%ADD20C,1.200000*%
G04 #@! TD*
G04 #@! TA.AperFunction,Conductor*
%ADD21C,0.762000*%
G04 #@! TD*
G04 #@! TA.AperFunction,Conductor*
%ADD22C,0.508000*%
G04 #@! TD*
G04 #@! TA.AperFunction,Conductor*
%ADD23C,0.254000*%
G04 #@! TD*
G04 APERTURE END LIST*
D10*
X115997142Y-121241428D02*
X115925714Y-121170000D01*
X115782857Y-121098571D01*
X115425714Y-121098571D01*
X115282857Y-121170000D01*
X115211428Y-121241428D01*
X115140000Y-121384285D01*
X115140000Y-121527142D01*
X115211428Y-121741428D01*
X116068571Y-122598571D01*
X115140000Y-122598571D01*
X114211428Y-121098571D02*
X114068571Y-121098571D01*
X113925714Y-121170000D01*
X113854285Y-121241428D01*
X113782857Y-121384285D01*
X113711428Y-121670000D01*
X113711428Y-122027142D01*
X113782857Y-122312857D01*
X113854285Y-122455714D01*
X113925714Y-122527142D01*
X114068571Y-122598571D01*
X114211428Y-122598571D01*
X114354285Y-122527142D01*
X114425714Y-122455714D01*
X114497142Y-122312857D01*
X114568571Y-122027142D01*
X114568571Y-121670000D01*
X114497142Y-121384285D01*
X114425714Y-121241428D01*
X114354285Y-121170000D01*
X114211428Y-121098571D01*
X112282857Y-122598571D02*
X113140000Y-122598571D01*
X112711428Y-122598571D02*
X112711428Y-121098571D01*
X112854285Y-121312857D01*
X112997142Y-121455714D01*
X113140000Y-121527142D01*
X111782857Y-121098571D02*
X110782857Y-121098571D01*
X111425714Y-122598571D01*
X109140000Y-122170000D02*
X108425714Y-122170000D01*
X109282857Y-122598571D02*
X108782857Y-121098571D01*
X108282857Y-122598571D01*
X107782857Y-122455714D02*
X107711428Y-122527142D01*
X107782857Y-122598571D01*
X107854285Y-122527142D01*
X107782857Y-122455714D01*
X107782857Y-122598571D01*
X105997142Y-122170000D02*
X105282857Y-122170000D01*
X106140000Y-122598571D02*
X105640000Y-121098571D01*
X105140000Y-122598571D01*
X104425714Y-122598571D02*
X104568571Y-122527142D01*
X104640000Y-122384285D01*
X104640000Y-121098571D01*
X103282857Y-122527142D02*
X103425714Y-122598571D01*
X103711428Y-122598571D01*
X103854285Y-122527142D01*
X103925714Y-122384285D01*
X103925714Y-121812857D01*
X103854285Y-121670000D01*
X103711428Y-121598571D01*
X103425714Y-121598571D01*
X103282857Y-121670000D01*
X103211428Y-121812857D01*
X103211428Y-121955714D01*
X103925714Y-122098571D01*
X101925714Y-122598571D02*
X101925714Y-121812857D01*
X101997142Y-121670000D01*
X102140000Y-121598571D01*
X102425714Y-121598571D01*
X102568571Y-121670000D01*
X101925714Y-122527142D02*
X102068571Y-122598571D01*
X102425714Y-122598571D01*
X102568571Y-122527142D01*
X102640000Y-122384285D01*
X102640000Y-122241428D01*
X102568571Y-122098571D01*
X102425714Y-122027142D01*
X102068571Y-122027142D01*
X101925714Y-121955714D01*
X100282857Y-121598571D02*
X99711428Y-121598571D01*
X100068571Y-122598571D02*
X100068571Y-121312857D01*
X99997142Y-121170000D01*
X99854285Y-121098571D01*
X99711428Y-121098571D01*
X98997142Y-122598571D02*
X99140000Y-122527142D01*
X99211428Y-122455714D01*
X99282857Y-122312857D01*
X99282857Y-121884285D01*
X99211428Y-121741428D01*
X99140000Y-121670000D01*
X98997142Y-121598571D01*
X98782857Y-121598571D01*
X98640000Y-121670000D01*
X98568571Y-121741428D01*
X98497142Y-121884285D01*
X98497142Y-122312857D01*
X98568571Y-122455714D01*
X98640000Y-122527142D01*
X98782857Y-122598571D01*
X98997142Y-122598571D01*
X97854285Y-122598571D02*
X97854285Y-121598571D01*
X97854285Y-121884285D02*
X97782857Y-121741428D01*
X97711428Y-121670000D01*
X97568571Y-121598571D01*
X97425714Y-121598571D01*
X95997142Y-121098571D02*
X95497142Y-122598571D01*
X94997142Y-121098571D01*
X93854285Y-122598571D02*
X93854285Y-121098571D01*
X93854285Y-122527142D02*
X93997142Y-122598571D01*
X94282857Y-122598571D01*
X94425714Y-122527142D01*
X94497142Y-122455714D01*
X94568571Y-122312857D01*
X94568571Y-121884285D01*
X94497142Y-121741428D01*
X94425714Y-121670000D01*
X94282857Y-121598571D01*
X93997142Y-121598571D01*
X93854285Y-121670000D01*
X92282857Y-122598571D02*
X92782857Y-121884285D01*
X93140000Y-122598571D02*
X93140000Y-121098571D01*
X92568571Y-121098571D01*
X92425714Y-121170000D01*
X92354285Y-121241428D01*
X92282857Y-121384285D01*
X92282857Y-121598571D01*
X92354285Y-121741428D01*
X92425714Y-121812857D01*
X92568571Y-121884285D01*
X93140000Y-121884285D01*
D11*
G04 #@! TO.P,SW1,4*
G04 #@! TO.N,Net-(R4-Pad2)*
X135310000Y-53190000D03*
G04 #@! TO.P,SW1,2*
X135310000Y-59690000D03*
G04 #@! TO.P,SW1,3*
G04 #@! TO.N,GND*
X130810000Y-53190000D03*
G04 #@! TO.P,SW1,1*
X130810000Y-59690000D03*
G04 #@! TD*
D12*
G04 #@! TO.P,C1,1*
G04 #@! TO.N,+5V*
X130810000Y-81280000D03*
G04 #@! TO.P,C1,2*
G04 #@! TO.N,GND*
X130810000Y-76280000D03*
G04 #@! TD*
D13*
G04 #@! TO.P,D1,1*
G04 #@! TO.N,Net-(D1-Pad1)*
X106680000Y-105410000D03*
D14*
G04 #@! TO.P,D1,2*
G04 #@! TO.N,NMI*
X99060000Y-105410000D03*
G04 #@! TD*
G04 #@! TO.P,D2,2*
G04 #@! TO.N,Net-(D2-Pad2)*
X99060000Y-107950000D03*
D13*
G04 #@! TO.P,D2,1*
G04 #@! TO.N,ROMCS*
X106680000Y-107950000D03*
G04 #@! TD*
D15*
G04 #@! TO.P,R1,1*
G04 #@! TO.N,+5V*
X106680000Y-102870000D03*
D16*
G04 #@! TO.P,R1,2*
G04 #@! TO.N,ROMA11*
X99060000Y-102870000D03*
G04 #@! TD*
D15*
G04 #@! TO.P,R2,1*
G04 #@! TO.N,+5V*
X130810000Y-84455000D03*
D16*
G04 #@! TO.P,R2,2*
G04 #@! TO.N,ROMA12*
X130810000Y-92075000D03*
G04 #@! TD*
G04 #@! TO.P,R3,2*
G04 #@! TO.N,Net-(C6-Pad1)*
X113665000Y-105410000D03*
D15*
G04 #@! TO.P,R3,1*
G04 #@! TO.N,Net-(R3-Pad1)*
X113665000Y-113030000D03*
G04 #@! TD*
D11*
G04 #@! TO.P,SW2,1*
G04 #@! TO.N,GND*
X130810000Y-119380000D03*
G04 #@! TO.P,SW2,3*
X130810000Y-112880000D03*
G04 #@! TO.P,SW2,2*
G04 #@! TO.N,RESET*
X135310000Y-119380000D03*
G04 #@! TO.P,SW2,4*
X135310000Y-112880000D03*
G04 #@! TD*
D17*
G04 #@! TO.P,U3,14*
G04 #@! TO.N,+5V*
X118110000Y-115570000D03*
G04 #@! TO.P,U3,7*
G04 #@! TO.N,GND*
X125730000Y-100330000D03*
G04 #@! TO.P,U3,13*
G04 #@! TO.N,Net-(R3-Pad1)*
X118110000Y-113030000D03*
G04 #@! TO.P,U3,6*
G04 #@! TO.N,Net-(U3-Pad10)*
X125730000Y-102870000D03*
G04 #@! TO.P,U3,12*
G04 #@! TO.N,Net-(U1-Pad22)*
X118110000Y-110490000D03*
G04 #@! TO.P,U3,5*
G04 #@! TO.N,Net-(C6-Pad1)*
X125730000Y-105410000D03*
G04 #@! TO.P,U3,11*
G04 #@! TO.N,Net-(U3-Pad10)*
X118110000Y-107950000D03*
G04 #@! TO.P,U3,4*
G04 #@! TO.N,Net-(C6-Pad1)*
X125730000Y-107950000D03*
G04 #@! TO.P,U3,10*
G04 #@! TO.N,Net-(U3-Pad10)*
X118110000Y-105410000D03*
G04 #@! TO.P,U3,3*
G04 #@! TO.N,Net-(C6-Pad1)*
X125730000Y-110490000D03*
G04 #@! TO.P,U3,9*
G04 #@! TO.N,Net-(R3-Pad1)*
X118110000Y-102870000D03*
G04 #@! TO.P,U3,2*
G04 #@! TO.N,Net-(U2-Pad6)*
X125730000Y-113030000D03*
G04 #@! TO.P,U3,8*
G04 #@! TO.N,Net-(D1-Pad1)*
X118110000Y-100330000D03*
D18*
G04 #@! TO.P,U3,1*
G04 #@! TO.N,Net-(U2-Pad12)*
X125730000Y-115570000D03*
G04 #@! TD*
D19*
G04 #@! TO.P,J1,A28*
G04 #@! TO.N,/A11*
X87630000Y-120650000D03*
G04 #@! TO.P,J1,A27*
G04 #@! TO.N,/A9*
X87630000Y-118110000D03*
G04 #@! TO.P,J1,A26*
G04 #@! TO.N,N/C*
X87630000Y-115570000D03*
G04 #@! TO.P,J1,A25*
G04 #@! TO.N,ROMCS*
X87630000Y-113030000D03*
G04 #@! TO.P,J1,A24*
G04 #@! TO.N,/A4*
X87630000Y-110490000D03*
G04 #@! TO.P,J1,A23*
G04 #@! TO.N,/A5*
X87630000Y-107950000D03*
G04 #@! TO.P,J1,A22*
G04 #@! TO.N,/A6*
X87630000Y-105410000D03*
G04 #@! TO.P,J1,A21*
G04 #@! TO.N,/A7*
X87630000Y-102870000D03*
G04 #@! TO.P,J1,A20*
G04 #@! TO.N,RESET*
X87630000Y-100330000D03*
G04 #@! TO.P,J1,A19*
G04 #@! TO.N,N/C*
X87630000Y-97790000D03*
G04 #@! TO.P,J1,A18*
X87630000Y-95250000D03*
G04 #@! TO.P,J1,A17*
X87630000Y-92710000D03*
G04 #@! TO.P,J1,A16*
X87630000Y-90170000D03*
G04 #@! TO.P,J1,A15*
X87630000Y-87630000D03*
G04 #@! TO.P,J1,A14*
X87630000Y-85090000D03*
G04 #@! TO.P,J1,A13*
X87630000Y-82550000D03*
G04 #@! TO.P,J1,A12*
G04 #@! TO.N,/A3*
X87630000Y-80010000D03*
G04 #@! TO.P,J1,A11*
G04 #@! TO.N,/A2*
X87630000Y-77470000D03*
G04 #@! TO.P,J1,A10*
G04 #@! TO.N,/A1*
X87630000Y-74930000D03*
G04 #@! TO.P,J1,A9*
G04 #@! TO.N,/A0*
X87630000Y-72390000D03*
G04 #@! TO.P,J1,A8*
G04 #@! TO.N,N/C*
X87630000Y-69850000D03*
G04 #@! TO.P,J1,A7*
G04 #@! TO.N,GND*
X87630000Y-67310000D03*
G04 #@! TO.P,J1,A6*
X87630000Y-64770000D03*
G04 #@! TO.P,J1,A4*
G04 #@! TO.N,N/C*
X87630000Y-59690000D03*
G04 #@! TO.P,J1,A3*
G04 #@! TO.N,+5V*
X87630000Y-57150000D03*
G04 #@! TO.P,J1,A2*
G04 #@! TO.N,/A12*
X87630000Y-54610000D03*
G04 #@! TO.P,J1,A1*
G04 #@! TO.N,/A14*
X87630000Y-52070000D03*
G04 #@! TD*
D12*
G04 #@! TO.P,C3,1*
G04 #@! TO.N,+5V*
X124333000Y-72898000D03*
G04 #@! TO.P,C3,2*
G04 #@! TO.N,GND*
X119333000Y-72898000D03*
G04 #@! TD*
G04 #@! TO.P,C4,2*
G04 #@! TO.N,GND*
X124380000Y-96520000D03*
G04 #@! TO.P,C4,1*
G04 #@! TO.N,+5V*
X119380000Y-96520000D03*
G04 #@! TD*
G04 #@! TO.P,C6,1*
G04 #@! TO.N,Net-(C6-Pad1)*
X100330000Y-100330000D03*
G04 #@! TO.P,C6,2*
G04 #@! TO.N,GND*
X105330000Y-100330000D03*
G04 #@! TD*
D15*
G04 #@! TO.P,R4,1*
G04 #@! TO.N,+5V*
X130810000Y-71120000D03*
D16*
G04 #@! TO.P,R4,2*
G04 #@! TO.N,Net-(R4-Pad2)*
X130810000Y-63500000D03*
G04 #@! TD*
G04 #@! TO.P,R5,2*
G04 #@! TO.N,Net-(D2-Pad2)*
X99060000Y-110490000D03*
D15*
G04 #@! TO.P,R5,1*
G04 #@! TO.N,+5V*
X106680000Y-110490000D03*
G04 #@! TD*
D13*
G04 #@! TO.P,SW3,1*
G04 #@! TO.N,ROMA12*
X102870000Y-57150000D03*
D14*
G04 #@! TO.P,SW3,3*
G04 #@! TO.N,GND*
X95250000Y-54610000D03*
G04 #@! TO.P,SW3,2*
G04 #@! TO.N,ROMA11*
X102870000Y-54610000D03*
G04 #@! TO.P,SW3,4*
G04 #@! TO.N,GND*
X95250000Y-57150000D03*
G04 #@! TD*
D18*
G04 #@! TO.P,U5,1*
G04 #@! TO.N,RESET*
X125730000Y-67310000D03*
D17*
G04 #@! TO.P,U5,8*
G04 #@! TO.N,Net-(U2-Pad10)*
X118110000Y-52070000D03*
G04 #@! TO.P,U5,2*
G04 #@! TO.N,N/C*
X125730000Y-64770000D03*
G04 #@! TO.P,U5,9*
G04 #@! TO.N,Net-(R3-Pad1)*
X118110000Y-54610000D03*
G04 #@! TO.P,U5,3*
G04 #@! TO.N,N/C*
X125730000Y-62230000D03*
G04 #@! TO.P,U5,10*
X118110000Y-57150000D03*
G04 #@! TO.P,U5,4*
G04 #@! TO.N,Net-(R4-Pad2)*
X125730000Y-59690000D03*
G04 #@! TO.P,U5,11*
G04 #@! TO.N,MREQ*
X118110000Y-59690000D03*
G04 #@! TO.P,U5,5*
G04 #@! TO.N,Net-(U5-Pad12)*
X125730000Y-57150000D03*
G04 #@! TO.P,U5,12*
X118110000Y-62230000D03*
G04 #@! TO.P,U5,6*
G04 #@! TO.N,N/C*
X125730000Y-54610000D03*
G04 #@! TO.P,U5,13*
G04 #@! TO.N,RESET*
X118110000Y-64770000D03*
G04 #@! TO.P,U5,7*
G04 #@! TO.N,GND*
X125730000Y-52070000D03*
G04 #@! TO.P,U5,14*
G04 #@! TO.N,+5V*
X118110000Y-67310000D03*
G04 #@! TD*
D12*
G04 #@! TO.P,C2,1*
G04 #@! TO.N,+5V*
X119380000Y-120650000D03*
G04 #@! TO.P,C2,2*
G04 #@! TO.N,GND*
X124380000Y-120650000D03*
G04 #@! TD*
D13*
G04 #@! TO.P,C5,1*
G04 #@! TO.N,+5V*
X110490000Y-55880000D03*
D12*
G04 #@! TO.P,C5,2*
G04 #@! TO.N,GND*
X110490000Y-53380000D03*
G04 #@! TD*
D18*
G04 #@! TO.P,U2,1*
G04 #@! TO.N,/A15*
X125730000Y-91440000D03*
D17*
G04 #@! TO.P,U2,8*
G04 #@! TO.N,Net-(D2-Pad2)*
X118110000Y-76200000D03*
G04 #@! TO.P,U2,2*
G04 #@! TO.N,/A13*
X125730000Y-88900000D03*
G04 #@! TO.P,U2,9*
G04 #@! TO.N,Net-(U2-Pad10)*
X118110000Y-78740000D03*
G04 #@! TO.P,U2,3*
G04 #@! TO.N,/A14*
X125730000Y-86360000D03*
G04 #@! TO.P,U2,10*
G04 #@! TO.N,Net-(U2-Pad10)*
X118110000Y-81280000D03*
G04 #@! TO.P,U2,4*
G04 #@! TO.N,/A12*
X125730000Y-83820000D03*
G04 #@! TO.P,U2,11*
G04 #@! TO.N,Net-(U2-Pad10)*
X118110000Y-83820000D03*
G04 #@! TO.P,U2,5*
G04 #@! TO.N,MREQ*
X125730000Y-81280000D03*
G04 #@! TO.P,U2,12*
G04 #@! TO.N,Net-(U2-Pad12)*
X118110000Y-86360000D03*
G04 #@! TO.P,U2,6*
G04 #@! TO.N,Net-(U2-Pad6)*
X125730000Y-78740000D03*
G04 #@! TO.P,U2,13*
G04 #@! TO.N,/A11*
X118110000Y-88900000D03*
G04 #@! TO.P,U2,7*
G04 #@! TO.N,GND*
X125730000Y-76200000D03*
G04 #@! TO.P,U2,14*
G04 #@! TO.N,+5V*
X118110000Y-91440000D03*
G04 #@! TD*
D18*
G04 #@! TO.P,U1,1*
G04 #@! TO.N,N/C*
X110490000Y-95250000D03*
D17*
G04 #@! TO.P,U1,15*
G04 #@! TO.N,/D3*
X95250000Y-62230000D03*
G04 #@! TO.P,U1,2*
G04 #@! TO.N,ROMA12*
X110490000Y-92710000D03*
G04 #@! TO.P,U1,16*
G04 #@! TO.N,/D4*
X95250000Y-64770000D03*
G04 #@! TO.P,U1,3*
G04 #@! TO.N,/A7*
X110490000Y-90170000D03*
G04 #@! TO.P,U1,17*
G04 #@! TO.N,/D5*
X95250000Y-67310000D03*
G04 #@! TO.P,U1,4*
G04 #@! TO.N,/A6*
X110490000Y-87630000D03*
G04 #@! TO.P,U1,18*
G04 #@! TO.N,/D6*
X95250000Y-69850000D03*
G04 #@! TO.P,U1,5*
G04 #@! TO.N,/A5*
X110490000Y-85090000D03*
G04 #@! TO.P,U1,19*
G04 #@! TO.N,/D7*
X95250000Y-72390000D03*
G04 #@! TO.P,U1,6*
G04 #@! TO.N,/A4*
X110490000Y-82550000D03*
G04 #@! TO.P,U1,20*
G04 #@! TO.N,/RD*
X95250000Y-74930000D03*
G04 #@! TO.P,U1,7*
G04 #@! TO.N,/A3*
X110490000Y-80010000D03*
G04 #@! TO.P,U1,21*
G04 #@! TO.N,/A10*
X95250000Y-77470000D03*
G04 #@! TO.P,U1,8*
G04 #@! TO.N,/A2*
X110490000Y-77470000D03*
G04 #@! TO.P,U1,22*
G04 #@! TO.N,Net-(U1-Pad22)*
X95250000Y-80010000D03*
G04 #@! TO.P,U1,9*
G04 #@! TO.N,/A1*
X110490000Y-74930000D03*
G04 #@! TO.P,U1,23*
G04 #@! TO.N,ROMA11*
X95250000Y-82550000D03*
G04 #@! TO.P,U1,10*
G04 #@! TO.N,/A0*
X110490000Y-72390000D03*
G04 #@! TO.P,U1,24*
G04 #@! TO.N,/A9*
X95250000Y-85090000D03*
G04 #@! TO.P,U1,11*
G04 #@! TO.N,/D0*
X110490000Y-69850000D03*
G04 #@! TO.P,U1,25*
G04 #@! TO.N,/A8*
X95250000Y-87630000D03*
G04 #@! TO.P,U1,12*
G04 #@! TO.N,/D1*
X110490000Y-67310000D03*
G04 #@! TO.P,U1,26*
G04 #@! TO.N,N/C*
X95250000Y-90170000D03*
G04 #@! TO.P,U1,13*
G04 #@! TO.N,/D2*
X110490000Y-64770000D03*
G04 #@! TO.P,U1,27*
G04 #@! TO.N,Net-(JP1-Pad2)*
X95250000Y-92710000D03*
G04 #@! TO.P,U1,14*
G04 #@! TO.N,GND*
X110490000Y-62230000D03*
G04 #@! TO.P,U1,28*
G04 #@! TO.N,+5V*
X95250000Y-95250000D03*
G04 #@! TD*
D20*
G04 #@! TO.N,GND*
X111760000Y-98258900D03*
G04 #@! TO.N,/D5*
X92288000Y-71567600D03*
G04 #@! TO.N,/D7*
X92489200Y-57481900D03*
X108016200Y-70078000D03*
X111912400Y-73660000D03*
G04 #@! TO.N,/A14*
X130022600Y-87833200D03*
X129540000Y-68580000D03*
G04 #@! TO.N,/A12*
X90861100Y-55754600D03*
X104409000Y-60074300D03*
G04 #@! TO.N,/A7*
X103698000Y-94609600D03*
G04 #@! TO.N,/A6*
X101892000Y-94363800D03*
G04 #@! TO.N,/A5*
X99819000Y-98451400D03*
G04 #@! TO.N,/A4*
X101710000Y-101853000D03*
G04 #@! TO.N,NMI*
X91779000Y-86360100D03*
G04 #@! TO.N,MREQ*
X91109900Y-87866800D03*
X120238000Y-75468800D03*
G04 #@! TO.N,RESET*
X97982000Y-88900100D03*
G04 #@! TO.N,ROMA11*
X105947900Y-65861000D03*
G04 #@! TO.N,ROMA12*
X106961900Y-68715200D03*
G04 #@! TO.N,Net-(U1-Pad22)*
X115899000Y-81280000D03*
G04 #@! TD*
D21*
G04 #@! TO.N,GND*
X95250000Y-54610000D02*
X96685000Y-54610000D01*
X105628000Y-53207000D02*
X98088000Y-53207000D01*
X98088000Y-53207000D02*
X96685000Y-54610000D01*
X107051000Y-56819000D02*
X107051000Y-60626000D01*
X107051000Y-60626000D02*
X108655000Y-62230000D01*
X108655000Y-62230000D02*
X110490000Y-62230000D01*
X95250000Y-57150000D02*
X95250000Y-58585000D01*
X89217500Y-64770000D02*
X90805000Y-66357500D01*
X90805000Y-66357500D02*
X90805000Y-67310000D01*
X90805000Y-67310000D02*
X87630000Y-67310000D01*
X87630000Y-64770000D02*
X89217500Y-64770000D01*
X95250000Y-58585000D02*
X89217500Y-64617500D01*
X89217500Y-64617500D02*
X89217500Y-64770000D01*
G04 #@! TO.N,RESET*
X135565400Y-119635400D02*
X135310000Y-119380000D01*
G04 #@! TO.N,GND*
X124354000Y-96599700D02*
X122694000Y-98258900D01*
X124380000Y-96520000D02*
X124354000Y-96546500D01*
X124354000Y-96546500D02*
X124354000Y-96599700D01*
X124354000Y-96599700D02*
X125252000Y-97498100D01*
X131079000Y-69088000D02*
X132095000Y-68072000D01*
X132842000Y-74248000D02*
X130810000Y-76280000D01*
X131079000Y-69088000D02*
X132842000Y-70851000D01*
X132842000Y-70851000D02*
X132842000Y-74248000D01*
X125730000Y-98768000D02*
X125730000Y-97498100D01*
X125252000Y-97498100D02*
X125730000Y-97498100D01*
X125730000Y-100330000D02*
X125730000Y-98768000D01*
X125730000Y-97498100D02*
X128618000Y-97498100D01*
X125730000Y-76200000D02*
X123768000Y-76200000D01*
X123768000Y-76200000D02*
X121609000Y-74041000D01*
X119344630Y-74041000D02*
X119380000Y-74041000D01*
X119333000Y-74029370D02*
X119344630Y-74041000D01*
X119333000Y-72898000D02*
X119333000Y-74029370D01*
X121609000Y-74041000D02*
X119380000Y-74041000D01*
X129690000Y-52070000D02*
X130810000Y-53190000D01*
X125730000Y-52070000D02*
X129690000Y-52070000D01*
X132095000Y-60975000D02*
X132095000Y-68072000D01*
X130810000Y-59690000D02*
X132095000Y-60975000D01*
X128618000Y-110688000D02*
X128618000Y-110490000D01*
X128618000Y-97498100D02*
X128618000Y-110490000D01*
X130810000Y-112880000D02*
X128618000Y-110688000D01*
X125650000Y-119380000D02*
X124380000Y-120650000D01*
X128270000Y-119380000D02*
X125650000Y-119380000D01*
X129540000Y-120650000D02*
X128270000Y-119380000D01*
X130810000Y-119380000D02*
X129540000Y-120650000D01*
X132080000Y-114150000D02*
X130810000Y-112880000D01*
X130810000Y-119380000D02*
X132080000Y-118110000D01*
X132080000Y-118110000D02*
X132080000Y-114150000D01*
X135382000Y-95250000D02*
X128618000Y-97498100D01*
X135382000Y-80852000D02*
X135382000Y-95250000D01*
X130810000Y-76280000D02*
X135382000Y-80852000D01*
X130810000Y-53190000D02*
X132080000Y-54460000D01*
X132080000Y-54460000D02*
X132080000Y-58420000D01*
X132080000Y-58420000D02*
X130810000Y-59690000D01*
X114808000Y-70358000D02*
X118491000Y-74041000D01*
X114808000Y-64008000D02*
X114808000Y-70358000D01*
X118491000Y-74041000D02*
X119380000Y-74041000D01*
X110490000Y-62230000D02*
X113030000Y-62230000D01*
X113030000Y-62230000D02*
X114808000Y-64008000D01*
X108261000Y-53380000D02*
X107031000Y-54610000D01*
X110490000Y-53380000D02*
X108261000Y-53380000D01*
X107031000Y-54610000D02*
X105628000Y-53207000D01*
X107051000Y-54630000D02*
X107031000Y-54610000D01*
X107051000Y-56819000D02*
X107051000Y-54630000D01*
X111760000Y-98258900D02*
X122694000Y-98258900D01*
D22*
G04 #@! TO.N,/D5*
X95250000Y-67310000D02*
X93542000Y-67310000D01*
X93542000Y-67310000D02*
X93542000Y-70313600D01*
X93542000Y-70313600D02*
X92288000Y-71567600D01*
G04 #@! TO.N,/D7*
X108016200Y-70078000D02*
X106587100Y-70078000D01*
X106587100Y-70078000D02*
X102602400Y-66093300D01*
X102602400Y-66093300D02*
X102602400Y-62718600D01*
X102602400Y-62718600D02*
X95779400Y-55895600D01*
X95779400Y-55895600D02*
X94075500Y-55895600D01*
X94075500Y-55895600D02*
X92489200Y-57481900D01*
X95250000Y-72390000D02*
X107648400Y-72390000D01*
X107648400Y-72390000D02*
X108918400Y-73660000D01*
X108918400Y-73660000D02*
X111912400Y-73660000D01*
D21*
G04 #@! TO.N,+5V*
X90805000Y-57150000D02*
X91136400Y-57150000D01*
X91136400Y-57150000D02*
X92042400Y-56244000D01*
X92042400Y-56244000D02*
X92042400Y-55833700D01*
X92042400Y-55833700D02*
X95891400Y-51984700D01*
X95891400Y-51984700D02*
X111074000Y-51984700D01*
X111074000Y-51984700D02*
X111893700Y-52804400D01*
X111893700Y-52804400D02*
X111893700Y-54476300D01*
X111893700Y-54476300D02*
X110490000Y-55880000D01*
X87630000Y-57150000D02*
X90805000Y-57150000D01*
X130810000Y-71120000D02*
X128117000Y-73813100D01*
X130810000Y-81280000D02*
X128117000Y-78586900D01*
X128117000Y-78586900D02*
X128117000Y-73813100D01*
X95250000Y-95250000D02*
X98296000Y-95250000D01*
X98296000Y-95250000D02*
X105916000Y-102870000D01*
X105916000Y-102870000D02*
X106680000Y-102870000D01*
X133604000Y-86868000D02*
X130810000Y-84455000D01*
X132080000Y-94488000D02*
X133604000Y-92964000D01*
X122543370Y-94488000D02*
X132080000Y-94488000D01*
X133604000Y-92964000D02*
X133604000Y-86868000D01*
X119380000Y-96520000D02*
X120511370Y-96520000D01*
X120511370Y-96520000D02*
X122543370Y-94488000D01*
X118110000Y-95250000D02*
X119380000Y-96520000D01*
X118110000Y-91440000D02*
X118110000Y-95250000D01*
X125248100Y-73813100D02*
X124333000Y-72898000D01*
X128117000Y-73813100D02*
X125248100Y-73813100D01*
X118745000Y-67310000D02*
X118110000Y-67310000D01*
X124333000Y-72898000D02*
X118745000Y-67310000D01*
D22*
G04 #@! TO.N,/A14*
X128549400Y-86360000D02*
X130022600Y-87833200D01*
X125730000Y-86360000D02*
X128549400Y-86360000D01*
X128520000Y-67560000D02*
X129540000Y-68580000D01*
X128520000Y-57711400D02*
X128520000Y-67560000D01*
X126704200Y-55895600D02*
X128520000Y-57711400D01*
X122367700Y-55895600D02*
X126704200Y-55895600D01*
X90678000Y-52070000D02*
X91607100Y-51140900D01*
X114033200Y-51140900D02*
X116232300Y-53340000D01*
X87630000Y-52070000D02*
X90678000Y-52070000D01*
X91607100Y-51140900D02*
X114033200Y-51140900D01*
X116232300Y-53340000D02*
X119812100Y-53340000D01*
X119812100Y-53340000D02*
X122367700Y-55895600D01*
G04 #@! TO.N,/A12*
X125730000Y-83820000D02*
X123947300Y-83820000D01*
X123947300Y-83820000D02*
X120137300Y-80010000D01*
X120137300Y-80010000D02*
X117150900Y-80010000D01*
X117150900Y-80010000D02*
X114049500Y-76908600D01*
X114049500Y-76908600D02*
X114049500Y-71209300D01*
X114049500Y-71209300D02*
X111435800Y-68595600D01*
X111435800Y-68595600D02*
X109239600Y-68595600D01*
X109239600Y-68595600D02*
X107989200Y-67345200D01*
X107989200Y-67345200D02*
X105903800Y-67345200D01*
X105903800Y-67345200D02*
X104409000Y-65850400D01*
X104409000Y-65850400D02*
X104409000Y-60074300D01*
X87630000Y-54610000D02*
X90678000Y-54610000D01*
X90861100Y-55754600D02*
X90678000Y-55571500D01*
X90678000Y-55571500D02*
X90678000Y-54610000D01*
G04 #@! TO.N,/A0*
X110490000Y-72390000D02*
X108782000Y-72390000D01*
X108782000Y-72390000D02*
X107518000Y-71125500D01*
X107518000Y-71125500D02*
X94245000Y-71125500D01*
X94245000Y-71125500D02*
X92748600Y-72621900D01*
X92748600Y-72621900D02*
X90909900Y-72621900D01*
X90909900Y-72621900D02*
X90678000Y-72390000D01*
X90678000Y-72390000D02*
X87630000Y-72390000D01*
G04 #@! TO.N,/A1*
X110490000Y-74930000D02*
X108782000Y-74930000D01*
X108782000Y-74930000D02*
X107512000Y-73660000D01*
X107512000Y-73660000D02*
X93669000Y-73660000D01*
X93669000Y-73660000D02*
X92399000Y-74930000D01*
X92399000Y-74930000D02*
X87630000Y-74930000D01*
G04 #@! TO.N,/A2*
X110490000Y-77470000D02*
X108782000Y-77470000D01*
X108782000Y-77470000D02*
X107512000Y-76200000D01*
X107512000Y-76200000D02*
X92667400Y-76200000D01*
X92667400Y-76200000D02*
X91397400Y-77470000D01*
X91397400Y-77470000D02*
X87630000Y-77470000D01*
G04 #@! TO.N,/A3*
X110490000Y-80010000D02*
X108782000Y-80010000D01*
X108782000Y-80010000D02*
X107512000Y-78740100D01*
X107512000Y-78740100D02*
X91947900Y-78740100D01*
X91947900Y-78740100D02*
X90678000Y-80010000D01*
X90678000Y-80010000D02*
X87630000Y-80010000D01*
G04 #@! TO.N,/A7*
X87630000Y-102870000D02*
X90678000Y-102870000D01*
X90678000Y-102870000D02*
X92076500Y-101472000D01*
X92076500Y-101472000D02*
X92076500Y-93626200D01*
X92076500Y-93626200D02*
X94262700Y-91440000D01*
X94262700Y-91440000D02*
X100528000Y-91440000D01*
X100528000Y-91440000D02*
X103698000Y-94609600D01*
G04 #@! TO.N,/A6*
X87630000Y-105410000D02*
X90678000Y-105410000D01*
X90678000Y-105410000D02*
X92973700Y-103114000D01*
X92973700Y-103114000D02*
X92973700Y-95346600D01*
X92973700Y-95346600D02*
X94338400Y-93981900D01*
X94338400Y-93981900D02*
X101510000Y-93981900D01*
X101510000Y-93981900D02*
X101892000Y-94363800D01*
G04 #@! TO.N,/A5*
X99819000Y-98451400D02*
X90678000Y-107593000D01*
X90678000Y-107593000D02*
X90678000Y-107950000D01*
X90678000Y-107950000D02*
X87630000Y-107950000D01*
G04 #@! TO.N,/A4*
X101710000Y-101853000D02*
X99494000Y-104069000D01*
X99494000Y-104069000D02*
X98620000Y-104069000D01*
X98620000Y-104069000D02*
X92199500Y-110490000D01*
X92199500Y-110490000D02*
X87630000Y-110490000D01*
G04 #@! TO.N,/A9*
X96520000Y-118110000D02*
X95250000Y-118110000D01*
X104140000Y-85090000D02*
X107369000Y-88319000D01*
X95250000Y-85090000D02*
X104140000Y-85090000D01*
X108596000Y-100467000D02*
X108596000Y-108323000D01*
X107369000Y-88319000D02*
X107369000Y-99240400D01*
X95250000Y-118110000D02*
X87630000Y-118110000D01*
X105426000Y-109204000D02*
X96520000Y-118110000D01*
X107369000Y-99240400D02*
X108596000Y-100467000D01*
X107715000Y-109204000D02*
X105426000Y-109204000D01*
X108596000Y-108323000D02*
X107715000Y-109204000D01*
G04 #@! TO.N,/A11*
X98194000Y-120650000D02*
X87630000Y-120650000D01*
X100330000Y-120650000D02*
X98194000Y-120650000D01*
X109308000Y-111672000D02*
X100330000Y-120650000D01*
X113862000Y-91440000D02*
X109572000Y-91440000D01*
X109308000Y-99361900D02*
X109308000Y-111672000D01*
X118110000Y-88900000D02*
X116402000Y-88900000D01*
X116402000Y-88900000D02*
X113862000Y-91440000D01*
X109572000Y-91440000D02*
X108641000Y-92370100D01*
X108641000Y-92370100D02*
X108641000Y-98695600D01*
X108641000Y-98695600D02*
X109308000Y-99361900D01*
G04 #@! TO.N,NMI*
X96520000Y-86360100D02*
X91779000Y-86360100D01*
X104140100Y-86360100D02*
X96520000Y-86360100D01*
X106661000Y-88881000D02*
X104140100Y-86360100D01*
X99060000Y-105410000D02*
X100368000Y-105410000D01*
X107870000Y-102267000D02*
X106661000Y-101058000D01*
X106661000Y-101058000D02*
X106661000Y-88881000D01*
X100368000Y-105410000D02*
X101676000Y-104102000D01*
X101676000Y-104102000D02*
X107145000Y-104102000D01*
X107145000Y-104102000D02*
X107870000Y-103377000D01*
X107870000Y-103377000D02*
X107870000Y-102267000D01*
G04 #@! TO.N,ROMCS*
X106680000Y-107950000D02*
X104140000Y-107950000D01*
X104140000Y-107950000D02*
X99060000Y-113030000D01*
X99060000Y-113030000D02*
X87630000Y-113030000D01*
G04 #@! TO.N,MREQ*
X91109900Y-87866800D02*
X90724600Y-87481500D01*
X90724600Y-87481500D02*
X90724600Y-85913600D01*
X90724600Y-85913600D02*
X92802600Y-83835600D01*
X92802600Y-83835600D02*
X112533000Y-83835600D01*
X112533000Y-83835600D02*
X113787000Y-85090000D01*
X113787000Y-85090000D02*
X126670000Y-85090000D01*
X126670000Y-85090000D02*
X127422000Y-84337300D01*
X127422000Y-84337300D02*
X127422000Y-82972300D01*
X127422000Y-82972300D02*
X125730000Y-81280000D01*
X125730000Y-81280000D02*
X124022000Y-81280000D01*
X124022000Y-81280000D02*
X120238000Y-77496500D01*
X120238000Y-77496500D02*
X120238000Y-75468800D01*
G04 #@! TO.N,RESET*
X125730000Y-67310000D02*
X124022000Y-67310000D01*
X124022000Y-67310000D02*
X121482000Y-64770000D01*
X121482000Y-64770000D02*
X118110000Y-64770000D01*
X87630000Y-100330000D02*
X90678000Y-100330000D01*
X90678000Y-100330000D02*
X90678000Y-92522900D01*
X90678000Y-92522900D02*
X94300800Y-88900100D01*
X94300800Y-88900100D02*
X97982000Y-88900100D01*
G04 #@! TO.N,Net-(C6-Pad1)*
X125730000Y-107950000D02*
X124022000Y-107950000D01*
X124022000Y-107950000D02*
X122752000Y-106680000D01*
X122752000Y-106680000D02*
X116143000Y-106680000D01*
X116143000Y-106680000D02*
X114873000Y-105410000D01*
X114873000Y-105410000D02*
X113665000Y-105410000D01*
G04 #@! TO.N,ROMA11*
X105947900Y-65861000D02*
X105947900Y-57687900D01*
X105947900Y-57687900D02*
X102870000Y-54610000D01*
G04 #@! TO.N,ROMA12*
X102870000Y-58458000D02*
X103310700Y-58898700D01*
X103310700Y-58898700D02*
X103310700Y-65784100D01*
X103310700Y-65784100D02*
X106241800Y-68715200D01*
X106241800Y-68715200D02*
X106961900Y-68715200D01*
X102870000Y-57150000D02*
X102870000Y-58458000D01*
X128967000Y-92710000D02*
X129602000Y-92075000D01*
X129602000Y-92075000D02*
X130810000Y-92075000D01*
X110490000Y-92710000D02*
X114173000Y-92710000D01*
X119999010Y-90154010D02*
X122555000Y-92710000D01*
X116728990Y-90154010D02*
X119999010Y-90154010D01*
X114173000Y-92710000D02*
X116728990Y-90154010D01*
X122555000Y-92710000D02*
X128967000Y-92710000D01*
G04 #@! TO.N,Net-(R3-Pad1)*
X118110000Y-113030000D02*
X113665000Y-113030000D01*
G04 #@! TO.N,Net-(U5-Pad12)*
X125730000Y-57150000D02*
X125330000Y-57150000D01*
X120250000Y-62230000D02*
X118110000Y-62230000D01*
X125330000Y-57150000D02*
X120250000Y-62230000D01*
G04 #@! TO.N,Net-(U2-Pad10)*
X118110000Y-83820000D02*
X118110000Y-81280000D01*
G04 #@! TO.N,Net-(U3-Pad10)*
X118110000Y-105410000D02*
X121482000Y-105410000D01*
X121482000Y-105410000D02*
X124022000Y-102870000D01*
X124022000Y-102870000D02*
X125730000Y-102870000D01*
G04 #@! TO.N,Net-(U1-Pad22)*
X95250000Y-80010000D02*
X96958000Y-80010000D01*
X96958000Y-80010000D02*
X98228000Y-81280000D01*
X98228000Y-81280000D02*
X115899000Y-81280000D01*
G04 #@! TD*
D23*
G04 #@! TO.N,GND*
G36*
X124225500Y-51145104D02*
X123955633Y-51638181D01*
X123938096Y-51720961D01*
X124060085Y-51943000D01*
X125603000Y-51943000D01*
X125603000Y-51923000D01*
X125857000Y-51923000D01*
X125857000Y-51943000D01*
X127399915Y-51943000D01*
X127521904Y-51720961D01*
X127504367Y-51638181D01*
X127234500Y-51145104D01*
X126963307Y-50927000D01*
X137033000Y-50927000D01*
X137033000Y-121793000D01*
X125167399Y-121793000D01*
X125208139Y-121657745D01*
X124380000Y-120829605D01*
X123551861Y-121657745D01*
X123592601Y-121793000D01*
X120266396Y-121793000D01*
X120596534Y-121462862D01*
X120815000Y-120935439D01*
X120815000Y-120433223D01*
X122933035Y-120433223D01*
X122960222Y-121003454D01*
X123126136Y-121404005D01*
X123372255Y-121478139D01*
X124200395Y-120650000D01*
X124559605Y-120650000D01*
X125387745Y-121478139D01*
X125633864Y-121404005D01*
X125826965Y-120866777D01*
X125805853Y-120423958D01*
X129945647Y-120423958D01*
X130025920Y-120675259D01*
X130581279Y-120876718D01*
X131171458Y-120850315D01*
X131594080Y-120675259D01*
X131674353Y-120423958D01*
X130810000Y-119559605D01*
X129945647Y-120423958D01*
X125805853Y-120423958D01*
X125799778Y-120296546D01*
X125633864Y-119895995D01*
X125387745Y-119821861D01*
X124559605Y-120650000D01*
X124200395Y-120650000D01*
X123372255Y-119821861D01*
X123126136Y-119895995D01*
X122933035Y-120433223D01*
X120815000Y-120433223D01*
X120815000Y-120364561D01*
X120596534Y-119837138D01*
X120401651Y-119642255D01*
X123551861Y-119642255D01*
X124380000Y-120470395D01*
X125208139Y-119642255D01*
X125134005Y-119396136D01*
X124596777Y-119203035D01*
X124026546Y-119230222D01*
X123625995Y-119396136D01*
X123551861Y-119642255D01*
X120401651Y-119642255D01*
X120192862Y-119433466D01*
X119665439Y-119215000D01*
X119094561Y-119215000D01*
X118567138Y-119433466D01*
X118163466Y-119837138D01*
X117945000Y-120364561D01*
X117945000Y-120935439D01*
X118163466Y-121462862D01*
X118493604Y-121793000D01*
X117067857Y-121793000D01*
X117067857Y-120130000D01*
X102107235Y-120130000D01*
X103085956Y-119151279D01*
X129313282Y-119151279D01*
X129339685Y-119741458D01*
X129514741Y-120164080D01*
X129766042Y-120244353D01*
X130630395Y-119380000D01*
X130989605Y-119380000D01*
X131853958Y-120244353D01*
X132105259Y-120164080D01*
X132306718Y-119608721D01*
X132283271Y-119084615D01*
X133825000Y-119084615D01*
X133825000Y-119675385D01*
X134051078Y-120221185D01*
X134468815Y-120638922D01*
X135014615Y-120865000D01*
X135605385Y-120865000D01*
X136151185Y-120638922D01*
X136568922Y-120221185D01*
X136795000Y-119675385D01*
X136795000Y-119084615D01*
X136568922Y-118538815D01*
X136151185Y-118121078D01*
X135605385Y-117895000D01*
X135014615Y-117895000D01*
X134468815Y-118121078D01*
X134051078Y-118538815D01*
X133825000Y-119084615D01*
X132283271Y-119084615D01*
X132280315Y-119018542D01*
X132105259Y-118595920D01*
X131853958Y-118515647D01*
X130989605Y-119380000D01*
X130630395Y-119380000D01*
X129766042Y-118515647D01*
X129514741Y-118595920D01*
X129313282Y-119151279D01*
X103085956Y-119151279D01*
X103901193Y-118336042D01*
X129945647Y-118336042D01*
X130810000Y-119200395D01*
X131674353Y-118336042D01*
X131594080Y-118084741D01*
X131038721Y-117883282D01*
X130448542Y-117909685D01*
X130025920Y-118084741D01*
X129945647Y-118336042D01*
X103901193Y-118336042D01*
X109874707Y-112362529D01*
X109948933Y-112312933D01*
X110145419Y-112018870D01*
X110197000Y-111759556D01*
X110197000Y-111759552D01*
X110214415Y-111672001D01*
X110197000Y-111584450D01*
X110197000Y-105410000D01*
X112303846Y-105410000D01*
X112407458Y-105930891D01*
X112702519Y-106372481D01*
X113144109Y-106667542D01*
X113533515Y-106745000D01*
X113796485Y-106745000D01*
X114185891Y-106667542D01*
X114597967Y-106392202D01*
X115452470Y-107246706D01*
X115502067Y-107320933D01*
X115796130Y-107517419D01*
X116055444Y-107569000D01*
X116055448Y-107569000D01*
X116142999Y-107586415D01*
X116230550Y-107569000D01*
X116322673Y-107569000D01*
X116246887Y-107950000D01*
X116358260Y-108509909D01*
X116675423Y-108984577D01*
X117027758Y-109220000D01*
X116675423Y-109455423D01*
X116358260Y-109930091D01*
X116246887Y-110490000D01*
X116358260Y-111049909D01*
X116675423Y-111524577D01*
X117027758Y-111760000D01*
X116675423Y-111995423D01*
X116578152Y-112141000D01*
X114663975Y-112141000D01*
X114421217Y-111898242D01*
X113930548Y-111695000D01*
X113399452Y-111695000D01*
X112908783Y-111898242D01*
X112533242Y-112273783D01*
X112330000Y-112764452D01*
X112330000Y-113295548D01*
X112533242Y-113786217D01*
X112908783Y-114161758D01*
X113399452Y-114365000D01*
X113930548Y-114365000D01*
X114421217Y-114161758D01*
X114663975Y-113919000D01*
X116578152Y-113919000D01*
X116675423Y-114064577D01*
X117027758Y-114300000D01*
X116675423Y-114535423D01*
X116358260Y-115010091D01*
X116246887Y-115570000D01*
X116358260Y-116129909D01*
X116675423Y-116604577D01*
X117150091Y-116921740D01*
X117568667Y-117005000D01*
X118651333Y-117005000D01*
X119069909Y-116921740D01*
X119544577Y-116604577D01*
X119861740Y-116129909D01*
X119973113Y-115570000D01*
X119861740Y-115010091D01*
X119544577Y-114535423D01*
X119192242Y-114300000D01*
X119544577Y-114064577D01*
X119861740Y-113589909D01*
X119973113Y-113030000D01*
X119861740Y-112470091D01*
X119544577Y-111995423D01*
X119192242Y-111760000D01*
X119544577Y-111524577D01*
X119861740Y-111049909D01*
X119973113Y-110490000D01*
X119861740Y-109930091D01*
X119544577Y-109455423D01*
X119192242Y-109220000D01*
X119544577Y-108984577D01*
X119861740Y-108509909D01*
X119973113Y-107950000D01*
X119897327Y-107569000D01*
X122383765Y-107569000D01*
X123331471Y-108516707D01*
X123381067Y-108590933D01*
X123675130Y-108787419D01*
X123934444Y-108839000D01*
X123934448Y-108839000D01*
X124021999Y-108856415D01*
X124109550Y-108839000D01*
X124198152Y-108839000D01*
X124295423Y-108984577D01*
X124647758Y-109220000D01*
X124295423Y-109455423D01*
X123978260Y-109930091D01*
X123866887Y-110490000D01*
X123978260Y-111049909D01*
X124295423Y-111524577D01*
X124647758Y-111760000D01*
X124295423Y-111995423D01*
X123978260Y-112470091D01*
X123866887Y-113030000D01*
X123978260Y-113589909D01*
X124295423Y-114064577D01*
X124416106Y-114145215D01*
X124282235Y-114171843D01*
X124072191Y-114312191D01*
X123931843Y-114522235D01*
X123882560Y-114770000D01*
X123882560Y-116370000D01*
X123931843Y-116617765D01*
X124072191Y-116827809D01*
X124282235Y-116968157D01*
X124530000Y-117017440D01*
X126930000Y-117017440D01*
X127177765Y-116968157D01*
X127387809Y-116827809D01*
X127528157Y-116617765D01*
X127577440Y-116370000D01*
X127577440Y-114770000D01*
X127528157Y-114522235D01*
X127387809Y-114312191D01*
X127177765Y-114171843D01*
X127043894Y-114145215D01*
X127164577Y-114064577D01*
X127258535Y-113923958D01*
X129945647Y-113923958D01*
X130025920Y-114175259D01*
X130581279Y-114376718D01*
X131171458Y-114350315D01*
X131594080Y-114175259D01*
X131674353Y-113923958D01*
X130810000Y-113059605D01*
X129945647Y-113923958D01*
X127258535Y-113923958D01*
X127481740Y-113589909D01*
X127593113Y-113030000D01*
X127517781Y-112651279D01*
X129313282Y-112651279D01*
X129339685Y-113241458D01*
X129514741Y-113664080D01*
X129766042Y-113744353D01*
X130630395Y-112880000D01*
X130989605Y-112880000D01*
X131853958Y-113744353D01*
X132105259Y-113664080D01*
X132306718Y-113108721D01*
X132283271Y-112584615D01*
X133825000Y-112584615D01*
X133825000Y-113175385D01*
X134051078Y-113721185D01*
X134468815Y-114138922D01*
X135014615Y-114365000D01*
X135605385Y-114365000D01*
X136151185Y-114138922D01*
X136568922Y-113721185D01*
X136795000Y-113175385D01*
X136795000Y-112584615D01*
X136568922Y-112038815D01*
X136151185Y-111621078D01*
X135605385Y-111395000D01*
X135014615Y-111395000D01*
X134468815Y-111621078D01*
X134051078Y-112038815D01*
X133825000Y-112584615D01*
X132283271Y-112584615D01*
X132280315Y-112518542D01*
X132105259Y-112095920D01*
X131853958Y-112015647D01*
X130989605Y-112880000D01*
X130630395Y-112880000D01*
X129766042Y-112015647D01*
X129514741Y-112095920D01*
X129313282Y-112651279D01*
X127517781Y-112651279D01*
X127481740Y-112470091D01*
X127164577Y-111995423D01*
X126926047Y-111836042D01*
X129945647Y-111836042D01*
X130810000Y-112700395D01*
X131674353Y-111836042D01*
X131594080Y-111584741D01*
X131038721Y-111383282D01*
X130448542Y-111409685D01*
X130025920Y-111584741D01*
X129945647Y-111836042D01*
X126926047Y-111836042D01*
X126812242Y-111760000D01*
X127164577Y-111524577D01*
X127481740Y-111049909D01*
X127593113Y-110490000D01*
X127481740Y-109930091D01*
X127164577Y-109455423D01*
X126812242Y-109220000D01*
X127164577Y-108984577D01*
X127481740Y-108509909D01*
X127593113Y-107950000D01*
X127481740Y-107390091D01*
X127164577Y-106915423D01*
X126812242Y-106680000D01*
X127164577Y-106444577D01*
X127481740Y-105969909D01*
X127593113Y-105410000D01*
X127481740Y-104850091D01*
X127164577Y-104375423D01*
X126812242Y-104140000D01*
X127164577Y-103904577D01*
X127481740Y-103429909D01*
X127593113Y-102870000D01*
X127481740Y-102310091D01*
X127164577Y-101835423D01*
X126808501Y-101597501D01*
X127234500Y-101254896D01*
X127504367Y-100761819D01*
X127521904Y-100679039D01*
X127399915Y-100457000D01*
X125857000Y-100457000D01*
X125857000Y-100477000D01*
X125603000Y-100477000D01*
X125603000Y-100457000D01*
X124060085Y-100457000D01*
X123938096Y-100679039D01*
X123955633Y-100761819D01*
X124225500Y-101254896D01*
X124651499Y-101597501D01*
X124295423Y-101835423D01*
X124198152Y-101981000D01*
X124109550Y-101981000D01*
X124021999Y-101963585D01*
X123934448Y-101981000D01*
X123934444Y-101981000D01*
X123675130Y-102032581D01*
X123381067Y-102229067D01*
X123331471Y-102303293D01*
X121113765Y-104521000D01*
X119641848Y-104521000D01*
X119544577Y-104375423D01*
X119192242Y-104140000D01*
X119544577Y-103904577D01*
X119861740Y-103429909D01*
X119973113Y-102870000D01*
X119861740Y-102310091D01*
X119544577Y-101835423D01*
X119192242Y-101600000D01*
X119544577Y-101364577D01*
X119861740Y-100889909D01*
X119973113Y-100330000D01*
X119903685Y-99980961D01*
X123938096Y-99980961D01*
X124060085Y-100203000D01*
X125603000Y-100203000D01*
X125603000Y-98895000D01*
X125857000Y-98895000D01*
X125857000Y-100203000D01*
X127399915Y-100203000D01*
X127521904Y-99980961D01*
X127504367Y-99898181D01*
X127234500Y-99405104D01*
X126796483Y-99052834D01*
X126257000Y-98895000D01*
X125857000Y-98895000D01*
X125603000Y-98895000D01*
X125203000Y-98895000D01*
X124663517Y-99052834D01*
X124225500Y-99405104D01*
X123955633Y-99898181D01*
X123938096Y-99980961D01*
X119903685Y-99980961D01*
X119861740Y-99770091D01*
X119544577Y-99295423D01*
X119069909Y-98978260D01*
X118651333Y-98895000D01*
X117568667Y-98895000D01*
X117150091Y-98978260D01*
X116675423Y-99295423D01*
X116358260Y-99770091D01*
X116246887Y-100330000D01*
X116358260Y-100889909D01*
X116675423Y-101364577D01*
X117027758Y-101600000D01*
X116675423Y-101835423D01*
X116358260Y-102310091D01*
X116246887Y-102870000D01*
X116358260Y-103429909D01*
X116675423Y-103904577D01*
X117027758Y-104140000D01*
X116675423Y-104375423D01*
X116358260Y-104850091D01*
X116246887Y-105410000D01*
X116275852Y-105555616D01*
X115563531Y-104843296D01*
X115513933Y-104769067D01*
X115219870Y-104572581D01*
X114960556Y-104521000D01*
X114960555Y-104521000D01*
X114873000Y-104503584D01*
X114785445Y-104521000D01*
X114676579Y-104521000D01*
X114627481Y-104447519D01*
X114185891Y-104152458D01*
X113796485Y-104075000D01*
X113533515Y-104075000D01*
X113144109Y-104152458D01*
X112702519Y-104447519D01*
X112407458Y-104889109D01*
X112303846Y-105410000D01*
X110197000Y-105410000D01*
X110197000Y-99449221D01*
X110214416Y-99361424D01*
X110179980Y-99188780D01*
X110145419Y-99015030D01*
X110145283Y-99014827D01*
X110145236Y-99014590D01*
X110047053Y-98867814D01*
X109948933Y-98720967D01*
X109874511Y-98671240D01*
X109530000Y-98327092D01*
X109530000Y-96697440D01*
X111690000Y-96697440D01*
X111937765Y-96648157D01*
X112147809Y-96507809D01*
X112288157Y-96297765D01*
X112337440Y-96050000D01*
X112337440Y-94450000D01*
X112288157Y-94202235D01*
X112147809Y-93992191D01*
X111937765Y-93851843D01*
X111803894Y-93825215D01*
X111924577Y-93744577D01*
X112021848Y-93599000D01*
X114085445Y-93599000D01*
X114173000Y-93616416D01*
X114260555Y-93599000D01*
X114260556Y-93599000D01*
X114519870Y-93547419D01*
X114813933Y-93350933D01*
X114863531Y-93276704D01*
X116322102Y-91818133D01*
X116358260Y-91999909D01*
X116675423Y-92474577D01*
X117094000Y-92754261D01*
X117094001Y-95149932D01*
X117074096Y-95250000D01*
X117152950Y-95646423D01*
X117285368Y-95844600D01*
X117377506Y-95982495D01*
X117462337Y-96039177D01*
X117945000Y-96521840D01*
X117945000Y-96805439D01*
X118163466Y-97332862D01*
X118567138Y-97736534D01*
X119094561Y-97955000D01*
X119665439Y-97955000D01*
X120192862Y-97736534D01*
X120393396Y-97536000D01*
X120411307Y-97536000D01*
X120511370Y-97555904D01*
X120611433Y-97536000D01*
X120611435Y-97536000D01*
X120652935Y-97527745D01*
X123551861Y-97527745D01*
X123625995Y-97773864D01*
X124163223Y-97966965D01*
X124733454Y-97939778D01*
X125134005Y-97773864D01*
X125208139Y-97527745D01*
X124380000Y-96699605D01*
X123551861Y-97527745D01*
X120652935Y-97527745D01*
X120907793Y-97477051D01*
X121243865Y-97252495D01*
X121300550Y-97167660D01*
X122964211Y-95504000D01*
X123330364Y-95504000D01*
X123257378Y-95576986D01*
X123372253Y-95691861D01*
X123126136Y-95765995D01*
X122933035Y-96303223D01*
X122960222Y-96873454D01*
X123126136Y-97274005D01*
X123372255Y-97348139D01*
X124200395Y-96520000D01*
X124186252Y-96505858D01*
X124365858Y-96326252D01*
X124380000Y-96340395D01*
X124394142Y-96326252D01*
X124573748Y-96505858D01*
X124559605Y-96520000D01*
X125387745Y-97348139D01*
X125633864Y-97274005D01*
X125826965Y-96736777D01*
X125799778Y-96166546D01*
X125633864Y-95765995D01*
X125387747Y-95691861D01*
X125502622Y-95576986D01*
X125429636Y-95504000D01*
X131979937Y-95504000D01*
X132080000Y-95523904D01*
X132180063Y-95504000D01*
X132180065Y-95504000D01*
X132476423Y-95445051D01*
X132812495Y-95220495D01*
X132869180Y-95135661D01*
X134251664Y-93753177D01*
X134336495Y-93696495D01*
X134534253Y-93400529D01*
X134561050Y-93360425D01*
X134561050Y-93360424D01*
X134561051Y-93360423D01*
X134620000Y-93064065D01*
X134620000Y-93064064D01*
X134639904Y-92964001D01*
X134620000Y-92863937D01*
X134620000Y-86930713D01*
X134637142Y-86792404D01*
X134593236Y-86633384D01*
X134561051Y-86471577D01*
X134539765Y-86439721D01*
X134529569Y-86402791D01*
X134428150Y-86272676D01*
X134336495Y-86135505D01*
X134220611Y-86058074D01*
X132145000Y-84265501D01*
X132145000Y-84189452D01*
X131941758Y-83698783D01*
X131566217Y-83323242D01*
X131075548Y-83120000D01*
X130544452Y-83120000D01*
X130053783Y-83323242D01*
X129678242Y-83698783D01*
X129475000Y-84189452D01*
X129475000Y-84720548D01*
X129678242Y-85211217D01*
X130053783Y-85586758D01*
X130544452Y-85790000D01*
X130801370Y-85790000D01*
X132588001Y-87333000D01*
X132588000Y-92543159D01*
X131659160Y-93472000D01*
X129426743Y-93472000D01*
X129607933Y-93350933D01*
X129657531Y-93276704D01*
X129877033Y-93057202D01*
X130289109Y-93332542D01*
X130678515Y-93410000D01*
X130941485Y-93410000D01*
X131330891Y-93332542D01*
X131772481Y-93037481D01*
X132067542Y-92595891D01*
X132171154Y-92075000D01*
X132067542Y-91554109D01*
X131772481Y-91112519D01*
X131330891Y-90817458D01*
X130941485Y-90740000D01*
X130678515Y-90740000D01*
X130289109Y-90817458D01*
X129847519Y-91112519D01*
X129798421Y-91186000D01*
X129689556Y-91186000D01*
X129602000Y-91168584D01*
X129255129Y-91237581D01*
X129056783Y-91370112D01*
X128961067Y-91434067D01*
X128911470Y-91508294D01*
X128598765Y-91821000D01*
X127577440Y-91821000D01*
X127577440Y-90640000D01*
X127528157Y-90392235D01*
X127387809Y-90182191D01*
X127177765Y-90041843D01*
X127043894Y-90015215D01*
X127164577Y-89934577D01*
X127481740Y-89459909D01*
X127593113Y-88900000D01*
X127481740Y-88340091D01*
X127164577Y-87865423D01*
X126812242Y-87630000D01*
X127164577Y-87394577D01*
X127261848Y-87249000D01*
X128181165Y-87249000D01*
X128787600Y-87855436D01*
X128787600Y-88078857D01*
X128975618Y-88532771D01*
X129323029Y-88880182D01*
X129776943Y-89068200D01*
X130268257Y-89068200D01*
X130722171Y-88880182D01*
X131069582Y-88532771D01*
X131257600Y-88078857D01*
X131257600Y-87587543D01*
X131069582Y-87133629D01*
X130722171Y-86786218D01*
X130268257Y-86598200D01*
X130044836Y-86598200D01*
X129239931Y-85793296D01*
X129190333Y-85719067D01*
X128896270Y-85522581D01*
X128636956Y-85471000D01*
X128636955Y-85471000D01*
X128549400Y-85453584D01*
X128461845Y-85471000D01*
X127546005Y-85471000D01*
X127988880Y-85027714D01*
X128062933Y-84978233D01*
X128112646Y-84903832D01*
X128112793Y-84903685D01*
X128161268Y-84831064D01*
X128259419Y-84684170D01*
X128259461Y-84683959D01*
X128259580Y-84683781D01*
X128293963Y-84510508D01*
X128311000Y-84424856D01*
X128311000Y-84424648D01*
X128328416Y-84336879D01*
X128311000Y-84249536D01*
X128311000Y-83059890D01*
X128328415Y-82972380D01*
X128311000Y-82884788D01*
X128311000Y-82884744D01*
X128291244Y-82785423D01*
X128259449Y-82625503D01*
X128259427Y-82625470D01*
X128259419Y-82625430D01*
X128160766Y-82477785D01*
X128112579Y-82405654D01*
X128112551Y-82405626D01*
X128062933Y-82331367D01*
X127988740Y-82281793D01*
X127492558Y-81785523D01*
X127593113Y-81280000D01*
X127481740Y-80720091D01*
X127164577Y-80245423D01*
X126812242Y-80010000D01*
X127164577Y-79774577D01*
X127442726Y-79358297D01*
X127469330Y-79376073D01*
X129375000Y-81281815D01*
X129375000Y-81565439D01*
X129593466Y-82092862D01*
X129997138Y-82496534D01*
X130524561Y-82715000D01*
X131095439Y-82715000D01*
X131622862Y-82496534D01*
X132026534Y-82092862D01*
X132245000Y-81565439D01*
X132245000Y-80994561D01*
X132026534Y-80467138D01*
X131622862Y-80063466D01*
X131095439Y-79845000D01*
X130811868Y-79845000D01*
X129133000Y-78166071D01*
X129133000Y-77287745D01*
X129981861Y-77287745D01*
X130055995Y-77533864D01*
X130593223Y-77726965D01*
X131163454Y-77699778D01*
X131564005Y-77533864D01*
X131638139Y-77287745D01*
X130810000Y-76459605D01*
X129981861Y-77287745D01*
X129133000Y-77287745D01*
X129133000Y-76063223D01*
X129363035Y-76063223D01*
X129390222Y-76633454D01*
X129556136Y-77034005D01*
X129802255Y-77108139D01*
X130630395Y-76280000D01*
X130989605Y-76280000D01*
X131817745Y-77108139D01*
X132063864Y-77034005D01*
X132256965Y-76496777D01*
X132229778Y-75926546D01*
X132063864Y-75525995D01*
X131817745Y-75451861D01*
X130989605Y-76280000D01*
X130630395Y-76280000D01*
X129802255Y-75451861D01*
X129556136Y-75525995D01*
X129363035Y-76063223D01*
X129133000Y-76063223D01*
X129133000Y-75272255D01*
X129981861Y-75272255D01*
X130810000Y-76100395D01*
X131638139Y-75272255D01*
X131564005Y-75026136D01*
X131026777Y-74833035D01*
X130456546Y-74860222D01*
X130055995Y-75026136D01*
X129981861Y-75272255D01*
X129133000Y-75272255D01*
X129133000Y-74233929D01*
X130911864Y-72455000D01*
X131075548Y-72455000D01*
X131566217Y-72251758D01*
X131941758Y-71876217D01*
X132145000Y-71385548D01*
X132145000Y-70854452D01*
X131941758Y-70363783D01*
X131566217Y-69988242D01*
X131075548Y-69785000D01*
X130544452Y-69785000D01*
X130053783Y-69988242D01*
X129678242Y-70363783D01*
X129475000Y-70854452D01*
X129475000Y-71018182D01*
X127696148Y-72797100D01*
X125768000Y-72797100D01*
X125768000Y-72612561D01*
X125549534Y-72085138D01*
X125145862Y-71681466D01*
X124618439Y-71463000D01*
X124334841Y-71463000D01*
X119921285Y-67049445D01*
X119861740Y-66750091D01*
X119544577Y-66275423D01*
X119192242Y-66040000D01*
X119544577Y-65804577D01*
X119641848Y-65659000D01*
X121113765Y-65659000D01*
X123331471Y-67876707D01*
X123381067Y-67950933D01*
X123675130Y-68147419D01*
X123898855Y-68191921D01*
X123931843Y-68357765D01*
X124072191Y-68567809D01*
X124282235Y-68708157D01*
X124530000Y-68757440D01*
X126930000Y-68757440D01*
X127177765Y-68708157D01*
X127387809Y-68567809D01*
X127528157Y-68357765D01*
X127577440Y-68110000D01*
X127577440Y-66510000D01*
X127528157Y-66262235D01*
X127387809Y-66052191D01*
X127177765Y-65911843D01*
X127043894Y-65885215D01*
X127164577Y-65804577D01*
X127481740Y-65329909D01*
X127593113Y-64770000D01*
X127481740Y-64210091D01*
X127164577Y-63735423D01*
X126812242Y-63500000D01*
X127164577Y-63264577D01*
X127481740Y-62789909D01*
X127593113Y-62230000D01*
X127481740Y-61670091D01*
X127164577Y-61195423D01*
X126812242Y-60960000D01*
X127164577Y-60724577D01*
X127481740Y-60249909D01*
X127593113Y-59690000D01*
X127481740Y-59130091D01*
X127164577Y-58655423D01*
X126812242Y-58420000D01*
X127164577Y-58184577D01*
X127393433Y-57842069D01*
X127631000Y-58079636D01*
X127631001Y-67472441D01*
X127613584Y-67560000D01*
X127682582Y-67906870D01*
X127818309Y-68110000D01*
X127879068Y-68200933D01*
X127953294Y-68250529D01*
X128305000Y-68602235D01*
X128305000Y-68825657D01*
X128493018Y-69279571D01*
X128840429Y-69626982D01*
X129294343Y-69815000D01*
X129785657Y-69815000D01*
X130239571Y-69626982D01*
X130586982Y-69279571D01*
X130775000Y-68825657D01*
X130775000Y-68334343D01*
X130586982Y-67880429D01*
X130239571Y-67533018D01*
X129785657Y-67345000D01*
X129562235Y-67345000D01*
X129409000Y-67191765D01*
X129409000Y-63500000D01*
X129448846Y-63500000D01*
X129552458Y-64020891D01*
X129847519Y-64462481D01*
X130289109Y-64757542D01*
X130678515Y-64835000D01*
X130941485Y-64835000D01*
X131330891Y-64757542D01*
X131772481Y-64462481D01*
X132067542Y-64020891D01*
X132171154Y-63500000D01*
X132067542Y-62979109D01*
X131772481Y-62537519D01*
X131330891Y-62242458D01*
X130941485Y-62165000D01*
X130678515Y-62165000D01*
X130289109Y-62242458D01*
X129847519Y-62537519D01*
X129552458Y-62979109D01*
X129448846Y-63500000D01*
X129409000Y-63500000D01*
X129409000Y-60733958D01*
X129945647Y-60733958D01*
X130025920Y-60985259D01*
X130581279Y-61186718D01*
X131171458Y-61160315D01*
X131594080Y-60985259D01*
X131674353Y-60733958D01*
X130810000Y-59869605D01*
X129945647Y-60733958D01*
X129409000Y-60733958D01*
X129409000Y-60218799D01*
X129514741Y-60474080D01*
X129766042Y-60554353D01*
X130630395Y-59690000D01*
X130989605Y-59690000D01*
X131853958Y-60554353D01*
X132105259Y-60474080D01*
X132306718Y-59918721D01*
X132283271Y-59394615D01*
X133825000Y-59394615D01*
X133825000Y-59985385D01*
X134051078Y-60531185D01*
X134468815Y-60948922D01*
X135014615Y-61175000D01*
X135605385Y-61175000D01*
X136151185Y-60948922D01*
X136568922Y-60531185D01*
X136795000Y-59985385D01*
X136795000Y-59394615D01*
X136568922Y-58848815D01*
X136151185Y-58431078D01*
X135605385Y-58205000D01*
X135014615Y-58205000D01*
X134468815Y-58431078D01*
X134051078Y-58848815D01*
X133825000Y-59394615D01*
X132283271Y-59394615D01*
X132280315Y-59328542D01*
X132105259Y-58905920D01*
X131853958Y-58825647D01*
X130989605Y-59690000D01*
X130630395Y-59690000D01*
X129766042Y-58825647D01*
X129514741Y-58905920D01*
X129409000Y-59197415D01*
X129409000Y-58646042D01*
X129945647Y-58646042D01*
X130810000Y-59510395D01*
X131674353Y-58646042D01*
X131594080Y-58394741D01*
X131038721Y-58193282D01*
X130448542Y-58219685D01*
X130025920Y-58394741D01*
X129945647Y-58646042D01*
X129409000Y-58646042D01*
X129409000Y-57798955D01*
X129426416Y-57711400D01*
X129408351Y-57620582D01*
X129357419Y-57364530D01*
X129160933Y-57070467D01*
X129086707Y-57020871D01*
X127394731Y-55328896D01*
X127385120Y-55314512D01*
X127481740Y-55169909D01*
X127593113Y-54610000D01*
X127518314Y-54233958D01*
X129945647Y-54233958D01*
X130025920Y-54485259D01*
X130581279Y-54686718D01*
X131171458Y-54660315D01*
X131594080Y-54485259D01*
X131674353Y-54233958D01*
X130810000Y-53369605D01*
X129945647Y-54233958D01*
X127518314Y-54233958D01*
X127481740Y-54050091D01*
X127164577Y-53575423D01*
X126808501Y-53337501D01*
X127234500Y-52994896D01*
X127252898Y-52961279D01*
X129313282Y-52961279D01*
X129339685Y-53551458D01*
X129514741Y-53974080D01*
X129766042Y-54054353D01*
X130630395Y-53190000D01*
X130989605Y-53190000D01*
X131853958Y-54054353D01*
X132105259Y-53974080D01*
X132306718Y-53418721D01*
X132283271Y-52894615D01*
X133825000Y-52894615D01*
X133825000Y-53485385D01*
X134051078Y-54031185D01*
X134468815Y-54448922D01*
X135014615Y-54675000D01*
X135605385Y-54675000D01*
X136151185Y-54448922D01*
X136568922Y-54031185D01*
X136795000Y-53485385D01*
X136795000Y-52894615D01*
X136568922Y-52348815D01*
X136151185Y-51931078D01*
X135605385Y-51705000D01*
X135014615Y-51705000D01*
X134468815Y-51931078D01*
X134051078Y-52348815D01*
X133825000Y-52894615D01*
X132283271Y-52894615D01*
X132280315Y-52828542D01*
X132105259Y-52405920D01*
X131853958Y-52325647D01*
X130989605Y-53190000D01*
X130630395Y-53190000D01*
X129766042Y-52325647D01*
X129514741Y-52405920D01*
X129313282Y-52961279D01*
X127252898Y-52961279D01*
X127504367Y-52501819D01*
X127521904Y-52419039D01*
X127399915Y-52197000D01*
X125857000Y-52197000D01*
X125857000Y-52217000D01*
X125603000Y-52217000D01*
X125603000Y-52197000D01*
X124060085Y-52197000D01*
X123938096Y-52419039D01*
X123955633Y-52501819D01*
X124225500Y-52994896D01*
X124651499Y-53337501D01*
X124295423Y-53575423D01*
X123978260Y-54050091D01*
X123866887Y-54610000D01*
X123945776Y-55006600D01*
X122735936Y-55006600D01*
X120502631Y-52773296D01*
X120453033Y-52699067D01*
X120158970Y-52502581D01*
X119899656Y-52451000D01*
X119899655Y-52451000D01*
X119897416Y-52450555D01*
X119957987Y-52146042D01*
X129945647Y-52146042D01*
X130810000Y-53010395D01*
X131674353Y-52146042D01*
X131594080Y-51894741D01*
X131038721Y-51693282D01*
X130448542Y-51719685D01*
X130025920Y-51894741D01*
X129945647Y-52146042D01*
X119957987Y-52146042D01*
X119973113Y-52070000D01*
X119861740Y-51510091D01*
X119544577Y-51035423D01*
X119382311Y-50927000D01*
X124496693Y-50927000D01*
X124225500Y-51145104D01*
X124225500Y-51145104D01*
G37*
X124225500Y-51145104D02*
X123955633Y-51638181D01*
X123938096Y-51720961D01*
X124060085Y-51943000D01*
X125603000Y-51943000D01*
X125603000Y-51923000D01*
X125857000Y-51923000D01*
X125857000Y-51943000D01*
X127399915Y-51943000D01*
X127521904Y-51720961D01*
X127504367Y-51638181D01*
X127234500Y-51145104D01*
X126963307Y-50927000D01*
X137033000Y-50927000D01*
X137033000Y-121793000D01*
X125167399Y-121793000D01*
X125208139Y-121657745D01*
X124380000Y-120829605D01*
X123551861Y-121657745D01*
X123592601Y-121793000D01*
X120266396Y-121793000D01*
X120596534Y-121462862D01*
X120815000Y-120935439D01*
X120815000Y-120433223D01*
X122933035Y-120433223D01*
X122960222Y-121003454D01*
X123126136Y-121404005D01*
X123372255Y-121478139D01*
X124200395Y-120650000D01*
X124559605Y-120650000D01*
X125387745Y-121478139D01*
X125633864Y-121404005D01*
X125826965Y-120866777D01*
X125805853Y-120423958D01*
X129945647Y-120423958D01*
X130025920Y-120675259D01*
X130581279Y-120876718D01*
X131171458Y-120850315D01*
X131594080Y-120675259D01*
X131674353Y-120423958D01*
X130810000Y-119559605D01*
X129945647Y-120423958D01*
X125805853Y-120423958D01*
X125799778Y-120296546D01*
X125633864Y-119895995D01*
X125387745Y-119821861D01*
X124559605Y-120650000D01*
X124200395Y-120650000D01*
X123372255Y-119821861D01*
X123126136Y-119895995D01*
X122933035Y-120433223D01*
X120815000Y-120433223D01*
X120815000Y-120364561D01*
X120596534Y-119837138D01*
X120401651Y-119642255D01*
X123551861Y-119642255D01*
X124380000Y-120470395D01*
X125208139Y-119642255D01*
X125134005Y-119396136D01*
X124596777Y-119203035D01*
X124026546Y-119230222D01*
X123625995Y-119396136D01*
X123551861Y-119642255D01*
X120401651Y-119642255D01*
X120192862Y-119433466D01*
X119665439Y-119215000D01*
X119094561Y-119215000D01*
X118567138Y-119433466D01*
X118163466Y-119837138D01*
X117945000Y-120364561D01*
X117945000Y-120935439D01*
X118163466Y-121462862D01*
X118493604Y-121793000D01*
X117067857Y-121793000D01*
X117067857Y-120130000D01*
X102107235Y-120130000D01*
X103085956Y-119151279D01*
X129313282Y-119151279D01*
X129339685Y-119741458D01*
X129514741Y-120164080D01*
X129766042Y-120244353D01*
X130630395Y-119380000D01*
X130989605Y-119380000D01*
X131853958Y-120244353D01*
X132105259Y-120164080D01*
X132306718Y-119608721D01*
X132283271Y-119084615D01*
X133825000Y-119084615D01*
X133825000Y-119675385D01*
X134051078Y-120221185D01*
X134468815Y-120638922D01*
X135014615Y-120865000D01*
X135605385Y-120865000D01*
X136151185Y-120638922D01*
X136568922Y-120221185D01*
X136795000Y-119675385D01*
X136795000Y-119084615D01*
X136568922Y-118538815D01*
X136151185Y-118121078D01*
X135605385Y-117895000D01*
X135014615Y-117895000D01*
X134468815Y-118121078D01*
X134051078Y-118538815D01*
X133825000Y-119084615D01*
X132283271Y-119084615D01*
X132280315Y-119018542D01*
X132105259Y-118595920D01*
X131853958Y-118515647D01*
X130989605Y-119380000D01*
X130630395Y-119380000D01*
X129766042Y-118515647D01*
X129514741Y-118595920D01*
X129313282Y-119151279D01*
X103085956Y-119151279D01*
X103901193Y-118336042D01*
X129945647Y-118336042D01*
X130810000Y-119200395D01*
X131674353Y-118336042D01*
X131594080Y-118084741D01*
X131038721Y-117883282D01*
X130448542Y-117909685D01*
X130025920Y-118084741D01*
X129945647Y-118336042D01*
X103901193Y-118336042D01*
X109874707Y-112362529D01*
X109948933Y-112312933D01*
X110145419Y-112018870D01*
X110197000Y-111759556D01*
X110197000Y-111759552D01*
X110214415Y-111672001D01*
X110197000Y-111584450D01*
X110197000Y-105410000D01*
X112303846Y-105410000D01*
X112407458Y-105930891D01*
X112702519Y-106372481D01*
X113144109Y-106667542D01*
X113533515Y-106745000D01*
X113796485Y-106745000D01*
X114185891Y-106667542D01*
X114597967Y-106392202D01*
X115452470Y-107246706D01*
X115502067Y-107320933D01*
X115796130Y-107517419D01*
X116055444Y-107569000D01*
X116055448Y-107569000D01*
X116142999Y-107586415D01*
X116230550Y-107569000D01*
X116322673Y-107569000D01*
X116246887Y-107950000D01*
X116358260Y-108509909D01*
X116675423Y-108984577D01*
X117027758Y-109220000D01*
X116675423Y-109455423D01*
X116358260Y-109930091D01*
X116246887Y-110490000D01*
X116358260Y-111049909D01*
X116675423Y-111524577D01*
X117027758Y-111760000D01*
X116675423Y-111995423D01*
X116578152Y-112141000D01*
X114663975Y-112141000D01*
X114421217Y-111898242D01*
X113930548Y-111695000D01*
X113399452Y-111695000D01*
X112908783Y-111898242D01*
X112533242Y-112273783D01*
X112330000Y-112764452D01*
X112330000Y-113295548D01*
X112533242Y-113786217D01*
X112908783Y-114161758D01*
X113399452Y-114365000D01*
X113930548Y-114365000D01*
X114421217Y-114161758D01*
X114663975Y-113919000D01*
X116578152Y-113919000D01*
X116675423Y-114064577D01*
X117027758Y-114300000D01*
X116675423Y-114535423D01*
X116358260Y-115010091D01*
X116246887Y-115570000D01*
X116358260Y-116129909D01*
X116675423Y-116604577D01*
X117150091Y-116921740D01*
X117568667Y-117005000D01*
X118651333Y-117005000D01*
X119069909Y-116921740D01*
X119544577Y-116604577D01*
X119861740Y-116129909D01*
X119973113Y-115570000D01*
X119861740Y-115010091D01*
X119544577Y-114535423D01*
X119192242Y-114300000D01*
X119544577Y-114064577D01*
X119861740Y-113589909D01*
X119973113Y-113030000D01*
X119861740Y-112470091D01*
X119544577Y-111995423D01*
X119192242Y-111760000D01*
X119544577Y-111524577D01*
X119861740Y-111049909D01*
X119973113Y-110490000D01*
X119861740Y-109930091D01*
X119544577Y-109455423D01*
X119192242Y-109220000D01*
X119544577Y-108984577D01*
X119861740Y-108509909D01*
X119973113Y-107950000D01*
X119897327Y-107569000D01*
X122383765Y-107569000D01*
X123331471Y-108516707D01*
X123381067Y-108590933D01*
X123675130Y-108787419D01*
X123934444Y-108839000D01*
X123934448Y-108839000D01*
X124021999Y-108856415D01*
X124109550Y-108839000D01*
X124198152Y-108839000D01*
X124295423Y-108984577D01*
X124647758Y-109220000D01*
X124295423Y-109455423D01*
X123978260Y-109930091D01*
X123866887Y-110490000D01*
X123978260Y-111049909D01*
X124295423Y-111524577D01*
X124647758Y-111760000D01*
X124295423Y-111995423D01*
X123978260Y-112470091D01*
X123866887Y-113030000D01*
X123978260Y-113589909D01*
X124295423Y-114064577D01*
X124416106Y-114145215D01*
X124282235Y-114171843D01*
X124072191Y-114312191D01*
X123931843Y-114522235D01*
X123882560Y-114770000D01*
X123882560Y-116370000D01*
X123931843Y-116617765D01*
X124072191Y-116827809D01*
X124282235Y-116968157D01*
X124530000Y-117017440D01*
X126930000Y-117017440D01*
X127177765Y-116968157D01*
X127387809Y-116827809D01*
X127528157Y-116617765D01*
X127577440Y-116370000D01*
X127577440Y-114770000D01*
X127528157Y-114522235D01*
X127387809Y-114312191D01*
X127177765Y-114171843D01*
X127043894Y-114145215D01*
X127164577Y-114064577D01*
X127258535Y-113923958D01*
X129945647Y-113923958D01*
X130025920Y-114175259D01*
X130581279Y-114376718D01*
X131171458Y-114350315D01*
X131594080Y-114175259D01*
X131674353Y-113923958D01*
X130810000Y-113059605D01*
X129945647Y-113923958D01*
X127258535Y-113923958D01*
X127481740Y-113589909D01*
X127593113Y-113030000D01*
X127517781Y-112651279D01*
X129313282Y-112651279D01*
X129339685Y-113241458D01*
X129514741Y-113664080D01*
X129766042Y-113744353D01*
X130630395Y-112880000D01*
X130989605Y-112880000D01*
X131853958Y-113744353D01*
X132105259Y-113664080D01*
X132306718Y-113108721D01*
X132283271Y-112584615D01*
X133825000Y-112584615D01*
X133825000Y-113175385D01*
X134051078Y-113721185D01*
X134468815Y-114138922D01*
X135014615Y-114365000D01*
X135605385Y-114365000D01*
X136151185Y-114138922D01*
X136568922Y-113721185D01*
X136795000Y-113175385D01*
X136795000Y-112584615D01*
X136568922Y-112038815D01*
X136151185Y-111621078D01*
X135605385Y-111395000D01*
X135014615Y-111395000D01*
X134468815Y-111621078D01*
X134051078Y-112038815D01*
X133825000Y-112584615D01*
X132283271Y-112584615D01*
X132280315Y-112518542D01*
X132105259Y-112095920D01*
X131853958Y-112015647D01*
X130989605Y-112880000D01*
X130630395Y-112880000D01*
X129766042Y-112015647D01*
X129514741Y-112095920D01*
X129313282Y-112651279D01*
X127517781Y-112651279D01*
X127481740Y-112470091D01*
X127164577Y-111995423D01*
X126926047Y-111836042D01*
X129945647Y-111836042D01*
X130810000Y-112700395D01*
X131674353Y-111836042D01*
X131594080Y-111584741D01*
X131038721Y-111383282D01*
X130448542Y-111409685D01*
X130025920Y-111584741D01*
X129945647Y-111836042D01*
X126926047Y-111836042D01*
X126812242Y-111760000D01*
X127164577Y-111524577D01*
X127481740Y-111049909D01*
X127593113Y-110490000D01*
X127481740Y-109930091D01*
X127164577Y-109455423D01*
X126812242Y-109220000D01*
X127164577Y-108984577D01*
X127481740Y-108509909D01*
X127593113Y-107950000D01*
X127481740Y-107390091D01*
X127164577Y-106915423D01*
X126812242Y-106680000D01*
X127164577Y-106444577D01*
X127481740Y-105969909D01*
X127593113Y-105410000D01*
X127481740Y-104850091D01*
X127164577Y-104375423D01*
X126812242Y-104140000D01*
X127164577Y-103904577D01*
X127481740Y-103429909D01*
X127593113Y-102870000D01*
X127481740Y-102310091D01*
X127164577Y-101835423D01*
X126808501Y-101597501D01*
X127234500Y-101254896D01*
X127504367Y-100761819D01*
X127521904Y-100679039D01*
X127399915Y-100457000D01*
X125857000Y-100457000D01*
X125857000Y-100477000D01*
X125603000Y-100477000D01*
X125603000Y-100457000D01*
X124060085Y-100457000D01*
X123938096Y-100679039D01*
X123955633Y-100761819D01*
X124225500Y-101254896D01*
X124651499Y-101597501D01*
X124295423Y-101835423D01*
X124198152Y-101981000D01*
X124109550Y-101981000D01*
X124021999Y-101963585D01*
X123934448Y-101981000D01*
X123934444Y-101981000D01*
X123675130Y-102032581D01*
X123381067Y-102229067D01*
X123331471Y-102303293D01*
X121113765Y-104521000D01*
X119641848Y-104521000D01*
X119544577Y-104375423D01*
X119192242Y-104140000D01*
X119544577Y-103904577D01*
X119861740Y-103429909D01*
X119973113Y-102870000D01*
X119861740Y-102310091D01*
X119544577Y-101835423D01*
X119192242Y-101600000D01*
X119544577Y-101364577D01*
X119861740Y-100889909D01*
X119973113Y-100330000D01*
X119903685Y-99980961D01*
X123938096Y-99980961D01*
X124060085Y-100203000D01*
X125603000Y-100203000D01*
X125603000Y-98895000D01*
X125857000Y-98895000D01*
X125857000Y-100203000D01*
X127399915Y-100203000D01*
X127521904Y-99980961D01*
X127504367Y-99898181D01*
X127234500Y-99405104D01*
X126796483Y-99052834D01*
X126257000Y-98895000D01*
X125857000Y-98895000D01*
X125603000Y-98895000D01*
X125203000Y-98895000D01*
X124663517Y-99052834D01*
X124225500Y-99405104D01*
X123955633Y-99898181D01*
X123938096Y-99980961D01*
X119903685Y-99980961D01*
X119861740Y-99770091D01*
X119544577Y-99295423D01*
X119069909Y-98978260D01*
X118651333Y-98895000D01*
X117568667Y-98895000D01*
X117150091Y-98978260D01*
X116675423Y-99295423D01*
X116358260Y-99770091D01*
X116246887Y-100330000D01*
X116358260Y-100889909D01*
X116675423Y-101364577D01*
X117027758Y-101600000D01*
X116675423Y-101835423D01*
X116358260Y-102310091D01*
X116246887Y-102870000D01*
X116358260Y-103429909D01*
X116675423Y-103904577D01*
X117027758Y-104140000D01*
X116675423Y-104375423D01*
X116358260Y-104850091D01*
X116246887Y-105410000D01*
X116275852Y-105555616D01*
X115563531Y-104843296D01*
X115513933Y-104769067D01*
X115219870Y-104572581D01*
X114960556Y-104521000D01*
X114960555Y-104521000D01*
X114873000Y-104503584D01*
X114785445Y-104521000D01*
X114676579Y-104521000D01*
X114627481Y-104447519D01*
X114185891Y-104152458D01*
X113796485Y-104075000D01*
X113533515Y-104075000D01*
X113144109Y-104152458D01*
X112702519Y-104447519D01*
X112407458Y-104889109D01*
X112303846Y-105410000D01*
X110197000Y-105410000D01*
X110197000Y-99449221D01*
X110214416Y-99361424D01*
X110179980Y-99188780D01*
X110145419Y-99015030D01*
X110145283Y-99014827D01*
X110145236Y-99014590D01*
X110047053Y-98867814D01*
X109948933Y-98720967D01*
X109874511Y-98671240D01*
X109530000Y-98327092D01*
X109530000Y-96697440D01*
X111690000Y-96697440D01*
X111937765Y-96648157D01*
X112147809Y-96507809D01*
X112288157Y-96297765D01*
X112337440Y-96050000D01*
X112337440Y-94450000D01*
X112288157Y-94202235D01*
X112147809Y-93992191D01*
X111937765Y-93851843D01*
X111803894Y-93825215D01*
X111924577Y-93744577D01*
X112021848Y-93599000D01*
X114085445Y-93599000D01*
X114173000Y-93616416D01*
X114260555Y-93599000D01*
X114260556Y-93599000D01*
X114519870Y-93547419D01*
X114813933Y-93350933D01*
X114863531Y-93276704D01*
X116322102Y-91818133D01*
X116358260Y-91999909D01*
X116675423Y-92474577D01*
X117094000Y-92754261D01*
X117094001Y-95149932D01*
X117074096Y-95250000D01*
X117152950Y-95646423D01*
X117285368Y-95844600D01*
X117377506Y-95982495D01*
X117462337Y-96039177D01*
X117945000Y-96521840D01*
X117945000Y-96805439D01*
X118163466Y-97332862D01*
X118567138Y-97736534D01*
X119094561Y-97955000D01*
X119665439Y-97955000D01*
X120192862Y-97736534D01*
X120393396Y-97536000D01*
X120411307Y-97536000D01*
X120511370Y-97555904D01*
X120611433Y-97536000D01*
X120611435Y-97536000D01*
X120652935Y-97527745D01*
X123551861Y-97527745D01*
X123625995Y-97773864D01*
X124163223Y-97966965D01*
X124733454Y-97939778D01*
X125134005Y-97773864D01*
X125208139Y-97527745D01*
X124380000Y-96699605D01*
X123551861Y-97527745D01*
X120652935Y-97527745D01*
X120907793Y-97477051D01*
X121243865Y-97252495D01*
X121300550Y-97167660D01*
X122964211Y-95504000D01*
X123330364Y-95504000D01*
X123257378Y-95576986D01*
X123372253Y-95691861D01*
X123126136Y-95765995D01*
X122933035Y-96303223D01*
X122960222Y-96873454D01*
X123126136Y-97274005D01*
X123372255Y-97348139D01*
X124200395Y-96520000D01*
X124186252Y-96505858D01*
X124365858Y-96326252D01*
X124380000Y-96340395D01*
X124394142Y-96326252D01*
X124573748Y-96505858D01*
X124559605Y-96520000D01*
X125387745Y-97348139D01*
X125633864Y-97274005D01*
X125826965Y-96736777D01*
X125799778Y-96166546D01*
X125633864Y-95765995D01*
X125387747Y-95691861D01*
X125502622Y-95576986D01*
X125429636Y-95504000D01*
X131979937Y-95504000D01*
X132080000Y-95523904D01*
X132180063Y-95504000D01*
X132180065Y-95504000D01*
X132476423Y-95445051D01*
X132812495Y-95220495D01*
X132869180Y-95135661D01*
X134251664Y-93753177D01*
X134336495Y-93696495D01*
X134534253Y-93400529D01*
X134561050Y-93360425D01*
X134561050Y-93360424D01*
X134561051Y-93360423D01*
X134620000Y-93064065D01*
X134620000Y-93064064D01*
X134639904Y-92964001D01*
X134620000Y-92863937D01*
X134620000Y-86930713D01*
X134637142Y-86792404D01*
X134593236Y-86633384D01*
X134561051Y-86471577D01*
X134539765Y-86439721D01*
X134529569Y-86402791D01*
X134428150Y-86272676D01*
X134336495Y-86135505D01*
X134220611Y-86058074D01*
X132145000Y-84265501D01*
X132145000Y-84189452D01*
X131941758Y-83698783D01*
X131566217Y-83323242D01*
X131075548Y-83120000D01*
X130544452Y-83120000D01*
X130053783Y-83323242D01*
X129678242Y-83698783D01*
X129475000Y-84189452D01*
X129475000Y-84720548D01*
X129678242Y-85211217D01*
X130053783Y-85586758D01*
X130544452Y-85790000D01*
X130801370Y-85790000D01*
X132588001Y-87333000D01*
X132588000Y-92543159D01*
X131659160Y-93472000D01*
X129426743Y-93472000D01*
X129607933Y-93350933D01*
X129657531Y-93276704D01*
X129877033Y-93057202D01*
X130289109Y-93332542D01*
X130678515Y-93410000D01*
X130941485Y-93410000D01*
X131330891Y-93332542D01*
X131772481Y-93037481D01*
X132067542Y-92595891D01*
X132171154Y-92075000D01*
X132067542Y-91554109D01*
X131772481Y-91112519D01*
X131330891Y-90817458D01*
X130941485Y-90740000D01*
X130678515Y-90740000D01*
X130289109Y-90817458D01*
X129847519Y-91112519D01*
X129798421Y-91186000D01*
X129689556Y-91186000D01*
X129602000Y-91168584D01*
X129255129Y-91237581D01*
X129056783Y-91370112D01*
X128961067Y-91434067D01*
X128911470Y-91508294D01*
X128598765Y-91821000D01*
X127577440Y-91821000D01*
X127577440Y-90640000D01*
X127528157Y-90392235D01*
X127387809Y-90182191D01*
X127177765Y-90041843D01*
X127043894Y-90015215D01*
X127164577Y-89934577D01*
X127481740Y-89459909D01*
X127593113Y-88900000D01*
X127481740Y-88340091D01*
X127164577Y-87865423D01*
X126812242Y-87630000D01*
X127164577Y-87394577D01*
X127261848Y-87249000D01*
X128181165Y-87249000D01*
X128787600Y-87855436D01*
X128787600Y-88078857D01*
X128975618Y-88532771D01*
X129323029Y-88880182D01*
X129776943Y-89068200D01*
X130268257Y-89068200D01*
X130722171Y-88880182D01*
X131069582Y-88532771D01*
X131257600Y-88078857D01*
X131257600Y-87587543D01*
X131069582Y-87133629D01*
X130722171Y-86786218D01*
X130268257Y-86598200D01*
X130044836Y-86598200D01*
X129239931Y-85793296D01*
X129190333Y-85719067D01*
X128896270Y-85522581D01*
X128636956Y-85471000D01*
X128636955Y-85471000D01*
X128549400Y-85453584D01*
X128461845Y-85471000D01*
X127546005Y-85471000D01*
X127988880Y-85027714D01*
X128062933Y-84978233D01*
X128112646Y-84903832D01*
X128112793Y-84903685D01*
X128161268Y-84831064D01*
X128259419Y-84684170D01*
X128259461Y-84683959D01*
X128259580Y-84683781D01*
X128293963Y-84510508D01*
X128311000Y-84424856D01*
X128311000Y-84424648D01*
X128328416Y-84336879D01*
X128311000Y-84249536D01*
X128311000Y-83059890D01*
X128328415Y-82972380D01*
X128311000Y-82884788D01*
X128311000Y-82884744D01*
X128291244Y-82785423D01*
X128259449Y-82625503D01*
X128259427Y-82625470D01*
X128259419Y-82625430D01*
X128160766Y-82477785D01*
X128112579Y-82405654D01*
X128112551Y-82405626D01*
X128062933Y-82331367D01*
X127988740Y-82281793D01*
X127492558Y-81785523D01*
X127593113Y-81280000D01*
X127481740Y-80720091D01*
X127164577Y-80245423D01*
X126812242Y-80010000D01*
X127164577Y-79774577D01*
X127442726Y-79358297D01*
X127469330Y-79376073D01*
X129375000Y-81281815D01*
X129375000Y-81565439D01*
X129593466Y-82092862D01*
X129997138Y-82496534D01*
X130524561Y-82715000D01*
X131095439Y-82715000D01*
X131622862Y-82496534D01*
X132026534Y-82092862D01*
X132245000Y-81565439D01*
X132245000Y-80994561D01*
X132026534Y-80467138D01*
X131622862Y-80063466D01*
X131095439Y-79845000D01*
X130811868Y-79845000D01*
X129133000Y-78166071D01*
X129133000Y-77287745D01*
X129981861Y-77287745D01*
X130055995Y-77533864D01*
X130593223Y-77726965D01*
X131163454Y-77699778D01*
X131564005Y-77533864D01*
X131638139Y-77287745D01*
X130810000Y-76459605D01*
X129981861Y-77287745D01*
X129133000Y-77287745D01*
X129133000Y-76063223D01*
X129363035Y-76063223D01*
X129390222Y-76633454D01*
X129556136Y-77034005D01*
X129802255Y-77108139D01*
X130630395Y-76280000D01*
X130989605Y-76280000D01*
X131817745Y-77108139D01*
X132063864Y-77034005D01*
X132256965Y-76496777D01*
X132229778Y-75926546D01*
X132063864Y-75525995D01*
X131817745Y-75451861D01*
X130989605Y-76280000D01*
X130630395Y-76280000D01*
X129802255Y-75451861D01*
X129556136Y-75525995D01*
X129363035Y-76063223D01*
X129133000Y-76063223D01*
X129133000Y-75272255D01*
X129981861Y-75272255D01*
X130810000Y-76100395D01*
X131638139Y-75272255D01*
X131564005Y-75026136D01*
X131026777Y-74833035D01*
X130456546Y-74860222D01*
X130055995Y-75026136D01*
X129981861Y-75272255D01*
X129133000Y-75272255D01*
X129133000Y-74233929D01*
X130911864Y-72455000D01*
X131075548Y-72455000D01*
X131566217Y-72251758D01*
X131941758Y-71876217D01*
X132145000Y-71385548D01*
X132145000Y-70854452D01*
X131941758Y-70363783D01*
X131566217Y-69988242D01*
X131075548Y-69785000D01*
X130544452Y-69785000D01*
X130053783Y-69988242D01*
X129678242Y-70363783D01*
X129475000Y-70854452D01*
X129475000Y-71018182D01*
X127696148Y-72797100D01*
X125768000Y-72797100D01*
X125768000Y-72612561D01*
X125549534Y-72085138D01*
X125145862Y-71681466D01*
X124618439Y-71463000D01*
X124334841Y-71463000D01*
X119921285Y-67049445D01*
X119861740Y-66750091D01*
X119544577Y-66275423D01*
X119192242Y-66040000D01*
X119544577Y-65804577D01*
X119641848Y-65659000D01*
X121113765Y-65659000D01*
X123331471Y-67876707D01*
X123381067Y-67950933D01*
X123675130Y-68147419D01*
X123898855Y-68191921D01*
X123931843Y-68357765D01*
X124072191Y-68567809D01*
X124282235Y-68708157D01*
X124530000Y-68757440D01*
X126930000Y-68757440D01*
X127177765Y-68708157D01*
X127387809Y-68567809D01*
X127528157Y-68357765D01*
X127577440Y-68110000D01*
X127577440Y-66510000D01*
X127528157Y-66262235D01*
X127387809Y-66052191D01*
X127177765Y-65911843D01*
X127043894Y-65885215D01*
X127164577Y-65804577D01*
X127481740Y-65329909D01*
X127593113Y-64770000D01*
X127481740Y-64210091D01*
X127164577Y-63735423D01*
X126812242Y-63500000D01*
X127164577Y-63264577D01*
X127481740Y-62789909D01*
X127593113Y-62230000D01*
X127481740Y-61670091D01*
X127164577Y-61195423D01*
X126812242Y-60960000D01*
X127164577Y-60724577D01*
X127481740Y-60249909D01*
X127593113Y-59690000D01*
X127481740Y-59130091D01*
X127164577Y-58655423D01*
X126812242Y-58420000D01*
X127164577Y-58184577D01*
X127393433Y-57842069D01*
X127631000Y-58079636D01*
X127631001Y-67472441D01*
X127613584Y-67560000D01*
X127682582Y-67906870D01*
X127818309Y-68110000D01*
X127879068Y-68200933D01*
X127953294Y-68250529D01*
X128305000Y-68602235D01*
X128305000Y-68825657D01*
X128493018Y-69279571D01*
X128840429Y-69626982D01*
X129294343Y-69815000D01*
X129785657Y-69815000D01*
X130239571Y-69626982D01*
X130586982Y-69279571D01*
X130775000Y-68825657D01*
X130775000Y-68334343D01*
X130586982Y-67880429D01*
X130239571Y-67533018D01*
X129785657Y-67345000D01*
X129562235Y-67345000D01*
X129409000Y-67191765D01*
X129409000Y-63500000D01*
X129448846Y-63500000D01*
X129552458Y-64020891D01*
X129847519Y-64462481D01*
X130289109Y-64757542D01*
X130678515Y-64835000D01*
X130941485Y-64835000D01*
X131330891Y-64757542D01*
X131772481Y-64462481D01*
X132067542Y-64020891D01*
X132171154Y-63500000D01*
X132067542Y-62979109D01*
X131772481Y-62537519D01*
X131330891Y-62242458D01*
X130941485Y-62165000D01*
X130678515Y-62165000D01*
X130289109Y-62242458D01*
X129847519Y-62537519D01*
X129552458Y-62979109D01*
X129448846Y-63500000D01*
X129409000Y-63500000D01*
X129409000Y-60733958D01*
X129945647Y-60733958D01*
X130025920Y-60985259D01*
X130581279Y-61186718D01*
X131171458Y-61160315D01*
X131594080Y-60985259D01*
X131674353Y-60733958D01*
X130810000Y-59869605D01*
X129945647Y-60733958D01*
X129409000Y-60733958D01*
X129409000Y-60218799D01*
X129514741Y-60474080D01*
X129766042Y-60554353D01*
X130630395Y-59690000D01*
X130989605Y-59690000D01*
X131853958Y-60554353D01*
X132105259Y-60474080D01*
X132306718Y-59918721D01*
X132283271Y-59394615D01*
X133825000Y-59394615D01*
X133825000Y-59985385D01*
X134051078Y-60531185D01*
X134468815Y-60948922D01*
X135014615Y-61175000D01*
X135605385Y-61175000D01*
X136151185Y-60948922D01*
X136568922Y-60531185D01*
X136795000Y-59985385D01*
X136795000Y-59394615D01*
X136568922Y-58848815D01*
X136151185Y-58431078D01*
X135605385Y-58205000D01*
X135014615Y-58205000D01*
X134468815Y-58431078D01*
X134051078Y-58848815D01*
X133825000Y-59394615D01*
X132283271Y-59394615D01*
X132280315Y-59328542D01*
X132105259Y-58905920D01*
X131853958Y-58825647D01*
X130989605Y-59690000D01*
X130630395Y-59690000D01*
X129766042Y-58825647D01*
X129514741Y-58905920D01*
X129409000Y-59197415D01*
X129409000Y-58646042D01*
X129945647Y-58646042D01*
X130810000Y-59510395D01*
X131674353Y-58646042D01*
X131594080Y-58394741D01*
X131038721Y-58193282D01*
X130448542Y-58219685D01*
X130025920Y-58394741D01*
X129945647Y-58646042D01*
X129409000Y-58646042D01*
X129409000Y-57798955D01*
X129426416Y-57711400D01*
X129408351Y-57620582D01*
X129357419Y-57364530D01*
X129160933Y-57070467D01*
X129086707Y-57020871D01*
X127394731Y-55328896D01*
X127385120Y-55314512D01*
X127481740Y-55169909D01*
X127593113Y-54610000D01*
X127518314Y-54233958D01*
X129945647Y-54233958D01*
X130025920Y-54485259D01*
X130581279Y-54686718D01*
X131171458Y-54660315D01*
X131594080Y-54485259D01*
X131674353Y-54233958D01*
X130810000Y-53369605D01*
X129945647Y-54233958D01*
X127518314Y-54233958D01*
X127481740Y-54050091D01*
X127164577Y-53575423D01*
X126808501Y-53337501D01*
X127234500Y-52994896D01*
X127252898Y-52961279D01*
X129313282Y-52961279D01*
X129339685Y-53551458D01*
X129514741Y-53974080D01*
X129766042Y-54054353D01*
X130630395Y-53190000D01*
X130989605Y-53190000D01*
X131853958Y-54054353D01*
X132105259Y-53974080D01*
X132306718Y-53418721D01*
X132283271Y-52894615D01*
X133825000Y-52894615D01*
X133825000Y-53485385D01*
X134051078Y-54031185D01*
X134468815Y-54448922D01*
X135014615Y-54675000D01*
X135605385Y-54675000D01*
X136151185Y-54448922D01*
X136568922Y-54031185D01*
X136795000Y-53485385D01*
X136795000Y-52894615D01*
X136568922Y-52348815D01*
X136151185Y-51931078D01*
X135605385Y-51705000D01*
X135014615Y-51705000D01*
X134468815Y-51931078D01*
X134051078Y-52348815D01*
X133825000Y-52894615D01*
X132283271Y-52894615D01*
X132280315Y-52828542D01*
X132105259Y-52405920D01*
X131853958Y-52325647D01*
X130989605Y-53190000D01*
X130630395Y-53190000D01*
X129766042Y-52325647D01*
X129514741Y-52405920D01*
X129313282Y-52961279D01*
X127252898Y-52961279D01*
X127504367Y-52501819D01*
X127521904Y-52419039D01*
X127399915Y-52197000D01*
X125857000Y-52197000D01*
X125857000Y-52217000D01*
X125603000Y-52217000D01*
X125603000Y-52197000D01*
X124060085Y-52197000D01*
X123938096Y-52419039D01*
X123955633Y-52501819D01*
X124225500Y-52994896D01*
X124651499Y-53337501D01*
X124295423Y-53575423D01*
X123978260Y-54050091D01*
X123866887Y-54610000D01*
X123945776Y-55006600D01*
X122735936Y-55006600D01*
X120502631Y-52773296D01*
X120453033Y-52699067D01*
X120158970Y-52502581D01*
X119899656Y-52451000D01*
X119899655Y-52451000D01*
X119897416Y-52450555D01*
X119957987Y-52146042D01*
X129945647Y-52146042D01*
X130810000Y-53010395D01*
X131674353Y-52146042D01*
X131594080Y-51894741D01*
X131038721Y-51693282D01*
X130448542Y-51719685D01*
X130025920Y-51894741D01*
X129945647Y-52146042D01*
X119957987Y-52146042D01*
X119973113Y-52070000D01*
X119861740Y-51510091D01*
X119544577Y-51035423D01*
X119382311Y-50927000D01*
X124496693Y-50927000D01*
X124225500Y-51145104D01*
G36*
X105772001Y-89249237D02*
X105772000Y-98963989D01*
X105546777Y-98883035D01*
X104976546Y-98910222D01*
X104575995Y-99076136D01*
X104501861Y-99322255D01*
X105330000Y-100150395D01*
X105344142Y-100136252D01*
X105523748Y-100315858D01*
X105509605Y-100330000D01*
X105523748Y-100344143D01*
X105344142Y-100523748D01*
X105330000Y-100509605D01*
X105315858Y-100523748D01*
X105136253Y-100344143D01*
X105150395Y-100330000D01*
X104322255Y-99501861D01*
X104076136Y-99575995D01*
X104071562Y-99588721D01*
X99353740Y-94870900D01*
X100765294Y-94870900D01*
X100845018Y-95063371D01*
X101192429Y-95410782D01*
X101646343Y-95598800D01*
X102137657Y-95598800D01*
X102591571Y-95410782D01*
X102672100Y-95330253D01*
X102998429Y-95656582D01*
X103452343Y-95844600D01*
X103943657Y-95844600D01*
X104397571Y-95656582D01*
X104744982Y-95309171D01*
X104933000Y-94855257D01*
X104933000Y-94363943D01*
X104744982Y-93910029D01*
X104397571Y-93562618D01*
X103943657Y-93374600D01*
X103720159Y-93374600D01*
X101218516Y-90873273D01*
X101168933Y-90799067D01*
X101094680Y-90749453D01*
X101094662Y-90749435D01*
X101031119Y-90706983D01*
X100874870Y-90602581D01*
X100874839Y-90602575D01*
X100874817Y-90602560D01*
X100708780Y-90569544D01*
X100615556Y-90551000D01*
X100615526Y-90551000D01*
X100527943Y-90533584D01*
X100440417Y-90551000D01*
X97037327Y-90551000D01*
X97113113Y-90170000D01*
X97037347Y-89789100D01*
X97124447Y-89789100D01*
X97282429Y-89947082D01*
X97736343Y-90135100D01*
X98227657Y-90135100D01*
X98681571Y-89947082D01*
X99028982Y-89599671D01*
X99217000Y-89145757D01*
X99217000Y-88654443D01*
X99028982Y-88200529D01*
X98681571Y-87853118D01*
X98227657Y-87665100D01*
X97736343Y-87665100D01*
X97282429Y-87853118D01*
X97124447Y-88011100D01*
X97037307Y-88011100D01*
X97113113Y-87630000D01*
X97037347Y-87249100D01*
X103771865Y-87249100D01*
X105772001Y-89249237D01*
X105772001Y-89249237D01*
G37*
X105772001Y-89249237D02*
X105772000Y-98963989D01*
X105546777Y-98883035D01*
X104976546Y-98910222D01*
X104575995Y-99076136D01*
X104501861Y-99322255D01*
X105330000Y-100150395D01*
X105344142Y-100136252D01*
X105523748Y-100315858D01*
X105509605Y-100330000D01*
X105523748Y-100344143D01*
X105344142Y-100523748D01*
X105330000Y-100509605D01*
X105315858Y-100523748D01*
X105136253Y-100344143D01*
X105150395Y-100330000D01*
X104322255Y-99501861D01*
X104076136Y-99575995D01*
X104071562Y-99588721D01*
X99353740Y-94870900D01*
X100765294Y-94870900D01*
X100845018Y-95063371D01*
X101192429Y-95410782D01*
X101646343Y-95598800D01*
X102137657Y-95598800D01*
X102591571Y-95410782D01*
X102672100Y-95330253D01*
X102998429Y-95656582D01*
X103452343Y-95844600D01*
X103943657Y-95844600D01*
X104397571Y-95656582D01*
X104744982Y-95309171D01*
X104933000Y-94855257D01*
X104933000Y-94363943D01*
X104744982Y-93910029D01*
X104397571Y-93562618D01*
X103943657Y-93374600D01*
X103720159Y-93374600D01*
X101218516Y-90873273D01*
X101168933Y-90799067D01*
X101094680Y-90749453D01*
X101094662Y-90749435D01*
X101031119Y-90706983D01*
X100874870Y-90602581D01*
X100874839Y-90602575D01*
X100874817Y-90602560D01*
X100708780Y-90569544D01*
X100615556Y-90551000D01*
X100615526Y-90551000D01*
X100527943Y-90533584D01*
X100440417Y-90551000D01*
X97037327Y-90551000D01*
X97113113Y-90170000D01*
X97037347Y-89789100D01*
X97124447Y-89789100D01*
X97282429Y-89947082D01*
X97736343Y-90135100D01*
X98227657Y-90135100D01*
X98681571Y-89947082D01*
X99028982Y-89599671D01*
X99217000Y-89145757D01*
X99217000Y-88654443D01*
X99028982Y-88200529D01*
X98681571Y-87853118D01*
X98227657Y-87665100D01*
X97736343Y-87665100D01*
X97282429Y-87853118D01*
X97124447Y-88011100D01*
X97037307Y-88011100D01*
X97113113Y-87630000D01*
X97037347Y-87249100D01*
X103771865Y-87249100D01*
X105772001Y-89249237D01*
G36*
X115541770Y-53906706D02*
X115591367Y-53980933D01*
X115885430Y-54177419D01*
X116144744Y-54229000D01*
X116232299Y-54246416D01*
X116319854Y-54229000D01*
X116322673Y-54229000D01*
X116246887Y-54610000D01*
X116358260Y-55169909D01*
X116675423Y-55644577D01*
X117027758Y-55880000D01*
X116675423Y-56115423D01*
X116358260Y-56590091D01*
X116246887Y-57150000D01*
X116358260Y-57709909D01*
X116675423Y-58184577D01*
X117027758Y-58420000D01*
X116675423Y-58655423D01*
X116358260Y-59130091D01*
X116246887Y-59690000D01*
X116358260Y-60249909D01*
X116675423Y-60724577D01*
X117027758Y-60960000D01*
X116675423Y-61195423D01*
X116358260Y-61670091D01*
X116246887Y-62230000D01*
X116358260Y-62789909D01*
X116675423Y-63264577D01*
X117027758Y-63500000D01*
X116675423Y-63735423D01*
X116358260Y-64210091D01*
X116246887Y-64770000D01*
X116358260Y-65329909D01*
X116675423Y-65804577D01*
X117027758Y-66040000D01*
X116675423Y-66275423D01*
X116358260Y-66750091D01*
X116246887Y-67310000D01*
X116358260Y-67869909D01*
X116675423Y-68344577D01*
X117150091Y-68661740D01*
X117568667Y-68745000D01*
X118651333Y-68745000D01*
X118727925Y-68729765D01*
X122898000Y-72899841D01*
X122898000Y-73183439D01*
X123116466Y-73710862D01*
X123520138Y-74114534D01*
X124047561Y-74333000D01*
X124331159Y-74333000D01*
X124458922Y-74460763D01*
X124515605Y-74545595D01*
X124851677Y-74770151D01*
X125050331Y-74809666D01*
X124663517Y-74922834D01*
X124225500Y-75275104D01*
X123955633Y-75768181D01*
X123938096Y-75850961D01*
X124060085Y-76073000D01*
X125603000Y-76073000D01*
X125603000Y-76053000D01*
X125857000Y-76053000D01*
X125857000Y-76073000D01*
X125877000Y-76073000D01*
X125877000Y-76327000D01*
X125857000Y-76327000D01*
X125857000Y-76347000D01*
X125603000Y-76347000D01*
X125603000Y-76327000D01*
X124060085Y-76327000D01*
X123938096Y-76549039D01*
X123955633Y-76631819D01*
X124225500Y-77124896D01*
X124651499Y-77467501D01*
X124295423Y-77705423D01*
X123978260Y-78180091D01*
X123866887Y-78740000D01*
X123978260Y-79299909D01*
X124295423Y-79774577D01*
X124647758Y-80010000D01*
X124295423Y-80245423D01*
X124275070Y-80275884D01*
X121127000Y-77128231D01*
X121127000Y-76326353D01*
X121284982Y-76168371D01*
X121473000Y-75714457D01*
X121473000Y-75223143D01*
X121284982Y-74769229D01*
X120937571Y-74421818D01*
X120483657Y-74233800D01*
X119992343Y-74233800D01*
X119538429Y-74421818D01*
X119191018Y-74769229D01*
X119139125Y-74894509D01*
X119069909Y-74848260D01*
X118651333Y-74765000D01*
X117568667Y-74765000D01*
X117150091Y-74848260D01*
X116675423Y-75165423D01*
X116358260Y-75640091D01*
X116246887Y-76200000D01*
X116358260Y-76759909D01*
X116675423Y-77234577D01*
X117027758Y-77470000D01*
X116675423Y-77705423D01*
X116446366Y-78048231D01*
X114938500Y-76540365D01*
X114938500Y-73905745D01*
X118504861Y-73905745D01*
X118578995Y-74151864D01*
X119116223Y-74344965D01*
X119686454Y-74317778D01*
X120087005Y-74151864D01*
X120161139Y-73905745D01*
X119333000Y-73077605D01*
X118504861Y-73905745D01*
X114938500Y-73905745D01*
X114938500Y-72681223D01*
X117886035Y-72681223D01*
X117913222Y-73251454D01*
X118079136Y-73652005D01*
X118325255Y-73726139D01*
X119153395Y-72898000D01*
X119512605Y-72898000D01*
X120340745Y-73726139D01*
X120586864Y-73652005D01*
X120779965Y-73114777D01*
X120752778Y-72544546D01*
X120586864Y-72143995D01*
X120340745Y-72069861D01*
X119512605Y-72898000D01*
X119153395Y-72898000D01*
X118325255Y-72069861D01*
X118079136Y-72143995D01*
X117886035Y-72681223D01*
X114938500Y-72681223D01*
X114938500Y-71890255D01*
X118504861Y-71890255D01*
X119333000Y-72718395D01*
X120161139Y-71890255D01*
X120087005Y-71644136D01*
X119549777Y-71451035D01*
X118979546Y-71478222D01*
X118578995Y-71644136D01*
X118504861Y-71890255D01*
X114938500Y-71890255D01*
X114938500Y-71296855D01*
X114955916Y-71209300D01*
X114914461Y-71000894D01*
X114886919Y-70862430D01*
X114690433Y-70568367D01*
X114616207Y-70518771D01*
X112131832Y-68034397D01*
X112241740Y-67869909D01*
X112353113Y-67310000D01*
X112241740Y-66750091D01*
X111924577Y-66275423D01*
X111572242Y-66040000D01*
X111924577Y-65804577D01*
X112241740Y-65329909D01*
X112353113Y-64770000D01*
X112241740Y-64210091D01*
X111924577Y-63735423D01*
X111568501Y-63497501D01*
X111994500Y-63154896D01*
X112264367Y-62661819D01*
X112281904Y-62579039D01*
X112159915Y-62357000D01*
X110617000Y-62357000D01*
X110617000Y-62377000D01*
X110363000Y-62377000D01*
X110363000Y-62357000D01*
X108820085Y-62357000D01*
X108698096Y-62579039D01*
X108715633Y-62661819D01*
X108985500Y-63154896D01*
X109411499Y-63497501D01*
X109055423Y-63735423D01*
X108738260Y-64210091D01*
X108626887Y-64770000D01*
X108738260Y-65329909D01*
X109055423Y-65804577D01*
X109407758Y-66040000D01*
X109055423Y-66275423D01*
X108738260Y-66750091D01*
X108723837Y-66822602D01*
X108679731Y-66778496D01*
X108630133Y-66704267D01*
X108336070Y-66507781D01*
X108076756Y-66456200D01*
X108076755Y-66456200D01*
X107989200Y-66438784D01*
X107901645Y-66456200D01*
X107038114Y-66456200D01*
X107182900Y-66106657D01*
X107182900Y-65615343D01*
X106994882Y-65161429D01*
X106836900Y-65003447D01*
X106836900Y-61880961D01*
X108698096Y-61880961D01*
X108820085Y-62103000D01*
X110363000Y-62103000D01*
X110363000Y-60795000D01*
X110617000Y-60795000D01*
X110617000Y-62103000D01*
X112159915Y-62103000D01*
X112281904Y-61880961D01*
X112264367Y-61798181D01*
X111994500Y-61305104D01*
X111556483Y-60952834D01*
X111017000Y-60795000D01*
X110617000Y-60795000D01*
X110363000Y-60795000D01*
X109963000Y-60795000D01*
X109423517Y-60952834D01*
X108985500Y-61305104D01*
X108715633Y-61798181D01*
X108698096Y-61880961D01*
X106836900Y-61880961D01*
X106836900Y-57775455D01*
X106854316Y-57687900D01*
X106816749Y-57499039D01*
X106785319Y-57341030D01*
X106588833Y-57046967D01*
X106514607Y-56997371D01*
X104298956Y-54781720D01*
X104333113Y-54610000D01*
X104221740Y-54050091D01*
X103904577Y-53575423D01*
X103429909Y-53258260D01*
X103011333Y-53175000D01*
X102728667Y-53175000D01*
X102310091Y-53258260D01*
X101835423Y-53575423D01*
X101518260Y-54050091D01*
X101406887Y-54610000D01*
X101518260Y-55169909D01*
X101835423Y-55644577D01*
X101956106Y-55725215D01*
X101822235Y-55751843D01*
X101612191Y-55892191D01*
X101471843Y-56102235D01*
X101422560Y-56350000D01*
X101422560Y-57950000D01*
X101471843Y-58197765D01*
X101612191Y-58407809D01*
X101822235Y-58548157D01*
X101988080Y-58581145D01*
X102032582Y-58804870D01*
X102229068Y-59098933D01*
X102303294Y-59148529D01*
X102421700Y-59266935D01*
X102421700Y-61280664D01*
X96483213Y-55342178D01*
X96641904Y-54959039D01*
X96519915Y-54737000D01*
X95377000Y-54737000D01*
X95377000Y-54757000D01*
X95123000Y-54757000D01*
X95123000Y-54737000D01*
X95103000Y-54737000D01*
X95103000Y-54483000D01*
X95123000Y-54483000D01*
X95123000Y-54463000D01*
X95377000Y-54463000D01*
X95377000Y-54483000D01*
X96519915Y-54483000D01*
X96641904Y-54260961D01*
X96481041Y-53872577D01*
X96105134Y-53457611D01*
X95935578Y-53377363D01*
X96312241Y-53000700D01*
X109101452Y-53000700D01*
X109043035Y-53163223D01*
X109070222Y-53733454D01*
X109236136Y-54134005D01*
X109482255Y-54208139D01*
X110310395Y-53380000D01*
X110296253Y-53365858D01*
X110475858Y-53186253D01*
X110490000Y-53200395D01*
X110504143Y-53186253D01*
X110683748Y-53365858D01*
X110669605Y-53380000D01*
X110683748Y-53394143D01*
X110504143Y-53573748D01*
X110490000Y-53559605D01*
X109661861Y-54387745D01*
X109676187Y-54435307D01*
X109442235Y-54481843D01*
X109232191Y-54622191D01*
X109091843Y-54832235D01*
X109042560Y-55080000D01*
X109042560Y-56680000D01*
X109091843Y-56927765D01*
X109232191Y-57137809D01*
X109442235Y-57278157D01*
X109690000Y-57327440D01*
X111290000Y-57327440D01*
X111537765Y-57278157D01*
X111747809Y-57137809D01*
X111888157Y-56927765D01*
X111937440Y-56680000D01*
X111937440Y-55869401D01*
X112541363Y-55265478D01*
X112626195Y-55208795D01*
X112850751Y-54872723D01*
X112909700Y-54576365D01*
X112909700Y-54576364D01*
X112929604Y-54476300D01*
X112909700Y-54376236D01*
X112909700Y-52904463D01*
X112929604Y-52804400D01*
X112895384Y-52632363D01*
X112850751Y-52407977D01*
X112626195Y-52071905D01*
X112563330Y-52029900D01*
X113664965Y-52029900D01*
X115541770Y-53906706D01*
X115541770Y-53906706D01*
G37*
X115541770Y-53906706D02*
X115591367Y-53980933D01*
X115885430Y-54177419D01*
X116144744Y-54229000D01*
X116232299Y-54246416D01*
X116319854Y-54229000D01*
X116322673Y-54229000D01*
X116246887Y-54610000D01*
X116358260Y-55169909D01*
X116675423Y-55644577D01*
X117027758Y-55880000D01*
X116675423Y-56115423D01*
X116358260Y-56590091D01*
X116246887Y-57150000D01*
X116358260Y-57709909D01*
X116675423Y-58184577D01*
X117027758Y-58420000D01*
X116675423Y-58655423D01*
X116358260Y-59130091D01*
X116246887Y-59690000D01*
X116358260Y-60249909D01*
X116675423Y-60724577D01*
X117027758Y-60960000D01*
X116675423Y-61195423D01*
X116358260Y-61670091D01*
X116246887Y-62230000D01*
X116358260Y-62789909D01*
X116675423Y-63264577D01*
X117027758Y-63500000D01*
X116675423Y-63735423D01*
X116358260Y-64210091D01*
X116246887Y-64770000D01*
X116358260Y-65329909D01*
X116675423Y-65804577D01*
X117027758Y-66040000D01*
X116675423Y-66275423D01*
X116358260Y-66750091D01*
X116246887Y-67310000D01*
X116358260Y-67869909D01*
X116675423Y-68344577D01*
X117150091Y-68661740D01*
X117568667Y-68745000D01*
X118651333Y-68745000D01*
X118727925Y-68729765D01*
X122898000Y-72899841D01*
X122898000Y-73183439D01*
X123116466Y-73710862D01*
X123520138Y-74114534D01*
X124047561Y-74333000D01*
X124331159Y-74333000D01*
X124458922Y-74460763D01*
X124515605Y-74545595D01*
X124851677Y-74770151D01*
X125050331Y-74809666D01*
X124663517Y-74922834D01*
X124225500Y-75275104D01*
X123955633Y-75768181D01*
X123938096Y-75850961D01*
X124060085Y-76073000D01*
X125603000Y-76073000D01*
X125603000Y-76053000D01*
X125857000Y-76053000D01*
X125857000Y-76073000D01*
X125877000Y-76073000D01*
X125877000Y-76327000D01*
X125857000Y-76327000D01*
X125857000Y-76347000D01*
X125603000Y-76347000D01*
X125603000Y-76327000D01*
X124060085Y-76327000D01*
X123938096Y-76549039D01*
X123955633Y-76631819D01*
X124225500Y-77124896D01*
X124651499Y-77467501D01*
X124295423Y-77705423D01*
X123978260Y-78180091D01*
X123866887Y-78740000D01*
X123978260Y-79299909D01*
X124295423Y-79774577D01*
X124647758Y-80010000D01*
X124295423Y-80245423D01*
X124275070Y-80275884D01*
X121127000Y-77128231D01*
X121127000Y-76326353D01*
X121284982Y-76168371D01*
X121473000Y-75714457D01*
X121473000Y-75223143D01*
X121284982Y-74769229D01*
X120937571Y-74421818D01*
X120483657Y-74233800D01*
X119992343Y-74233800D01*
X119538429Y-74421818D01*
X119191018Y-74769229D01*
X119139125Y-74894509D01*
X119069909Y-74848260D01*
X118651333Y-74765000D01*
X117568667Y-74765000D01*
X117150091Y-74848260D01*
X116675423Y-75165423D01*
X116358260Y-75640091D01*
X116246887Y-76200000D01*
X116358260Y-76759909D01*
X116675423Y-77234577D01*
X117027758Y-77470000D01*
X116675423Y-77705423D01*
X116446366Y-78048231D01*
X114938500Y-76540365D01*
X114938500Y-73905745D01*
X118504861Y-73905745D01*
X118578995Y-74151864D01*
X119116223Y-74344965D01*
X119686454Y-74317778D01*
X120087005Y-74151864D01*
X120161139Y-73905745D01*
X119333000Y-73077605D01*
X118504861Y-73905745D01*
X114938500Y-73905745D01*
X114938500Y-72681223D01*
X117886035Y-72681223D01*
X117913222Y-73251454D01*
X118079136Y-73652005D01*
X118325255Y-73726139D01*
X119153395Y-72898000D01*
X119512605Y-72898000D01*
X120340745Y-73726139D01*
X120586864Y-73652005D01*
X120779965Y-73114777D01*
X120752778Y-72544546D01*
X120586864Y-72143995D01*
X120340745Y-72069861D01*
X119512605Y-72898000D01*
X119153395Y-72898000D01*
X118325255Y-72069861D01*
X118079136Y-72143995D01*
X117886035Y-72681223D01*
X114938500Y-72681223D01*
X114938500Y-71890255D01*
X118504861Y-71890255D01*
X119333000Y-72718395D01*
X120161139Y-71890255D01*
X120087005Y-71644136D01*
X119549777Y-71451035D01*
X118979546Y-71478222D01*
X118578995Y-71644136D01*
X118504861Y-71890255D01*
X114938500Y-71890255D01*
X114938500Y-71296855D01*
X114955916Y-71209300D01*
X114914461Y-71000894D01*
X114886919Y-70862430D01*
X114690433Y-70568367D01*
X114616207Y-70518771D01*
X112131832Y-68034397D01*
X112241740Y-67869909D01*
X112353113Y-67310000D01*
X112241740Y-66750091D01*
X111924577Y-66275423D01*
X111572242Y-66040000D01*
X111924577Y-65804577D01*
X112241740Y-65329909D01*
X112353113Y-64770000D01*
X112241740Y-64210091D01*
X111924577Y-63735423D01*
X111568501Y-63497501D01*
X111994500Y-63154896D01*
X112264367Y-62661819D01*
X112281904Y-62579039D01*
X112159915Y-62357000D01*
X110617000Y-62357000D01*
X110617000Y-62377000D01*
X110363000Y-62377000D01*
X110363000Y-62357000D01*
X108820085Y-62357000D01*
X108698096Y-62579039D01*
X108715633Y-62661819D01*
X108985500Y-63154896D01*
X109411499Y-63497501D01*
X109055423Y-63735423D01*
X108738260Y-64210091D01*
X108626887Y-64770000D01*
X108738260Y-65329909D01*
X109055423Y-65804577D01*
X109407758Y-66040000D01*
X109055423Y-66275423D01*
X108738260Y-66750091D01*
X108723837Y-66822602D01*
X108679731Y-66778496D01*
X108630133Y-66704267D01*
X108336070Y-66507781D01*
X108076756Y-66456200D01*
X108076755Y-66456200D01*
X107989200Y-66438784D01*
X107901645Y-66456200D01*
X107038114Y-66456200D01*
X107182900Y-66106657D01*
X107182900Y-65615343D01*
X106994882Y-65161429D01*
X106836900Y-65003447D01*
X106836900Y-61880961D01*
X108698096Y-61880961D01*
X108820085Y-62103000D01*
X110363000Y-62103000D01*
X110363000Y-60795000D01*
X110617000Y-60795000D01*
X110617000Y-62103000D01*
X112159915Y-62103000D01*
X112281904Y-61880961D01*
X112264367Y-61798181D01*
X111994500Y-61305104D01*
X111556483Y-60952834D01*
X111017000Y-60795000D01*
X110617000Y-60795000D01*
X110363000Y-60795000D01*
X109963000Y-60795000D01*
X109423517Y-60952834D01*
X108985500Y-61305104D01*
X108715633Y-61798181D01*
X108698096Y-61880961D01*
X106836900Y-61880961D01*
X106836900Y-57775455D01*
X106854316Y-57687900D01*
X106816749Y-57499039D01*
X106785319Y-57341030D01*
X106588833Y-57046967D01*
X106514607Y-56997371D01*
X104298956Y-54781720D01*
X104333113Y-54610000D01*
X104221740Y-54050091D01*
X103904577Y-53575423D01*
X103429909Y-53258260D01*
X103011333Y-53175000D01*
X102728667Y-53175000D01*
X102310091Y-53258260D01*
X101835423Y-53575423D01*
X101518260Y-54050091D01*
X101406887Y-54610000D01*
X101518260Y-55169909D01*
X101835423Y-55644577D01*
X101956106Y-55725215D01*
X101822235Y-55751843D01*
X101612191Y-55892191D01*
X101471843Y-56102235D01*
X101422560Y-56350000D01*
X101422560Y-57950000D01*
X101471843Y-58197765D01*
X101612191Y-58407809D01*
X101822235Y-58548157D01*
X101988080Y-58581145D01*
X102032582Y-58804870D01*
X102229068Y-59098933D01*
X102303294Y-59148529D01*
X102421700Y-59266935D01*
X102421700Y-61280664D01*
X96483213Y-55342178D01*
X96641904Y-54959039D01*
X96519915Y-54737000D01*
X95377000Y-54737000D01*
X95377000Y-54757000D01*
X95123000Y-54757000D01*
X95123000Y-54737000D01*
X95103000Y-54737000D01*
X95103000Y-54483000D01*
X95123000Y-54483000D01*
X95123000Y-54463000D01*
X95377000Y-54463000D01*
X95377000Y-54483000D01*
X96519915Y-54483000D01*
X96641904Y-54260961D01*
X96481041Y-53872577D01*
X96105134Y-53457611D01*
X95935578Y-53377363D01*
X96312241Y-53000700D01*
X109101452Y-53000700D01*
X109043035Y-53163223D01*
X109070222Y-53733454D01*
X109236136Y-54134005D01*
X109482255Y-54208139D01*
X110310395Y-53380000D01*
X110296253Y-53365858D01*
X110475858Y-53186253D01*
X110490000Y-53200395D01*
X110504143Y-53186253D01*
X110683748Y-53365858D01*
X110669605Y-53380000D01*
X110683748Y-53394143D01*
X110504143Y-53573748D01*
X110490000Y-53559605D01*
X109661861Y-54387745D01*
X109676187Y-54435307D01*
X109442235Y-54481843D01*
X109232191Y-54622191D01*
X109091843Y-54832235D01*
X109042560Y-55080000D01*
X109042560Y-56680000D01*
X109091843Y-56927765D01*
X109232191Y-57137809D01*
X109442235Y-57278157D01*
X109690000Y-57327440D01*
X111290000Y-57327440D01*
X111537765Y-57278157D01*
X111747809Y-57137809D01*
X111888157Y-56927765D01*
X111937440Y-56680000D01*
X111937440Y-55869401D01*
X112541363Y-55265478D01*
X112626195Y-55208795D01*
X112850751Y-54872723D01*
X112909700Y-54576365D01*
X112909700Y-54576364D01*
X112929604Y-54476300D01*
X112909700Y-54376236D01*
X112909700Y-52904463D01*
X112929604Y-52804400D01*
X112895384Y-52632363D01*
X112850751Y-52407977D01*
X112626195Y-52071905D01*
X112563330Y-52029900D01*
X113664965Y-52029900D01*
X115541770Y-53906706D01*
G36*
X95377000Y-57023000D02*
X95397000Y-57023000D01*
X95397000Y-57277000D01*
X95377000Y-57277000D01*
X95377000Y-58420629D01*
X95599041Y-58541914D01*
X96105134Y-58302389D01*
X96481041Y-57887423D01*
X96490690Y-57864126D01*
X101713401Y-63086837D01*
X101713400Y-66005745D01*
X101695984Y-66093300D01*
X101713400Y-66180855D01*
X101764981Y-66440169D01*
X101961467Y-66734233D01*
X102035696Y-66783831D01*
X105488364Y-70236500D01*
X97036233Y-70236500D01*
X97113113Y-69850000D01*
X97001740Y-69290091D01*
X96684577Y-68815423D01*
X96332242Y-68580000D01*
X96684577Y-68344577D01*
X97001740Y-67869909D01*
X97113113Y-67310000D01*
X97001740Y-66750091D01*
X96684577Y-66275423D01*
X96332242Y-66040000D01*
X96684577Y-65804577D01*
X97001740Y-65329909D01*
X97113113Y-64770000D01*
X97001740Y-64210091D01*
X96684577Y-63735423D01*
X96332242Y-63500000D01*
X96684577Y-63264577D01*
X97001740Y-62789909D01*
X97113113Y-62230000D01*
X97001740Y-61670091D01*
X96684577Y-61195423D01*
X96209909Y-60878260D01*
X95791333Y-60795000D01*
X94708667Y-60795000D01*
X94290091Y-60878260D01*
X93815423Y-61195423D01*
X93498260Y-61670091D01*
X93386887Y-62230000D01*
X93498260Y-62789909D01*
X93815423Y-63264577D01*
X94167758Y-63500000D01*
X93815423Y-63735423D01*
X93498260Y-64210091D01*
X93386887Y-64770000D01*
X93498260Y-65329909D01*
X93815423Y-65804577D01*
X94167758Y-66040000D01*
X93815423Y-66275423D01*
X93718152Y-66421000D01*
X93629556Y-66421000D01*
X93542000Y-66403584D01*
X93454444Y-66421000D01*
X93195130Y-66472581D01*
X92901067Y-66669067D01*
X92704581Y-66963130D01*
X92635584Y-67310000D01*
X92653000Y-67397556D01*
X92653001Y-69945363D01*
X92265765Y-70332600D01*
X92042343Y-70332600D01*
X91588429Y-70520618D01*
X91567000Y-70542047D01*
X91567000Y-58306253D01*
X91789629Y-58528882D01*
X92243543Y-58716900D01*
X92734857Y-58716900D01*
X93188771Y-58528882D01*
X93536182Y-58181471D01*
X93724200Y-57727557D01*
X93724200Y-57504135D01*
X93951333Y-57277002D01*
X93980084Y-57277002D01*
X93858096Y-57499039D01*
X94018959Y-57887423D01*
X94394866Y-58302389D01*
X94900959Y-58541914D01*
X95123000Y-58420629D01*
X95123000Y-57277000D01*
X95103000Y-57277000D01*
X95103000Y-57023000D01*
X95123000Y-57023000D01*
X95123000Y-57003000D01*
X95377000Y-57003000D01*
X95377000Y-57023000D01*
X95377000Y-57023000D01*
G37*
X95377000Y-57023000D02*
X95397000Y-57023000D01*
X95397000Y-57277000D01*
X95377000Y-57277000D01*
X95377000Y-58420629D01*
X95599041Y-58541914D01*
X96105134Y-58302389D01*
X96481041Y-57887423D01*
X96490690Y-57864126D01*
X101713401Y-63086837D01*
X101713400Y-66005745D01*
X101695984Y-66093300D01*
X101713400Y-66180855D01*
X101764981Y-66440169D01*
X101961467Y-66734233D01*
X102035696Y-66783831D01*
X105488364Y-70236500D01*
X97036233Y-70236500D01*
X97113113Y-69850000D01*
X97001740Y-69290091D01*
X96684577Y-68815423D01*
X96332242Y-68580000D01*
X96684577Y-68344577D01*
X97001740Y-67869909D01*
X97113113Y-67310000D01*
X97001740Y-66750091D01*
X96684577Y-66275423D01*
X96332242Y-66040000D01*
X96684577Y-65804577D01*
X97001740Y-65329909D01*
X97113113Y-64770000D01*
X97001740Y-64210091D01*
X96684577Y-63735423D01*
X96332242Y-63500000D01*
X96684577Y-63264577D01*
X97001740Y-62789909D01*
X97113113Y-62230000D01*
X97001740Y-61670091D01*
X96684577Y-61195423D01*
X96209909Y-60878260D01*
X95791333Y-60795000D01*
X94708667Y-60795000D01*
X94290091Y-60878260D01*
X93815423Y-61195423D01*
X93498260Y-61670091D01*
X93386887Y-62230000D01*
X93498260Y-62789909D01*
X93815423Y-63264577D01*
X94167758Y-63500000D01*
X93815423Y-63735423D01*
X93498260Y-64210091D01*
X93386887Y-64770000D01*
X93498260Y-65329909D01*
X93815423Y-65804577D01*
X94167758Y-66040000D01*
X93815423Y-66275423D01*
X93718152Y-66421000D01*
X93629556Y-66421000D01*
X93542000Y-66403584D01*
X93454444Y-66421000D01*
X93195130Y-66472581D01*
X92901067Y-66669067D01*
X92704581Y-66963130D01*
X92635584Y-67310000D01*
X92653000Y-67397556D01*
X92653001Y-69945363D01*
X92265765Y-70332600D01*
X92042343Y-70332600D01*
X91588429Y-70520618D01*
X91567000Y-70542047D01*
X91567000Y-58306253D01*
X91789629Y-58528882D01*
X92243543Y-58716900D01*
X92734857Y-58716900D01*
X93188771Y-58528882D01*
X93536182Y-58181471D01*
X93724200Y-57727557D01*
X93724200Y-57504135D01*
X93951333Y-57277002D01*
X93980084Y-57277002D01*
X93858096Y-57499039D01*
X94018959Y-57887423D01*
X94394866Y-58302389D01*
X94900959Y-58541914D01*
X95123000Y-58420629D01*
X95123000Y-57277000D01*
X95103000Y-57277000D01*
X95103000Y-57023000D01*
X95123000Y-57023000D01*
X95123000Y-57003000D01*
X95377000Y-57003000D01*
X95377000Y-57023000D01*
G04 #@! TD*
M02*
