G04 #@! TF.GenerationSoftware,KiCad,Pcbnew,5.0.0-rc3-6a2723a~65~ubuntu18.04.1*
G04 #@! TF.CreationDate,2018-07-22T22:16:49+02:00*
G04 #@! TF.ProjectId,007_mini,3030375F6D696E692E6B696361645F70,rev?*
G04 #@! TF.SameCoordinates,Original*
G04 #@! TF.FileFunction,Soldermask,Bot*
G04 #@! TF.FilePolarity,Negative*
%FSLAX46Y46*%
G04 Gerber Fmt 4.6, Leading zero omitted, Abs format (unit mm)*
G04 Created by KiCad (PCBNEW 5.0.0-rc3-6a2723a~65~ubuntu18.04.1) date Sun Jul 22 22:16:49 2018*
%MOMM*%
%LPD*%
G01*
G04 APERTURE LIST*
%ADD10C,0.300000*%
%ADD11C,2.100000*%
%ADD12C,2.000000*%
%ADD13R,2.000000X2.000000*%
%ADD14O,2.000000X2.000000*%
%ADD15C,1.800000*%
%ADD16O,1.800000X1.800000*%
%ADD17O,2.800000X2.000000*%
%ADD18R,2.800000X2.000000*%
%ADD19O,5.480000X2.178000*%
G04 APERTURE END LIST*
D10*
X115997142Y-121241428D02*
X115925714Y-121170000D01*
X115782857Y-121098571D01*
X115425714Y-121098571D01*
X115282857Y-121170000D01*
X115211428Y-121241428D01*
X115140000Y-121384285D01*
X115140000Y-121527142D01*
X115211428Y-121741428D01*
X116068571Y-122598571D01*
X115140000Y-122598571D01*
X114211428Y-121098571D02*
X114068571Y-121098571D01*
X113925714Y-121170000D01*
X113854285Y-121241428D01*
X113782857Y-121384285D01*
X113711428Y-121670000D01*
X113711428Y-122027142D01*
X113782857Y-122312857D01*
X113854285Y-122455714D01*
X113925714Y-122527142D01*
X114068571Y-122598571D01*
X114211428Y-122598571D01*
X114354285Y-122527142D01*
X114425714Y-122455714D01*
X114497142Y-122312857D01*
X114568571Y-122027142D01*
X114568571Y-121670000D01*
X114497142Y-121384285D01*
X114425714Y-121241428D01*
X114354285Y-121170000D01*
X114211428Y-121098571D01*
X112282857Y-122598571D02*
X113140000Y-122598571D01*
X112711428Y-122598571D02*
X112711428Y-121098571D01*
X112854285Y-121312857D01*
X112997142Y-121455714D01*
X113140000Y-121527142D01*
X111782857Y-121098571D02*
X110782857Y-121098571D01*
X111425714Y-122598571D01*
X109140000Y-122170000D02*
X108425714Y-122170000D01*
X109282857Y-122598571D02*
X108782857Y-121098571D01*
X108282857Y-122598571D01*
X107782857Y-122455714D02*
X107711428Y-122527142D01*
X107782857Y-122598571D01*
X107854285Y-122527142D01*
X107782857Y-122455714D01*
X107782857Y-122598571D01*
X105997142Y-122170000D02*
X105282857Y-122170000D01*
X106140000Y-122598571D02*
X105640000Y-121098571D01*
X105140000Y-122598571D01*
X104425714Y-122598571D02*
X104568571Y-122527142D01*
X104640000Y-122384285D01*
X104640000Y-121098571D01*
X103282857Y-122527142D02*
X103425714Y-122598571D01*
X103711428Y-122598571D01*
X103854285Y-122527142D01*
X103925714Y-122384285D01*
X103925714Y-121812857D01*
X103854285Y-121670000D01*
X103711428Y-121598571D01*
X103425714Y-121598571D01*
X103282857Y-121670000D01*
X103211428Y-121812857D01*
X103211428Y-121955714D01*
X103925714Y-122098571D01*
X101925714Y-122598571D02*
X101925714Y-121812857D01*
X101997142Y-121670000D01*
X102140000Y-121598571D01*
X102425714Y-121598571D01*
X102568571Y-121670000D01*
X101925714Y-122527142D02*
X102068571Y-122598571D01*
X102425714Y-122598571D01*
X102568571Y-122527142D01*
X102640000Y-122384285D01*
X102640000Y-122241428D01*
X102568571Y-122098571D01*
X102425714Y-122027142D01*
X102068571Y-122027142D01*
X101925714Y-121955714D01*
X100282857Y-121598571D02*
X99711428Y-121598571D01*
X100068571Y-122598571D02*
X100068571Y-121312857D01*
X99997142Y-121170000D01*
X99854285Y-121098571D01*
X99711428Y-121098571D01*
X98997142Y-122598571D02*
X99140000Y-122527142D01*
X99211428Y-122455714D01*
X99282857Y-122312857D01*
X99282857Y-121884285D01*
X99211428Y-121741428D01*
X99140000Y-121670000D01*
X98997142Y-121598571D01*
X98782857Y-121598571D01*
X98640000Y-121670000D01*
X98568571Y-121741428D01*
X98497142Y-121884285D01*
X98497142Y-122312857D01*
X98568571Y-122455714D01*
X98640000Y-122527142D01*
X98782857Y-122598571D01*
X98997142Y-122598571D01*
X97854285Y-122598571D02*
X97854285Y-121598571D01*
X97854285Y-121884285D02*
X97782857Y-121741428D01*
X97711428Y-121670000D01*
X97568571Y-121598571D01*
X97425714Y-121598571D01*
X95997142Y-121098571D02*
X95497142Y-122598571D01*
X94997142Y-121098571D01*
X93854285Y-122598571D02*
X93854285Y-121098571D01*
X93854285Y-122527142D02*
X93997142Y-122598571D01*
X94282857Y-122598571D01*
X94425714Y-122527142D01*
X94497142Y-122455714D01*
X94568571Y-122312857D01*
X94568571Y-121884285D01*
X94497142Y-121741428D01*
X94425714Y-121670000D01*
X94282857Y-121598571D01*
X93997142Y-121598571D01*
X93854285Y-121670000D01*
X92282857Y-122598571D02*
X92782857Y-121884285D01*
X93140000Y-122598571D02*
X93140000Y-121098571D01*
X92568571Y-121098571D01*
X92425714Y-121170000D01*
X92354285Y-121241428D01*
X92282857Y-121384285D01*
X92282857Y-121598571D01*
X92354285Y-121741428D01*
X92425714Y-121812857D01*
X92568571Y-121884285D01*
X93140000Y-121884285D01*
D11*
G04 #@! TO.C,SW1*
X135310000Y-53190000D03*
X135310000Y-59690000D03*
X130810000Y-53190000D03*
X130810000Y-59690000D03*
G04 #@! TD*
D12*
G04 #@! TO.C,C1*
X130810000Y-81280000D03*
X130810000Y-76280000D03*
G04 #@! TD*
D13*
G04 #@! TO.C,D1*
X106680000Y-105410000D03*
D14*
X99060000Y-105410000D03*
G04 #@! TD*
G04 #@! TO.C,D2*
X99060000Y-107950000D03*
D13*
X106680000Y-107950000D03*
G04 #@! TD*
D15*
G04 #@! TO.C,R1*
X106680000Y-102870000D03*
D16*
X99060000Y-102870000D03*
G04 #@! TD*
D15*
G04 #@! TO.C,R2*
X130810000Y-84455000D03*
D16*
X130810000Y-92075000D03*
G04 #@! TD*
G04 #@! TO.C,R3*
X113665000Y-105410000D03*
D15*
X113665000Y-113030000D03*
G04 #@! TD*
D11*
G04 #@! TO.C,SW2*
X130810000Y-119380000D03*
X130810000Y-112880000D03*
X135310000Y-119380000D03*
X135310000Y-112880000D03*
G04 #@! TD*
D17*
G04 #@! TO.C,U3*
X118110000Y-115570000D03*
X125730000Y-100330000D03*
X118110000Y-113030000D03*
X125730000Y-102870000D03*
X118110000Y-110490000D03*
X125730000Y-105410000D03*
X118110000Y-107950000D03*
X125730000Y-107950000D03*
X118110000Y-105410000D03*
X125730000Y-110490000D03*
X118110000Y-102870000D03*
X125730000Y-113030000D03*
X118110000Y-100330000D03*
D18*
X125730000Y-115570000D03*
G04 #@! TD*
D19*
G04 #@! TO.C,J1*
X87630000Y-120650000D03*
X87630000Y-118110000D03*
X87630000Y-115570000D03*
X87630000Y-113030000D03*
X87630000Y-110490000D03*
X87630000Y-107950000D03*
X87630000Y-105410000D03*
X87630000Y-102870000D03*
X87630000Y-100330000D03*
X87630000Y-97790000D03*
X87630000Y-95250000D03*
X87630000Y-92710000D03*
X87630000Y-90170000D03*
X87630000Y-87630000D03*
X87630000Y-85090000D03*
X87630000Y-82550000D03*
X87630000Y-80010000D03*
X87630000Y-77470000D03*
X87630000Y-74930000D03*
X87630000Y-72390000D03*
X87630000Y-69850000D03*
X87630000Y-67310000D03*
X87630000Y-64770000D03*
X87630000Y-59690000D03*
X87630000Y-57150000D03*
X87630000Y-54610000D03*
X87630000Y-52070000D03*
G04 #@! TD*
D12*
G04 #@! TO.C,C3*
X124333000Y-72898000D03*
X119333000Y-72898000D03*
G04 #@! TD*
G04 #@! TO.C,C4*
X124380000Y-96520000D03*
X119380000Y-96520000D03*
G04 #@! TD*
G04 #@! TO.C,C6*
X100330000Y-100330000D03*
X105330000Y-100330000D03*
G04 #@! TD*
D15*
G04 #@! TO.C,R4*
X130810000Y-71120000D03*
D16*
X130810000Y-63500000D03*
G04 #@! TD*
G04 #@! TO.C,R5*
X99060000Y-110490000D03*
D15*
X106680000Y-110490000D03*
G04 #@! TD*
D13*
G04 #@! TO.C,SW3*
X102870000Y-57150000D03*
D14*
X95250000Y-54610000D03*
X102870000Y-54610000D03*
X95250000Y-57150000D03*
G04 #@! TD*
D18*
G04 #@! TO.C,U5*
X125730000Y-67310000D03*
D17*
X118110000Y-52070000D03*
X125730000Y-64770000D03*
X118110000Y-54610000D03*
X125730000Y-62230000D03*
X118110000Y-57150000D03*
X125730000Y-59690000D03*
X118110000Y-59690000D03*
X125730000Y-57150000D03*
X118110000Y-62230000D03*
X125730000Y-54610000D03*
X118110000Y-64770000D03*
X125730000Y-52070000D03*
X118110000Y-67310000D03*
G04 #@! TD*
D12*
G04 #@! TO.C,C2*
X119380000Y-120650000D03*
X124380000Y-120650000D03*
G04 #@! TD*
D13*
G04 #@! TO.C,C5*
X110490000Y-55880000D03*
D12*
X110490000Y-53380000D03*
G04 #@! TD*
D18*
G04 #@! TO.C,U2*
X125730000Y-91440000D03*
D17*
X118110000Y-76200000D03*
X125730000Y-88900000D03*
X118110000Y-78740000D03*
X125730000Y-86360000D03*
X118110000Y-81280000D03*
X125730000Y-83820000D03*
X118110000Y-83820000D03*
X125730000Y-81280000D03*
X118110000Y-86360000D03*
X125730000Y-78740000D03*
X118110000Y-88900000D03*
X125730000Y-76200000D03*
X118110000Y-91440000D03*
G04 #@! TD*
D18*
G04 #@! TO.C,U1*
X110490000Y-95250000D03*
D17*
X95250000Y-62230000D03*
X110490000Y-92710000D03*
X95250000Y-64770000D03*
X110490000Y-90170000D03*
X95250000Y-67310000D03*
X110490000Y-87630000D03*
X95250000Y-69850000D03*
X110490000Y-85090000D03*
X95250000Y-72390000D03*
X110490000Y-82550000D03*
X95250000Y-74930000D03*
X110490000Y-80010000D03*
X95250000Y-77470000D03*
X110490000Y-77470000D03*
X95250000Y-80010000D03*
X110490000Y-74930000D03*
X95250000Y-82550000D03*
X110490000Y-72390000D03*
X95250000Y-85090000D03*
X110490000Y-69850000D03*
X95250000Y-87630000D03*
X110490000Y-67310000D03*
X95250000Y-90170000D03*
X110490000Y-64770000D03*
X95250000Y-92710000D03*
X110490000Y-62230000D03*
X95250000Y-95250000D03*
G04 #@! TD*
M02*
