G04 #@! TF.FileFunction,Legend,Top*
%FSLAX46Y46*%
G04 Gerber Fmt 4.6, Leading zero omitted, Abs format (unit mm)*
G04 Created by KiCad (PCBNEW 4.0.6) date 06/02/17 16:23:04*
%MOMM*%
%LPD*%
G01*
G04 APERTURE LIST*
%ADD10C,0.100000*%
%ADD11C,0.120000*%
%ADD12C,0.010000*%
%ADD13C,0.150000*%
G04 APERTURE END LIST*
D10*
D11*
X120380000Y-99180000D02*
X125560000Y-99180000D01*
X125560000Y-99180000D02*
X125560000Y-68460000D01*
X125560000Y-68460000D02*
X113200000Y-68460000D01*
X113200000Y-68460000D02*
X113200000Y-99180000D01*
X113200000Y-99180000D02*
X118380000Y-99180000D01*
X118380000Y-99180000D02*
G75*
G02X120380000Y-99180000I1000000J0D01*
G01*
X175350000Y-83780000D02*
X180170000Y-83780000D01*
X175350000Y-86400000D02*
X180170000Y-86400000D01*
X175350000Y-83780000D02*
X175350000Y-84094000D01*
X175350000Y-86086000D02*
X175350000Y-86400000D01*
X180170000Y-83780000D02*
X180170000Y-84094000D01*
X180170000Y-86086000D02*
X180170000Y-86400000D01*
X174670000Y-72800000D02*
X174670000Y-74520000D01*
X174670000Y-74520000D02*
X178390000Y-74520000D01*
X178390000Y-74520000D02*
X178390000Y-72800000D01*
X178390000Y-72800000D02*
X174670000Y-72800000D01*
X173600000Y-73660000D02*
X174670000Y-73660000D01*
X179460000Y-73660000D02*
X178390000Y-73660000D01*
X178390000Y-99920000D02*
X178390000Y-98200000D01*
X178390000Y-98200000D02*
X174670000Y-98200000D01*
X174670000Y-98200000D02*
X174670000Y-99920000D01*
X174670000Y-99920000D02*
X178390000Y-99920000D01*
X179460000Y-99060000D02*
X178390000Y-99060000D01*
X173600000Y-99060000D02*
X174670000Y-99060000D01*
X178800000Y-51120000D02*
X178700000Y-51120000D01*
X178850000Y-51020000D02*
X178850000Y-51370000D01*
X178850000Y-51370000D02*
G75*
G03X178500000Y-51020000I-1050000J-700000D01*
G01*
X178850000Y-51020000D02*
X178500000Y-51020000D01*
X177214214Y-55070000D02*
G75*
G03X177214214Y-55070000I-1414214J0D01*
G01*
X172800000Y-53070000D02*
X172800000Y-57070000D01*
X178800000Y-53070000D02*
X178800000Y-57070000D01*
X175050000Y-52070000D02*
X176550000Y-52070000D01*
X176550000Y-58070000D02*
X175050000Y-58070000D01*
D10*
X175800000Y-52070000D02*
X175800000Y-52070000D01*
X172800000Y-57070000D02*
X172800000Y-53070000D01*
X178800000Y-57070000D02*
X178800000Y-53070000D01*
X175800000Y-58070000D02*
X175800000Y-58070000D01*
X177214214Y-55070000D02*
G75*
G03X177214214Y-55070000I-1414214J0D01*
G01*
D11*
X172990000Y-120330000D02*
X173090000Y-120330000D01*
X172940000Y-120430000D02*
X172940000Y-120080000D01*
X172940000Y-120080000D02*
G75*
G03X173290000Y-120430000I1050000J700000D01*
G01*
X172940000Y-120430000D02*
X173290000Y-120430000D01*
X177404214Y-116380000D02*
G75*
G03X177404214Y-116380000I-1414214J0D01*
G01*
X178990000Y-118380000D02*
X178990000Y-114380000D01*
X172990000Y-118380000D02*
X172990000Y-114380000D01*
X176740000Y-119380000D02*
X175240000Y-119380000D01*
X175240000Y-113380000D02*
X176740000Y-113380000D01*
D10*
X175990000Y-119380000D02*
X175990000Y-119380000D01*
X178990000Y-114380000D02*
X178990000Y-118380000D01*
X172990000Y-114380000D02*
X172990000Y-118380000D01*
X175990000Y-113380000D02*
X175990000Y-113380000D01*
X177404214Y-116380000D02*
G75*
G03X177404214Y-116380000I-1414214J0D01*
G01*
D11*
X163950000Y-84090000D02*
X163950000Y-82720000D01*
X163950000Y-82720000D02*
X145930000Y-82720000D01*
X145930000Y-82720000D02*
X145930000Y-87460000D01*
X145930000Y-87460000D02*
X163950000Y-87460000D01*
X163950000Y-87460000D02*
X163950000Y-86090000D01*
X163950000Y-86090000D02*
G75*
G02X163950000Y-84090000I0J1000000D01*
G01*
X163950000Y-105680000D02*
X163950000Y-104310000D01*
X163950000Y-104310000D02*
X145930000Y-104310000D01*
X145930000Y-104310000D02*
X145930000Y-109050000D01*
X145930000Y-109050000D02*
X163950000Y-109050000D01*
X163950000Y-109050000D02*
X163950000Y-107680000D01*
X163950000Y-107680000D02*
G75*
G02X163950000Y-105680000I0J1000000D01*
G01*
X163950000Y-63770000D02*
X163950000Y-62400000D01*
X163950000Y-62400000D02*
X145930000Y-62400000D01*
X145930000Y-62400000D02*
X145930000Y-67140000D01*
X145930000Y-67140000D02*
X163950000Y-67140000D01*
X163950000Y-67140000D02*
X163950000Y-65770000D01*
X163950000Y-65770000D02*
G75*
G02X163950000Y-63770000I0J1000000D01*
G01*
X138430000Y-88011000D02*
X138430000Y-89916000D01*
X138430000Y-82169000D02*
X138430000Y-80264000D01*
X139290000Y-83230000D02*
X137570000Y-83230000D01*
X137570000Y-83230000D02*
X137570000Y-86950000D01*
X137570000Y-86950000D02*
X139290000Y-86950000D01*
X139290000Y-86950000D02*
X139290000Y-83230000D01*
X138430000Y-82160000D02*
X138430000Y-83230000D01*
X138430000Y-88020000D02*
X138430000Y-86950000D01*
X134620000Y-87947500D02*
X134620000Y-89916000D01*
X134620000Y-82232500D02*
X134620000Y-80327500D01*
X133560000Y-87150000D02*
X135680000Y-87150000D01*
X135680000Y-87150000D02*
X135680000Y-83030000D01*
X135680000Y-83030000D02*
X133560000Y-83030000D01*
X133560000Y-83030000D02*
X133560000Y-87150000D01*
X134620000Y-87920000D02*
X134620000Y-87150000D01*
X134620000Y-82260000D02*
X134620000Y-83030000D01*
X133560000Y-86490000D02*
X135680000Y-86490000D01*
X142240000Y-87947500D02*
X142240000Y-89916000D01*
X142240000Y-82232500D02*
X142240000Y-80327500D01*
X141180000Y-87150000D02*
X143300000Y-87150000D01*
X143300000Y-87150000D02*
X143300000Y-83030000D01*
X143300000Y-83030000D02*
X141180000Y-83030000D01*
X141180000Y-83030000D02*
X141180000Y-87150000D01*
X142240000Y-87920000D02*
X142240000Y-87150000D01*
X142240000Y-82260000D02*
X142240000Y-83030000D01*
X141180000Y-86490000D02*
X143300000Y-86490000D01*
X165710000Y-85110000D02*
X172110000Y-85110000D01*
X165710000Y-85070000D02*
X172110000Y-85070000D01*
X165710000Y-85030000D02*
X172110000Y-85030000D01*
X165712000Y-84990000D02*
X172108000Y-84990000D01*
X165713000Y-84950000D02*
X172107000Y-84950000D01*
X165716000Y-84910000D02*
X172104000Y-84910000D01*
X165718000Y-84870000D02*
X172102000Y-84870000D01*
X165722000Y-84830000D02*
X167930000Y-84830000D01*
X169890000Y-84830000D02*
X172098000Y-84830000D01*
X165725000Y-84790000D02*
X167930000Y-84790000D01*
X169890000Y-84790000D02*
X172095000Y-84790000D01*
X165730000Y-84750000D02*
X167930000Y-84750000D01*
X169890000Y-84750000D02*
X172090000Y-84750000D01*
X165734000Y-84710000D02*
X167930000Y-84710000D01*
X169890000Y-84710000D02*
X172086000Y-84710000D01*
X165740000Y-84670000D02*
X167930000Y-84670000D01*
X169890000Y-84670000D02*
X172080000Y-84670000D01*
X165745000Y-84630000D02*
X167930000Y-84630000D01*
X169890000Y-84630000D02*
X172075000Y-84630000D01*
X165752000Y-84590000D02*
X167930000Y-84590000D01*
X169890000Y-84590000D02*
X172068000Y-84590000D01*
X165758000Y-84550000D02*
X167930000Y-84550000D01*
X169890000Y-84550000D02*
X172062000Y-84550000D01*
X165766000Y-84510000D02*
X167930000Y-84510000D01*
X169890000Y-84510000D02*
X172054000Y-84510000D01*
X165773000Y-84470000D02*
X167930000Y-84470000D01*
X169890000Y-84470000D02*
X172047000Y-84470000D01*
X165782000Y-84430000D02*
X167930000Y-84430000D01*
X169890000Y-84430000D02*
X172038000Y-84430000D01*
X165791000Y-84389000D02*
X167930000Y-84389000D01*
X169890000Y-84389000D02*
X172029000Y-84389000D01*
X165800000Y-84349000D02*
X167930000Y-84349000D01*
X169890000Y-84349000D02*
X172020000Y-84349000D01*
X165810000Y-84309000D02*
X167930000Y-84309000D01*
X169890000Y-84309000D02*
X172010000Y-84309000D01*
X165820000Y-84269000D02*
X167930000Y-84269000D01*
X169890000Y-84269000D02*
X172000000Y-84269000D01*
X165831000Y-84229000D02*
X167930000Y-84229000D01*
X169890000Y-84229000D02*
X171989000Y-84229000D01*
X165843000Y-84189000D02*
X167930000Y-84189000D01*
X169890000Y-84189000D02*
X171977000Y-84189000D01*
X165855000Y-84149000D02*
X167930000Y-84149000D01*
X169890000Y-84149000D02*
X171965000Y-84149000D01*
X165868000Y-84109000D02*
X167930000Y-84109000D01*
X169890000Y-84109000D02*
X171952000Y-84109000D01*
X165881000Y-84069000D02*
X167930000Y-84069000D01*
X169890000Y-84069000D02*
X171939000Y-84069000D01*
X165895000Y-84029000D02*
X167930000Y-84029000D01*
X169890000Y-84029000D02*
X171925000Y-84029000D01*
X165909000Y-83989000D02*
X167930000Y-83989000D01*
X169890000Y-83989000D02*
X171911000Y-83989000D01*
X165924000Y-83949000D02*
X167930000Y-83949000D01*
X169890000Y-83949000D02*
X171896000Y-83949000D01*
X165940000Y-83909000D02*
X167930000Y-83909000D01*
X169890000Y-83909000D02*
X171880000Y-83909000D01*
X165956000Y-83869000D02*
X167930000Y-83869000D01*
X169890000Y-83869000D02*
X171864000Y-83869000D01*
X165973000Y-83829000D02*
X167930000Y-83829000D01*
X169890000Y-83829000D02*
X171847000Y-83829000D01*
X165991000Y-83789000D02*
X167930000Y-83789000D01*
X169890000Y-83789000D02*
X171829000Y-83789000D01*
X166009000Y-83749000D02*
X167930000Y-83749000D01*
X169890000Y-83749000D02*
X171811000Y-83749000D01*
X166028000Y-83709000D02*
X167930000Y-83709000D01*
X169890000Y-83709000D02*
X171792000Y-83709000D01*
X166047000Y-83669000D02*
X167930000Y-83669000D01*
X169890000Y-83669000D02*
X171773000Y-83669000D01*
X166067000Y-83629000D02*
X167930000Y-83629000D01*
X169890000Y-83629000D02*
X171753000Y-83629000D01*
X166088000Y-83589000D02*
X167930000Y-83589000D01*
X169890000Y-83589000D02*
X171732000Y-83589000D01*
X166110000Y-83549000D02*
X167930000Y-83549000D01*
X169890000Y-83549000D02*
X171710000Y-83549000D01*
X166132000Y-83509000D02*
X167930000Y-83509000D01*
X169890000Y-83509000D02*
X171688000Y-83509000D01*
X166155000Y-83469000D02*
X167930000Y-83469000D01*
X169890000Y-83469000D02*
X171665000Y-83469000D01*
X166179000Y-83429000D02*
X167930000Y-83429000D01*
X169890000Y-83429000D02*
X171641000Y-83429000D01*
X166204000Y-83389000D02*
X167930000Y-83389000D01*
X169890000Y-83389000D02*
X171616000Y-83389000D01*
X166229000Y-83349000D02*
X167930000Y-83349000D01*
X169890000Y-83349000D02*
X171591000Y-83349000D01*
X166256000Y-83309000D02*
X167930000Y-83309000D01*
X169890000Y-83309000D02*
X171564000Y-83309000D01*
X166283000Y-83269000D02*
X167930000Y-83269000D01*
X169890000Y-83269000D02*
X171537000Y-83269000D01*
X166311000Y-83229000D02*
X167930000Y-83229000D01*
X169890000Y-83229000D02*
X171509000Y-83229000D01*
X166340000Y-83189000D02*
X167930000Y-83189000D01*
X169890000Y-83189000D02*
X171480000Y-83189000D01*
X166370000Y-83149000D02*
X167930000Y-83149000D01*
X169890000Y-83149000D02*
X171450000Y-83149000D01*
X166400000Y-83109000D02*
X167930000Y-83109000D01*
X169890000Y-83109000D02*
X171420000Y-83109000D01*
X166432000Y-83069000D02*
X167930000Y-83069000D01*
X169890000Y-83069000D02*
X171388000Y-83069000D01*
X166465000Y-83029000D02*
X167930000Y-83029000D01*
X169890000Y-83029000D02*
X171355000Y-83029000D01*
X166499000Y-82989000D02*
X167930000Y-82989000D01*
X169890000Y-82989000D02*
X171321000Y-82989000D01*
X166535000Y-82949000D02*
X167930000Y-82949000D01*
X169890000Y-82949000D02*
X171285000Y-82949000D01*
X166571000Y-82909000D02*
X167930000Y-82909000D01*
X169890000Y-82909000D02*
X171249000Y-82909000D01*
X166609000Y-82869000D02*
X171211000Y-82869000D01*
X166648000Y-82829000D02*
X171172000Y-82829000D01*
X166688000Y-82789000D02*
X171132000Y-82789000D01*
X166730000Y-82749000D02*
X171090000Y-82749000D01*
X166773000Y-82709000D02*
X171047000Y-82709000D01*
X166818000Y-82669000D02*
X171002000Y-82669000D01*
X166865000Y-82629000D02*
X170955000Y-82629000D01*
X166913000Y-82589000D02*
X170907000Y-82589000D01*
X166964000Y-82549000D02*
X170856000Y-82549000D01*
X167016000Y-82509000D02*
X170804000Y-82509000D01*
X167071000Y-82469000D02*
X170749000Y-82469000D01*
X167129000Y-82429000D02*
X170691000Y-82429000D01*
X167189000Y-82389000D02*
X170631000Y-82389000D01*
X167252000Y-82349000D02*
X170568000Y-82349000D01*
X167319000Y-82309000D02*
X170501000Y-82309000D01*
X167390000Y-82269000D02*
X170430000Y-82269000D01*
X167465000Y-82229000D02*
X170355000Y-82229000D01*
X167546000Y-82189000D02*
X170274000Y-82189000D01*
X167632000Y-82149000D02*
X170188000Y-82149000D01*
X167726000Y-82109000D02*
X170094000Y-82109000D01*
X167829000Y-82069000D02*
X169991000Y-82069000D01*
X167944000Y-82029000D02*
X169876000Y-82029000D01*
X168076000Y-81989000D02*
X169744000Y-81989000D01*
X168234000Y-81949000D02*
X169586000Y-81949000D01*
X168442000Y-81909000D02*
X169378000Y-81909000D01*
X168910000Y-88560000D02*
X168910000Y-87360000D01*
X168260000Y-87960000D02*
X169560000Y-87960000D01*
X167930643Y-82021560D02*
G75*
G03X167930000Y-88198236I979357J-3088440D01*
G01*
X169889357Y-82021560D02*
G75*
G02X169890000Y-88198236I-979357J-3088440D01*
G01*
X169889357Y-82021560D02*
G75*
G03X167930000Y-82021764I-979357J-3088440D01*
G01*
D12*
G36*
X137715814Y-110498931D02*
X137799635Y-110943555D01*
X138108920Y-111071053D01*
X138418206Y-111198551D01*
X138789246Y-110946246D01*
X138893157Y-110875996D01*
X138987087Y-110813272D01*
X139066652Y-110760938D01*
X139127470Y-110721857D01*
X139165157Y-110698893D01*
X139175421Y-110693942D01*
X139193910Y-110706676D01*
X139233420Y-110741882D01*
X139289522Y-110795062D01*
X139357787Y-110861718D01*
X139433786Y-110937354D01*
X139513092Y-111017472D01*
X139591275Y-111097574D01*
X139663907Y-111173164D01*
X139726559Y-111239745D01*
X139774803Y-111292818D01*
X139804210Y-111327887D01*
X139811241Y-111339623D01*
X139801123Y-111361260D01*
X139772759Y-111408662D01*
X139729129Y-111477193D01*
X139673218Y-111562215D01*
X139608006Y-111659093D01*
X139570219Y-111714350D01*
X139501343Y-111815248D01*
X139440140Y-111906299D01*
X139389578Y-111982970D01*
X139352628Y-112040728D01*
X139332258Y-112075043D01*
X139329197Y-112082254D01*
X139336136Y-112102748D01*
X139355051Y-112150513D01*
X139383087Y-112218832D01*
X139417391Y-112300989D01*
X139455109Y-112390270D01*
X139493387Y-112479958D01*
X139529370Y-112563338D01*
X139560206Y-112633694D01*
X139583039Y-112684310D01*
X139595017Y-112708471D01*
X139595724Y-112709422D01*
X139614531Y-112714036D01*
X139664618Y-112724328D01*
X139740793Y-112739287D01*
X139837865Y-112757901D01*
X139950643Y-112779159D01*
X140016442Y-112791418D01*
X140136950Y-112814362D01*
X140245797Y-112836195D01*
X140337476Y-112855722D01*
X140406481Y-112871748D01*
X140447304Y-112883079D01*
X140455511Y-112886674D01*
X140463548Y-112911006D01*
X140470033Y-112965959D01*
X140474970Y-113045108D01*
X140478364Y-113142026D01*
X140480218Y-113250287D01*
X140480538Y-113363465D01*
X140479327Y-113475135D01*
X140476590Y-113578868D01*
X140472331Y-113668241D01*
X140466555Y-113736826D01*
X140459267Y-113778197D01*
X140454895Y-113786810D01*
X140428764Y-113797133D01*
X140373393Y-113811892D01*
X140296107Y-113829352D01*
X140204230Y-113847780D01*
X140172158Y-113853741D01*
X140017524Y-113882066D01*
X139895375Y-113904876D01*
X139801673Y-113923080D01*
X139732384Y-113937583D01*
X139683471Y-113949292D01*
X139650897Y-113959115D01*
X139630628Y-113967956D01*
X139618626Y-113976724D01*
X139616947Y-113978457D01*
X139600184Y-114006371D01*
X139574614Y-114060695D01*
X139542788Y-114134777D01*
X139507260Y-114221965D01*
X139470583Y-114315608D01*
X139435311Y-114409052D01*
X139403996Y-114495647D01*
X139379193Y-114568740D01*
X139363454Y-114621678D01*
X139359332Y-114647811D01*
X139359676Y-114648726D01*
X139373641Y-114670086D01*
X139405322Y-114717084D01*
X139451391Y-114784827D01*
X139508518Y-114868423D01*
X139573373Y-114962982D01*
X139591843Y-114989854D01*
X139657699Y-115087275D01*
X139715650Y-115176163D01*
X139762538Y-115251412D01*
X139795207Y-115307920D01*
X139810500Y-115340581D01*
X139811241Y-115344593D01*
X139798392Y-115365684D01*
X139762888Y-115407464D01*
X139709293Y-115465445D01*
X139642171Y-115535135D01*
X139566087Y-115612045D01*
X139485604Y-115691683D01*
X139405287Y-115769561D01*
X139329699Y-115841186D01*
X139263405Y-115902070D01*
X139210969Y-115947721D01*
X139176955Y-115973650D01*
X139167545Y-115977883D01*
X139145643Y-115967912D01*
X139100800Y-115941020D01*
X139040321Y-115901736D01*
X138993789Y-115870117D01*
X138909475Y-115812098D01*
X138809626Y-115743784D01*
X138709473Y-115675579D01*
X138655627Y-115639075D01*
X138473371Y-115515800D01*
X138320381Y-115598520D01*
X138250682Y-115634759D01*
X138191414Y-115662926D01*
X138151311Y-115678991D01*
X138141103Y-115681226D01*
X138128829Y-115664722D01*
X138104613Y-115618082D01*
X138070263Y-115545609D01*
X138027588Y-115451606D01*
X137978394Y-115340374D01*
X137924490Y-115216215D01*
X137867684Y-115083432D01*
X137809782Y-114946327D01*
X137752593Y-114809202D01*
X137697924Y-114676358D01*
X137647584Y-114552098D01*
X137603380Y-114440725D01*
X137567119Y-114346539D01*
X137540609Y-114273844D01*
X137525658Y-114226941D01*
X137523254Y-114210833D01*
X137542311Y-114190286D01*
X137584036Y-114156933D01*
X137639706Y-114117702D01*
X137644378Y-114114599D01*
X137788264Y-113999423D01*
X137904283Y-113865053D01*
X137991430Y-113715784D01*
X138048699Y-113555913D01*
X138075086Y-113389737D01*
X138069585Y-113221552D01*
X138031190Y-113055655D01*
X137958895Y-112896342D01*
X137937626Y-112861487D01*
X137826996Y-112720737D01*
X137696302Y-112607714D01*
X137550064Y-112523003D01*
X137392808Y-112467194D01*
X137229057Y-112440874D01*
X137063333Y-112444630D01*
X136900162Y-112479050D01*
X136744065Y-112544723D01*
X136599567Y-112642235D01*
X136554869Y-112681813D01*
X136441112Y-112805703D01*
X136358218Y-112936124D01*
X136301356Y-113082315D01*
X136269687Y-113227088D01*
X136261869Y-113389860D01*
X136287938Y-113553440D01*
X136345245Y-113712298D01*
X136431144Y-113860906D01*
X136542986Y-113993735D01*
X136678123Y-114105256D01*
X136695883Y-114117011D01*
X136752150Y-114155508D01*
X136794923Y-114188863D01*
X136815372Y-114210160D01*
X136815669Y-114210833D01*
X136811279Y-114233871D01*
X136793876Y-114286157D01*
X136765268Y-114363390D01*
X136727265Y-114461268D01*
X136681674Y-114575491D01*
X136630303Y-114701758D01*
X136574962Y-114835767D01*
X136517458Y-114973218D01*
X136459601Y-115109808D01*
X136403198Y-115241237D01*
X136350058Y-115363205D01*
X136301990Y-115471409D01*
X136260801Y-115561549D01*
X136228301Y-115629323D01*
X136206297Y-115670430D01*
X136197436Y-115681226D01*
X136170360Y-115672819D01*
X136119697Y-115650272D01*
X136054183Y-115617613D01*
X136018159Y-115598520D01*
X135865168Y-115515800D01*
X135682912Y-115639075D01*
X135589875Y-115702228D01*
X135488015Y-115771727D01*
X135392562Y-115837165D01*
X135344750Y-115870117D01*
X135277505Y-115915273D01*
X135220564Y-115951057D01*
X135181354Y-115972938D01*
X135168619Y-115977563D01*
X135150083Y-115965085D01*
X135109059Y-115930252D01*
X135049525Y-115876678D01*
X134975458Y-115807983D01*
X134890835Y-115727781D01*
X134837315Y-115676286D01*
X134743681Y-115584286D01*
X134662759Y-115501999D01*
X134597823Y-115432945D01*
X134552142Y-115380644D01*
X134528989Y-115348616D01*
X134526768Y-115342116D01*
X134537076Y-115317394D01*
X134565561Y-115267405D01*
X134609063Y-115197212D01*
X134664423Y-115111875D01*
X134728480Y-115016456D01*
X134746697Y-114989854D01*
X134813073Y-114893167D01*
X134872622Y-114806117D01*
X134922016Y-114733595D01*
X134957925Y-114680493D01*
X134977019Y-114651703D01*
X134978864Y-114648726D01*
X134976105Y-114625782D01*
X134961462Y-114575336D01*
X134937487Y-114504041D01*
X134906734Y-114418547D01*
X134871756Y-114325507D01*
X134835107Y-114231574D01*
X134799339Y-114143399D01*
X134767006Y-114067634D01*
X134740662Y-114010931D01*
X134722858Y-113979943D01*
X134721593Y-113978457D01*
X134710706Y-113969601D01*
X134692318Y-113960843D01*
X134662394Y-113951277D01*
X134616897Y-113939996D01*
X134551791Y-113926093D01*
X134463039Y-113908663D01*
X134346607Y-113886798D01*
X134198458Y-113859591D01*
X134166382Y-113853741D01*
X134071314Y-113835374D01*
X133988435Y-113817405D01*
X133925070Y-113801569D01*
X133888542Y-113789600D01*
X133883644Y-113786810D01*
X133875573Y-113762072D01*
X133869013Y-113706790D01*
X133863967Y-113627389D01*
X133860441Y-113530296D01*
X133858439Y-113421938D01*
X133857964Y-113308740D01*
X133859023Y-113197128D01*
X133861618Y-113093529D01*
X133865754Y-113004368D01*
X133871437Y-112936072D01*
X133878669Y-112895066D01*
X133883029Y-112886674D01*
X133907302Y-112878208D01*
X133962574Y-112864435D01*
X134043338Y-112846550D01*
X134144088Y-112825748D01*
X134259317Y-112803223D01*
X134322098Y-112791418D01*
X134441213Y-112769151D01*
X134547435Y-112748979D01*
X134635573Y-112731915D01*
X134700434Y-112718969D01*
X134736826Y-112711155D01*
X134742816Y-112709422D01*
X134752939Y-112689890D01*
X134774338Y-112642843D01*
X134804161Y-112575003D01*
X134839555Y-112493091D01*
X134877668Y-112403828D01*
X134915647Y-112313935D01*
X134950640Y-112230135D01*
X134979794Y-112159147D01*
X135000257Y-112107694D01*
X135009177Y-112082497D01*
X135009343Y-112081396D01*
X134999231Y-112061519D01*
X134970883Y-112015777D01*
X134927277Y-111948717D01*
X134871394Y-111864884D01*
X134806213Y-111768826D01*
X134768321Y-111713650D01*
X134699275Y-111612481D01*
X134637950Y-111520630D01*
X134587337Y-111442744D01*
X134550429Y-111383469D01*
X134530218Y-111347451D01*
X134527299Y-111339377D01*
X134539847Y-111320584D01*
X134574537Y-111280457D01*
X134626937Y-111223493D01*
X134692616Y-111154185D01*
X134767144Y-111077031D01*
X134846087Y-110996525D01*
X134925017Y-110917163D01*
X134999500Y-110843440D01*
X135065106Y-110779852D01*
X135117404Y-110730894D01*
X135151961Y-110701061D01*
X135163522Y-110693942D01*
X135182346Y-110703953D01*
X135227369Y-110732078D01*
X135294213Y-110775454D01*
X135378501Y-110831218D01*
X135475856Y-110896506D01*
X135549293Y-110946246D01*
X135920333Y-111198551D01*
X136538905Y-110943555D01*
X136622725Y-110498931D01*
X136706546Y-110054307D01*
X137631994Y-110054307D01*
X137715814Y-110498931D01*
X137715814Y-110498931D01*
G37*
X137715814Y-110498931D02*
X137799635Y-110943555D01*
X138108920Y-111071053D01*
X138418206Y-111198551D01*
X138789246Y-110946246D01*
X138893157Y-110875996D01*
X138987087Y-110813272D01*
X139066652Y-110760938D01*
X139127470Y-110721857D01*
X139165157Y-110698893D01*
X139175421Y-110693942D01*
X139193910Y-110706676D01*
X139233420Y-110741882D01*
X139289522Y-110795062D01*
X139357787Y-110861718D01*
X139433786Y-110937354D01*
X139513092Y-111017472D01*
X139591275Y-111097574D01*
X139663907Y-111173164D01*
X139726559Y-111239745D01*
X139774803Y-111292818D01*
X139804210Y-111327887D01*
X139811241Y-111339623D01*
X139801123Y-111361260D01*
X139772759Y-111408662D01*
X139729129Y-111477193D01*
X139673218Y-111562215D01*
X139608006Y-111659093D01*
X139570219Y-111714350D01*
X139501343Y-111815248D01*
X139440140Y-111906299D01*
X139389578Y-111982970D01*
X139352628Y-112040728D01*
X139332258Y-112075043D01*
X139329197Y-112082254D01*
X139336136Y-112102748D01*
X139355051Y-112150513D01*
X139383087Y-112218832D01*
X139417391Y-112300989D01*
X139455109Y-112390270D01*
X139493387Y-112479958D01*
X139529370Y-112563338D01*
X139560206Y-112633694D01*
X139583039Y-112684310D01*
X139595017Y-112708471D01*
X139595724Y-112709422D01*
X139614531Y-112714036D01*
X139664618Y-112724328D01*
X139740793Y-112739287D01*
X139837865Y-112757901D01*
X139950643Y-112779159D01*
X140016442Y-112791418D01*
X140136950Y-112814362D01*
X140245797Y-112836195D01*
X140337476Y-112855722D01*
X140406481Y-112871748D01*
X140447304Y-112883079D01*
X140455511Y-112886674D01*
X140463548Y-112911006D01*
X140470033Y-112965959D01*
X140474970Y-113045108D01*
X140478364Y-113142026D01*
X140480218Y-113250287D01*
X140480538Y-113363465D01*
X140479327Y-113475135D01*
X140476590Y-113578868D01*
X140472331Y-113668241D01*
X140466555Y-113736826D01*
X140459267Y-113778197D01*
X140454895Y-113786810D01*
X140428764Y-113797133D01*
X140373393Y-113811892D01*
X140296107Y-113829352D01*
X140204230Y-113847780D01*
X140172158Y-113853741D01*
X140017524Y-113882066D01*
X139895375Y-113904876D01*
X139801673Y-113923080D01*
X139732384Y-113937583D01*
X139683471Y-113949292D01*
X139650897Y-113959115D01*
X139630628Y-113967956D01*
X139618626Y-113976724D01*
X139616947Y-113978457D01*
X139600184Y-114006371D01*
X139574614Y-114060695D01*
X139542788Y-114134777D01*
X139507260Y-114221965D01*
X139470583Y-114315608D01*
X139435311Y-114409052D01*
X139403996Y-114495647D01*
X139379193Y-114568740D01*
X139363454Y-114621678D01*
X139359332Y-114647811D01*
X139359676Y-114648726D01*
X139373641Y-114670086D01*
X139405322Y-114717084D01*
X139451391Y-114784827D01*
X139508518Y-114868423D01*
X139573373Y-114962982D01*
X139591843Y-114989854D01*
X139657699Y-115087275D01*
X139715650Y-115176163D01*
X139762538Y-115251412D01*
X139795207Y-115307920D01*
X139810500Y-115340581D01*
X139811241Y-115344593D01*
X139798392Y-115365684D01*
X139762888Y-115407464D01*
X139709293Y-115465445D01*
X139642171Y-115535135D01*
X139566087Y-115612045D01*
X139485604Y-115691683D01*
X139405287Y-115769561D01*
X139329699Y-115841186D01*
X139263405Y-115902070D01*
X139210969Y-115947721D01*
X139176955Y-115973650D01*
X139167545Y-115977883D01*
X139145643Y-115967912D01*
X139100800Y-115941020D01*
X139040321Y-115901736D01*
X138993789Y-115870117D01*
X138909475Y-115812098D01*
X138809626Y-115743784D01*
X138709473Y-115675579D01*
X138655627Y-115639075D01*
X138473371Y-115515800D01*
X138320381Y-115598520D01*
X138250682Y-115634759D01*
X138191414Y-115662926D01*
X138151311Y-115678991D01*
X138141103Y-115681226D01*
X138128829Y-115664722D01*
X138104613Y-115618082D01*
X138070263Y-115545609D01*
X138027588Y-115451606D01*
X137978394Y-115340374D01*
X137924490Y-115216215D01*
X137867684Y-115083432D01*
X137809782Y-114946327D01*
X137752593Y-114809202D01*
X137697924Y-114676358D01*
X137647584Y-114552098D01*
X137603380Y-114440725D01*
X137567119Y-114346539D01*
X137540609Y-114273844D01*
X137525658Y-114226941D01*
X137523254Y-114210833D01*
X137542311Y-114190286D01*
X137584036Y-114156933D01*
X137639706Y-114117702D01*
X137644378Y-114114599D01*
X137788264Y-113999423D01*
X137904283Y-113865053D01*
X137991430Y-113715784D01*
X138048699Y-113555913D01*
X138075086Y-113389737D01*
X138069585Y-113221552D01*
X138031190Y-113055655D01*
X137958895Y-112896342D01*
X137937626Y-112861487D01*
X137826996Y-112720737D01*
X137696302Y-112607714D01*
X137550064Y-112523003D01*
X137392808Y-112467194D01*
X137229057Y-112440874D01*
X137063333Y-112444630D01*
X136900162Y-112479050D01*
X136744065Y-112544723D01*
X136599567Y-112642235D01*
X136554869Y-112681813D01*
X136441112Y-112805703D01*
X136358218Y-112936124D01*
X136301356Y-113082315D01*
X136269687Y-113227088D01*
X136261869Y-113389860D01*
X136287938Y-113553440D01*
X136345245Y-113712298D01*
X136431144Y-113860906D01*
X136542986Y-113993735D01*
X136678123Y-114105256D01*
X136695883Y-114117011D01*
X136752150Y-114155508D01*
X136794923Y-114188863D01*
X136815372Y-114210160D01*
X136815669Y-114210833D01*
X136811279Y-114233871D01*
X136793876Y-114286157D01*
X136765268Y-114363390D01*
X136727265Y-114461268D01*
X136681674Y-114575491D01*
X136630303Y-114701758D01*
X136574962Y-114835767D01*
X136517458Y-114973218D01*
X136459601Y-115109808D01*
X136403198Y-115241237D01*
X136350058Y-115363205D01*
X136301990Y-115471409D01*
X136260801Y-115561549D01*
X136228301Y-115629323D01*
X136206297Y-115670430D01*
X136197436Y-115681226D01*
X136170360Y-115672819D01*
X136119697Y-115650272D01*
X136054183Y-115617613D01*
X136018159Y-115598520D01*
X135865168Y-115515800D01*
X135682912Y-115639075D01*
X135589875Y-115702228D01*
X135488015Y-115771727D01*
X135392562Y-115837165D01*
X135344750Y-115870117D01*
X135277505Y-115915273D01*
X135220564Y-115951057D01*
X135181354Y-115972938D01*
X135168619Y-115977563D01*
X135150083Y-115965085D01*
X135109059Y-115930252D01*
X135049525Y-115876678D01*
X134975458Y-115807983D01*
X134890835Y-115727781D01*
X134837315Y-115676286D01*
X134743681Y-115584286D01*
X134662759Y-115501999D01*
X134597823Y-115432945D01*
X134552142Y-115380644D01*
X134528989Y-115348616D01*
X134526768Y-115342116D01*
X134537076Y-115317394D01*
X134565561Y-115267405D01*
X134609063Y-115197212D01*
X134664423Y-115111875D01*
X134728480Y-115016456D01*
X134746697Y-114989854D01*
X134813073Y-114893167D01*
X134872622Y-114806117D01*
X134922016Y-114733595D01*
X134957925Y-114680493D01*
X134977019Y-114651703D01*
X134978864Y-114648726D01*
X134976105Y-114625782D01*
X134961462Y-114575336D01*
X134937487Y-114504041D01*
X134906734Y-114418547D01*
X134871756Y-114325507D01*
X134835107Y-114231574D01*
X134799339Y-114143399D01*
X134767006Y-114067634D01*
X134740662Y-114010931D01*
X134722858Y-113979943D01*
X134721593Y-113978457D01*
X134710706Y-113969601D01*
X134692318Y-113960843D01*
X134662394Y-113951277D01*
X134616897Y-113939996D01*
X134551791Y-113926093D01*
X134463039Y-113908663D01*
X134346607Y-113886798D01*
X134198458Y-113859591D01*
X134166382Y-113853741D01*
X134071314Y-113835374D01*
X133988435Y-113817405D01*
X133925070Y-113801569D01*
X133888542Y-113789600D01*
X133883644Y-113786810D01*
X133875573Y-113762072D01*
X133869013Y-113706790D01*
X133863967Y-113627389D01*
X133860441Y-113530296D01*
X133858439Y-113421938D01*
X133857964Y-113308740D01*
X133859023Y-113197128D01*
X133861618Y-113093529D01*
X133865754Y-113004368D01*
X133871437Y-112936072D01*
X133878669Y-112895066D01*
X133883029Y-112886674D01*
X133907302Y-112878208D01*
X133962574Y-112864435D01*
X134043338Y-112846550D01*
X134144088Y-112825748D01*
X134259317Y-112803223D01*
X134322098Y-112791418D01*
X134441213Y-112769151D01*
X134547435Y-112748979D01*
X134635573Y-112731915D01*
X134700434Y-112718969D01*
X134736826Y-112711155D01*
X134742816Y-112709422D01*
X134752939Y-112689890D01*
X134774338Y-112642843D01*
X134804161Y-112575003D01*
X134839555Y-112493091D01*
X134877668Y-112403828D01*
X134915647Y-112313935D01*
X134950640Y-112230135D01*
X134979794Y-112159147D01*
X135000257Y-112107694D01*
X135009177Y-112082497D01*
X135009343Y-112081396D01*
X134999231Y-112061519D01*
X134970883Y-112015777D01*
X134927277Y-111948717D01*
X134871394Y-111864884D01*
X134806213Y-111768826D01*
X134768321Y-111713650D01*
X134699275Y-111612481D01*
X134637950Y-111520630D01*
X134587337Y-111442744D01*
X134550429Y-111383469D01*
X134530218Y-111347451D01*
X134527299Y-111339377D01*
X134539847Y-111320584D01*
X134574537Y-111280457D01*
X134626937Y-111223493D01*
X134692616Y-111154185D01*
X134767144Y-111077031D01*
X134846087Y-110996525D01*
X134925017Y-110917163D01*
X134999500Y-110843440D01*
X135065106Y-110779852D01*
X135117404Y-110730894D01*
X135151961Y-110701061D01*
X135163522Y-110693942D01*
X135182346Y-110703953D01*
X135227369Y-110732078D01*
X135294213Y-110775454D01*
X135378501Y-110831218D01*
X135475856Y-110896506D01*
X135549293Y-110946246D01*
X135920333Y-111198551D01*
X136538905Y-110943555D01*
X136622725Y-110498931D01*
X136706546Y-110054307D01*
X137631994Y-110054307D01*
X137715814Y-110498931D01*
D13*
X118618095Y-99632381D02*
X118618095Y-100441905D01*
X118665714Y-100537143D01*
X118713333Y-100584762D01*
X118808571Y-100632381D01*
X118999048Y-100632381D01*
X119094286Y-100584762D01*
X119141905Y-100537143D01*
X119189524Y-100441905D01*
X119189524Y-99632381D01*
X119618095Y-99727619D02*
X119665714Y-99680000D01*
X119760952Y-99632381D01*
X119999048Y-99632381D01*
X120094286Y-99680000D01*
X120141905Y-99727619D01*
X120189524Y-99822857D01*
X120189524Y-99918095D01*
X120141905Y-100060952D01*
X119570476Y-100632381D01*
X120189524Y-100632381D01*
X178157143Y-82716666D02*
X178204762Y-82764285D01*
X178252381Y-82907142D01*
X178252381Y-83002380D01*
X178204762Y-83145238D01*
X178109524Y-83240476D01*
X178014286Y-83288095D01*
X177823810Y-83335714D01*
X177680952Y-83335714D01*
X177490476Y-83288095D01*
X177395238Y-83240476D01*
X177300000Y-83145238D01*
X177252381Y-83002380D01*
X177252381Y-82907142D01*
X177300000Y-82764285D01*
X177347619Y-82716666D01*
X178252381Y-81764285D02*
X178252381Y-82335714D01*
X178252381Y-82050000D02*
X177252381Y-82050000D01*
X177395238Y-82145238D01*
X177490476Y-82240476D01*
X177538095Y-82335714D01*
X176363334Y-72252381D02*
X176030000Y-71776190D01*
X175791905Y-72252381D02*
X175791905Y-71252381D01*
X176172858Y-71252381D01*
X176268096Y-71300000D01*
X176315715Y-71347619D01*
X176363334Y-71442857D01*
X176363334Y-71585714D01*
X176315715Y-71680952D01*
X176268096Y-71728571D01*
X176172858Y-71776190D01*
X175791905Y-71776190D01*
X176744286Y-71347619D02*
X176791905Y-71300000D01*
X176887143Y-71252381D01*
X177125239Y-71252381D01*
X177220477Y-71300000D01*
X177268096Y-71347619D01*
X177315715Y-71442857D01*
X177315715Y-71538095D01*
X177268096Y-71680952D01*
X176696667Y-72252381D01*
X177315715Y-72252381D01*
X176363334Y-97607381D02*
X176030000Y-97131190D01*
X175791905Y-97607381D02*
X175791905Y-96607381D01*
X176172858Y-96607381D01*
X176268096Y-96655000D01*
X176315715Y-96702619D01*
X176363334Y-96797857D01*
X176363334Y-96940714D01*
X176315715Y-97035952D01*
X176268096Y-97083571D01*
X176172858Y-97131190D01*
X175791905Y-97131190D01*
X176696667Y-96607381D02*
X177315715Y-96607381D01*
X176982381Y-96988333D01*
X177125239Y-96988333D01*
X177220477Y-97035952D01*
X177268096Y-97083571D01*
X177315715Y-97178810D01*
X177315715Y-97416905D01*
X177268096Y-97512143D01*
X177220477Y-97559762D01*
X177125239Y-97607381D01*
X176839524Y-97607381D01*
X176744286Y-97559762D01*
X176696667Y-97512143D01*
X180744762Y-56578333D02*
X180792381Y-56435476D01*
X180792381Y-56197380D01*
X180744762Y-56102142D01*
X180697143Y-56054523D01*
X180601905Y-56006904D01*
X180506667Y-56006904D01*
X180411429Y-56054523D01*
X180363810Y-56102142D01*
X180316190Y-56197380D01*
X180268571Y-56387857D01*
X180220952Y-56483095D01*
X180173333Y-56530714D01*
X180078095Y-56578333D01*
X179982857Y-56578333D01*
X179887619Y-56530714D01*
X179840000Y-56483095D01*
X179792381Y-56387857D01*
X179792381Y-56149761D01*
X179840000Y-56006904D01*
X179792381Y-55673571D02*
X180792381Y-55435476D01*
X180078095Y-55244999D01*
X180792381Y-55054523D01*
X179792381Y-54816428D01*
X180792381Y-53911666D02*
X180792381Y-54483095D01*
X180792381Y-54197381D02*
X179792381Y-54197381D01*
X179935238Y-54292619D01*
X180030476Y-54387857D01*
X180078095Y-54483095D01*
X180394762Y-117713333D02*
X180442381Y-117570476D01*
X180442381Y-117332380D01*
X180394762Y-117237142D01*
X180347143Y-117189523D01*
X180251905Y-117141904D01*
X180156667Y-117141904D01*
X180061429Y-117189523D01*
X180013810Y-117237142D01*
X179966190Y-117332380D01*
X179918571Y-117522857D01*
X179870952Y-117618095D01*
X179823333Y-117665714D01*
X179728095Y-117713333D01*
X179632857Y-117713333D01*
X179537619Y-117665714D01*
X179490000Y-117618095D01*
X179442381Y-117522857D01*
X179442381Y-117284761D01*
X179490000Y-117141904D01*
X179442381Y-116808571D02*
X180442381Y-116570476D01*
X179728095Y-116379999D01*
X180442381Y-116189523D01*
X179442381Y-115951428D01*
X179537619Y-115618095D02*
X179490000Y-115570476D01*
X179442381Y-115475238D01*
X179442381Y-115237142D01*
X179490000Y-115141904D01*
X179537619Y-115094285D01*
X179632857Y-115046666D01*
X179728095Y-115046666D01*
X179870952Y-115094285D01*
X180442381Y-115665714D01*
X180442381Y-115046666D01*
X164402381Y-85851905D02*
X165211905Y-85851905D01*
X165307143Y-85804286D01*
X165354762Y-85756667D01*
X165402381Y-85661429D01*
X165402381Y-85470952D01*
X165354762Y-85375714D01*
X165307143Y-85328095D01*
X165211905Y-85280476D01*
X164402381Y-85280476D01*
X165402381Y-84280476D02*
X165402381Y-84851905D01*
X165402381Y-84566191D02*
X164402381Y-84566191D01*
X164545238Y-84661429D01*
X164640476Y-84756667D01*
X164688095Y-84851905D01*
X164402381Y-107441905D02*
X165211905Y-107441905D01*
X165307143Y-107394286D01*
X165354762Y-107346667D01*
X165402381Y-107251429D01*
X165402381Y-107060952D01*
X165354762Y-106965714D01*
X165307143Y-106918095D01*
X165211905Y-106870476D01*
X164402381Y-106870476D01*
X164402381Y-106489524D02*
X164402381Y-105870476D01*
X164783333Y-106203810D01*
X164783333Y-106060952D01*
X164830952Y-105965714D01*
X164878571Y-105918095D01*
X164973810Y-105870476D01*
X165211905Y-105870476D01*
X165307143Y-105918095D01*
X165354762Y-105965714D01*
X165402381Y-106060952D01*
X165402381Y-106346667D01*
X165354762Y-106441905D01*
X165307143Y-106489524D01*
X164402381Y-65531905D02*
X165211905Y-65531905D01*
X165307143Y-65484286D01*
X165354762Y-65436667D01*
X165402381Y-65341429D01*
X165402381Y-65150952D01*
X165354762Y-65055714D01*
X165307143Y-65008095D01*
X165211905Y-64960476D01*
X164402381Y-64960476D01*
X164735714Y-64055714D02*
X165402381Y-64055714D01*
X164354762Y-64293810D02*
X165069048Y-64531905D01*
X165069048Y-63912857D01*
X136977381Y-85256666D02*
X136501190Y-85590000D01*
X136977381Y-85828095D02*
X135977381Y-85828095D01*
X135977381Y-85447142D01*
X136025000Y-85351904D01*
X136072619Y-85304285D01*
X136167857Y-85256666D01*
X136310714Y-85256666D01*
X136405952Y-85304285D01*
X136453571Y-85351904D01*
X136501190Y-85447142D01*
X136501190Y-85828095D01*
X136977381Y-84304285D02*
X136977381Y-84875714D01*
X136977381Y-84590000D02*
X135977381Y-84590000D01*
X136120238Y-84685238D01*
X136215476Y-84780476D01*
X136263095Y-84875714D01*
X133012381Y-85828095D02*
X132012381Y-85828095D01*
X132012381Y-85590000D01*
X132060000Y-85447142D01*
X132155238Y-85351904D01*
X132250476Y-85304285D01*
X132440952Y-85256666D01*
X132583810Y-85256666D01*
X132774286Y-85304285D01*
X132869524Y-85351904D01*
X132964762Y-85447142D01*
X133012381Y-85590000D01*
X133012381Y-85828095D01*
X133012381Y-84304285D02*
X133012381Y-84875714D01*
X133012381Y-84590000D02*
X132012381Y-84590000D01*
X132155238Y-84685238D01*
X132250476Y-84780476D01*
X132298095Y-84875714D01*
X140632381Y-85828095D02*
X139632381Y-85828095D01*
X139632381Y-85590000D01*
X139680000Y-85447142D01*
X139775238Y-85351904D01*
X139870476Y-85304285D01*
X140060952Y-85256666D01*
X140203810Y-85256666D01*
X140394286Y-85304285D01*
X140489524Y-85351904D01*
X140584762Y-85447142D01*
X140632381Y-85590000D01*
X140632381Y-85828095D01*
X139727619Y-84875714D02*
X139680000Y-84828095D01*
X139632381Y-84732857D01*
X139632381Y-84494761D01*
X139680000Y-84399523D01*
X139727619Y-84351904D01*
X139822857Y-84304285D01*
X139918095Y-84304285D01*
X140060952Y-84351904D01*
X140632381Y-84923333D01*
X140632381Y-84304285D01*
X93837167Y-61682381D02*
X93837167Y-62396667D01*
X93789547Y-62539524D01*
X93694309Y-62634762D01*
X93551452Y-62682381D01*
X93456214Y-62682381D01*
X94837167Y-62682381D02*
X94265738Y-62682381D01*
X94551452Y-62682381D02*
X94551452Y-61682381D01*
X94456214Y-61825238D01*
X94360976Y-61920476D01*
X94265738Y-61968095D01*
X169267143Y-80811666D02*
X169314762Y-80859285D01*
X169362381Y-81002142D01*
X169362381Y-81097380D01*
X169314762Y-81240238D01*
X169219524Y-81335476D01*
X169124286Y-81383095D01*
X168933810Y-81430714D01*
X168790952Y-81430714D01*
X168600476Y-81383095D01*
X168505238Y-81335476D01*
X168410000Y-81240238D01*
X168362381Y-81097380D01*
X168362381Y-81002142D01*
X168410000Y-80859285D01*
X168457619Y-80811666D01*
X168457619Y-80430714D02*
X168410000Y-80383095D01*
X168362381Y-80287857D01*
X168362381Y-80049761D01*
X168410000Y-79954523D01*
X168457619Y-79906904D01*
X168552857Y-79859285D01*
X168648095Y-79859285D01*
X168790952Y-79906904D01*
X169362381Y-80478333D01*
X169362381Y-79859285D01*
M02*
