G04 #@! TF.FileFunction,Soldermask,Top*
%FSLAX46Y46*%
G04 Gerber Fmt 4.6, Leading zero omitted, Abs format (unit mm)*
G04 Created by KiCad (PCBNEW 4.0.6) date 06/02/17 16:23:04*
%MOMM*%
%LPD*%
G01*
G04 APERTURE LIST*
%ADD10C,0.100000*%
%ADD11C,0.300000*%
%ADD12C,1.000000*%
%ADD13C,0.508000*%
%ADD14C,0.200000*%
%ADD15R,2.800000X2.000000*%
%ADD16O,2.800000X2.000000*%
%ADD17C,2.000000*%
%ADD18C,1.800000*%
%ADD19O,1.800000X1.800000*%
%ADD20C,2.100000*%
%ADD21R,2.000000X2.800000*%
%ADD22O,2.000000X2.800000*%
%ADD23R,2.000000X2.000000*%
%ADD24O,2.000000X2.000000*%
%ADD25R,10.400000X2.100000*%
G04 APERTURE END LIST*
D10*
D11*
X112046666Y-112890952D02*
X112046666Y-110390952D01*
X112999047Y-112890952D02*
X112999047Y-110390952D01*
X114141905Y-112890952D01*
X114141905Y-110390952D01*
X114808571Y-110390952D02*
X115951428Y-110390952D01*
X115380000Y-112890952D02*
X115380000Y-110390952D01*
X116618095Y-111581429D02*
X117284762Y-111581429D01*
X117570476Y-112890952D02*
X116618095Y-112890952D01*
X116618095Y-110390952D01*
X117570476Y-110390952D01*
X119570477Y-112890952D02*
X118903810Y-111700476D01*
X118427619Y-112890952D02*
X118427619Y-110390952D01*
X119189524Y-110390952D01*
X119380000Y-110510000D01*
X119475239Y-110629048D01*
X119570477Y-110867143D01*
X119570477Y-111224286D01*
X119475239Y-111462381D01*
X119380000Y-111581429D01*
X119189524Y-111700476D01*
X118427619Y-111700476D01*
X121094286Y-111581429D02*
X120427619Y-111581429D01*
X120427619Y-112890952D02*
X120427619Y-110390952D01*
X121380000Y-110390952D01*
X122046667Y-112176667D02*
X122999048Y-112176667D01*
X121856191Y-112890952D02*
X122522858Y-110390952D01*
X123189525Y-112890952D01*
X124999049Y-112652857D02*
X124903811Y-112771905D01*
X124618096Y-112890952D01*
X124427620Y-112890952D01*
X124141906Y-112771905D01*
X123951430Y-112533810D01*
X123856191Y-112295714D01*
X123760953Y-111819524D01*
X123760953Y-111462381D01*
X123856191Y-110986190D01*
X123951430Y-110748095D01*
X124141906Y-110510000D01*
X124427620Y-110390952D01*
X124618096Y-110390952D01*
X124903811Y-110510000D01*
X124999049Y-110629048D01*
X125856191Y-111581429D02*
X126522858Y-111581429D01*
X126808572Y-112890952D02*
X125856191Y-112890952D01*
X125856191Y-110390952D01*
X126808572Y-110390952D01*
D12*
X115380000Y-114649524D02*
X115760952Y-114649524D01*
X116141904Y-114840000D01*
X116332381Y-115030476D01*
X116522857Y-115411429D01*
X116713333Y-116173333D01*
X116713333Y-117125714D01*
X116522857Y-117887619D01*
X116332381Y-118268571D01*
X116141904Y-118459048D01*
X115760952Y-118649524D01*
X115380000Y-118649524D01*
X114999047Y-118459048D01*
X114808571Y-118268571D01*
X114618095Y-117887619D01*
X114427619Y-117125714D01*
X114427619Y-116173333D01*
X114618095Y-115411429D01*
X114808571Y-115030476D01*
X114999047Y-114840000D01*
X115380000Y-114649524D01*
X119189524Y-114649524D02*
X119570476Y-114649524D01*
X119951428Y-114840000D01*
X120141905Y-115030476D01*
X120332381Y-115411429D01*
X120522857Y-116173333D01*
X120522857Y-117125714D01*
X120332381Y-117887619D01*
X120141905Y-118268571D01*
X119951428Y-118459048D01*
X119570476Y-118649524D01*
X119189524Y-118649524D01*
X118808571Y-118459048D01*
X118618095Y-118268571D01*
X118427619Y-117887619D01*
X118237143Y-117125714D01*
X118237143Y-116173333D01*
X118427619Y-115411429D01*
X118618095Y-115030476D01*
X118808571Y-114840000D01*
X119189524Y-114649524D01*
X121856191Y-114649524D02*
X124522857Y-114649524D01*
X122808572Y-118649524D01*
D13*
X167640000Y-109220000D02*
X167640000Y-121920000D01*
D11*
X169501429Y-111105715D02*
X170215714Y-110605715D01*
X169501429Y-110248572D02*
X171001429Y-110248572D01*
X171001429Y-110820000D01*
X170930000Y-110962858D01*
X170858571Y-111034286D01*
X170715714Y-111105715D01*
X170501429Y-111105715D01*
X170358571Y-111034286D01*
X170287143Y-110962858D01*
X170215714Y-110820000D01*
X170215714Y-110248572D01*
X170287143Y-112891429D02*
X170287143Y-113391429D01*
X169501429Y-113605715D02*
X169501429Y-112891429D01*
X171001429Y-112891429D01*
X171001429Y-113605715D01*
X169572857Y-115320000D02*
X169501429Y-115534286D01*
X169501429Y-115891429D01*
X169572857Y-116034286D01*
X169644286Y-116105715D01*
X169787143Y-116177143D01*
X169930000Y-116177143D01*
X170072857Y-116105715D01*
X170144286Y-116034286D01*
X170215714Y-115891429D01*
X170287143Y-115605715D01*
X170358571Y-115462857D01*
X170430000Y-115391429D01*
X170572857Y-115320000D01*
X170715714Y-115320000D01*
X170858571Y-115391429D01*
X170930000Y-115462857D01*
X171001429Y-115605715D01*
X171001429Y-115962857D01*
X170930000Y-116177143D01*
X170287143Y-117962857D02*
X170287143Y-118462857D01*
X169501429Y-118677143D02*
X169501429Y-117962857D01*
X171001429Y-117962857D01*
X171001429Y-118677143D01*
X171001429Y-120248571D02*
X171001429Y-121105714D01*
X169501429Y-120677143D02*
X171001429Y-120677143D01*
X169572857Y-51772858D02*
X169501429Y-51987144D01*
X169501429Y-52344287D01*
X169572857Y-52487144D01*
X169644286Y-52558573D01*
X169787143Y-52630001D01*
X169930000Y-52630001D01*
X170072857Y-52558573D01*
X170144286Y-52487144D01*
X170215714Y-52344287D01*
X170287143Y-52058573D01*
X170358571Y-51915715D01*
X170430000Y-51844287D01*
X170572857Y-51772858D01*
X170715714Y-51772858D01*
X170858571Y-51844287D01*
X170930000Y-51915715D01*
X171001429Y-52058573D01*
X171001429Y-52415715D01*
X170930000Y-52630001D01*
X169930000Y-54344286D02*
X169930000Y-55058572D01*
X169501429Y-54201429D02*
X171001429Y-54701429D01*
X169501429Y-55201429D01*
X171001429Y-56630000D02*
X169501429Y-57130000D01*
X171001429Y-57630000D01*
X170287143Y-59272857D02*
X170287143Y-59772857D01*
X169501429Y-59987143D02*
X169501429Y-59272857D01*
X171001429Y-59272857D01*
X171001429Y-59987143D01*
D14*
X167640000Y-60960000D02*
X167640000Y-59690000D01*
D13*
X167640000Y-50800000D02*
X167640000Y-60960000D01*
D15*
X127000000Y-97790000D03*
D16*
X111760000Y-69850000D03*
X127000000Y-95250000D03*
X111760000Y-72390000D03*
X127000000Y-92710000D03*
X111760000Y-74930000D03*
X127000000Y-90170000D03*
X111760000Y-77470000D03*
X127000000Y-87630000D03*
X111760000Y-80010000D03*
X127000000Y-85090000D03*
X111760000Y-82550000D03*
X127000000Y-82550000D03*
X111760000Y-85090000D03*
X127000000Y-80010000D03*
X111760000Y-87630000D03*
X127000000Y-77470000D03*
X111760000Y-90170000D03*
X127000000Y-74930000D03*
X111760000Y-92710000D03*
X127000000Y-72390000D03*
X111760000Y-95250000D03*
X127000000Y-69850000D03*
X111760000Y-97790000D03*
D17*
X175260000Y-85090000D03*
X180260000Y-85090000D03*
D18*
X172720000Y-73660000D03*
D19*
X180340000Y-73660000D03*
D18*
X180340000Y-99060000D03*
D19*
X172720000Y-99060000D03*
D20*
X173800000Y-58070000D03*
X173800000Y-52070000D03*
X177800000Y-58070000D03*
X177800000Y-52070000D03*
X177990000Y-113380000D03*
X177990000Y-119380000D03*
X173990000Y-113380000D03*
X173990000Y-119380000D03*
D21*
X162560000Y-81280000D03*
D22*
X147320000Y-88900000D03*
X160020000Y-81280000D03*
X149860000Y-88900000D03*
X157480000Y-81280000D03*
X152400000Y-88900000D03*
X154940000Y-81280000D03*
X154940000Y-88900000D03*
X152400000Y-81280000D03*
X157480000Y-88900000D03*
X149860000Y-81280000D03*
X160020000Y-88900000D03*
X147320000Y-81280000D03*
X162560000Y-88900000D03*
D21*
X162560000Y-102870000D03*
D22*
X147320000Y-110490000D03*
X160020000Y-102870000D03*
X149860000Y-110490000D03*
X157480000Y-102870000D03*
X152400000Y-110490000D03*
X154940000Y-102870000D03*
X154940000Y-110490000D03*
X152400000Y-102870000D03*
X157480000Y-110490000D03*
X149860000Y-102870000D03*
X160020000Y-110490000D03*
X147320000Y-102870000D03*
X162560000Y-110490000D03*
D21*
X162560000Y-60960000D03*
D22*
X147320000Y-68580000D03*
X160020000Y-60960000D03*
X149860000Y-68580000D03*
X157480000Y-60960000D03*
X152400000Y-68580000D03*
X154940000Y-60960000D03*
X154940000Y-68580000D03*
X152400000Y-60960000D03*
X157480000Y-68580000D03*
X149860000Y-60960000D03*
X160020000Y-68580000D03*
X147320000Y-60960000D03*
X162560000Y-68580000D03*
D18*
X138430000Y-79375000D03*
D19*
X138430000Y-90805000D03*
D23*
X134620000Y-90805000D03*
D24*
X134620000Y-79375000D03*
D23*
X142240000Y-90805000D03*
D24*
X142240000Y-79375000D03*
D25*
X90170000Y-120650000D03*
X90170000Y-118110000D03*
X90170000Y-115570000D03*
X90170000Y-113030000D03*
X90170000Y-110490000D03*
X90170000Y-107950000D03*
X90170000Y-105410000D03*
X90170000Y-102870000D03*
X90170000Y-100330000D03*
X90170000Y-97790000D03*
X90170000Y-95250000D03*
X90170000Y-92710000D03*
X90170000Y-90170000D03*
X90170000Y-87630000D03*
X90170000Y-85090000D03*
X90170000Y-82550000D03*
X90170000Y-80010000D03*
X90170000Y-77470000D03*
X90170000Y-74930000D03*
X90170000Y-72390000D03*
X90170000Y-69850000D03*
X90170000Y-67310000D03*
X90170000Y-52070000D03*
X90170000Y-54610000D03*
X90170000Y-57150000D03*
X90170000Y-59690000D03*
X90170000Y-64770000D03*
D23*
X168910000Y-86360000D03*
D17*
X168910000Y-83860000D03*
M02*
