G04 #@! TF.FileFunction,Soldermask,Bot*
%FSLAX46Y46*%
G04 Gerber Fmt 4.6, Leading zero omitted, Abs format (unit mm)*
G04 Created by KiCad (PCBNEW 4.0.6) date 06/02/17 16:23:04*
%MOMM*%
%LPD*%
G01*
G04 APERTURE LIST*
%ADD10C,0.100000*%
%ADD11R,2.800000X2.000000*%
%ADD12O,2.800000X2.000000*%
%ADD13C,2.000000*%
%ADD14C,1.800000*%
%ADD15O,1.800000X1.800000*%
%ADD16C,2.100000*%
%ADD17R,2.000000X2.800000*%
%ADD18O,2.000000X2.800000*%
%ADD19R,2.000000X2.000000*%
%ADD20O,2.000000X2.000000*%
%ADD21R,10.400000X2.100000*%
G04 APERTURE END LIST*
D10*
D11*
X127000000Y-97790000D03*
D12*
X111760000Y-69850000D03*
X127000000Y-95250000D03*
X111760000Y-72390000D03*
X127000000Y-92710000D03*
X111760000Y-74930000D03*
X127000000Y-90170000D03*
X111760000Y-77470000D03*
X127000000Y-87630000D03*
X111760000Y-80010000D03*
X127000000Y-85090000D03*
X111760000Y-82550000D03*
X127000000Y-82550000D03*
X111760000Y-85090000D03*
X127000000Y-80010000D03*
X111760000Y-87630000D03*
X127000000Y-77470000D03*
X111760000Y-90170000D03*
X127000000Y-74930000D03*
X111760000Y-92710000D03*
X127000000Y-72390000D03*
X111760000Y-95250000D03*
X127000000Y-69850000D03*
X111760000Y-97790000D03*
D13*
X175260000Y-85090000D03*
X180260000Y-85090000D03*
D14*
X172720000Y-73660000D03*
D15*
X180340000Y-73660000D03*
D14*
X180340000Y-99060000D03*
D15*
X172720000Y-99060000D03*
D16*
X173800000Y-58070000D03*
X173800000Y-52070000D03*
X177800000Y-58070000D03*
X177800000Y-52070000D03*
X177990000Y-113380000D03*
X177990000Y-119380000D03*
X173990000Y-113380000D03*
X173990000Y-119380000D03*
D17*
X162560000Y-81280000D03*
D18*
X147320000Y-88900000D03*
X160020000Y-81280000D03*
X149860000Y-88900000D03*
X157480000Y-81280000D03*
X152400000Y-88900000D03*
X154940000Y-81280000D03*
X154940000Y-88900000D03*
X152400000Y-81280000D03*
X157480000Y-88900000D03*
X149860000Y-81280000D03*
X160020000Y-88900000D03*
X147320000Y-81280000D03*
X162560000Y-88900000D03*
D17*
X162560000Y-102870000D03*
D18*
X147320000Y-110490000D03*
X160020000Y-102870000D03*
X149860000Y-110490000D03*
X157480000Y-102870000D03*
X152400000Y-110490000D03*
X154940000Y-102870000D03*
X154940000Y-110490000D03*
X152400000Y-102870000D03*
X157480000Y-110490000D03*
X149860000Y-102870000D03*
X160020000Y-110490000D03*
X147320000Y-102870000D03*
X162560000Y-110490000D03*
D17*
X162560000Y-60960000D03*
D18*
X147320000Y-68580000D03*
X160020000Y-60960000D03*
X149860000Y-68580000D03*
X157480000Y-60960000D03*
X152400000Y-68580000D03*
X154940000Y-60960000D03*
X154940000Y-68580000D03*
X152400000Y-60960000D03*
X157480000Y-68580000D03*
X149860000Y-60960000D03*
X160020000Y-68580000D03*
X147320000Y-60960000D03*
X162560000Y-68580000D03*
D14*
X138430000Y-79375000D03*
D15*
X138430000Y-90805000D03*
D19*
X134620000Y-90805000D03*
D20*
X134620000Y-79375000D03*
D19*
X142240000Y-90805000D03*
D20*
X142240000Y-79375000D03*
D21*
X90170000Y-120650000D03*
X90170000Y-118110000D03*
X90170000Y-115570000D03*
X90170000Y-113030000D03*
X90170000Y-110490000D03*
X90170000Y-107950000D03*
X90170000Y-105410000D03*
X90170000Y-102870000D03*
X90170000Y-100330000D03*
X90170000Y-97790000D03*
X90170000Y-95250000D03*
X90170000Y-92710000D03*
X90170000Y-90170000D03*
X90170000Y-87630000D03*
X90170000Y-85090000D03*
X90170000Y-82550000D03*
X90170000Y-80010000D03*
X90170000Y-77470000D03*
X90170000Y-74930000D03*
X90170000Y-72390000D03*
X90170000Y-69850000D03*
X90170000Y-67310000D03*
X90170000Y-64770000D03*
X90170000Y-59690000D03*
X90170000Y-57150000D03*
X90170000Y-54610000D03*
X90170000Y-52070000D03*
D19*
X168910000Y-86360000D03*
D13*
X168910000Y-83860000D03*
M02*
