M48
INCH,TZ
T1C0.016
T2C0.028
T3C0.031
T4C0.039
%
G90
G05
T1
X38500Y-38500
X39500Y-37000
X40500Y-46500
X42000Y-39500
X48500Y-22500
X51000Y-35000
X52000Y-22500
X55000Y-22500
T2
X54500Y-31250
X54500Y-35750
X68000Y-29000
X68000Y-39000
X71000Y-29000
X71000Y-39000
T3
X44000Y-27500
X44000Y-28500
X44000Y-29500
X44000Y-30500
X44000Y-31500
X44000Y-32500
X44000Y-33500
X44000Y-34500
X44000Y-35500
X44000Y-36500
X44000Y-37500
X44000Y-38500
X50000Y-27500
X50000Y-28500
X50000Y-29500
X50000Y-30500
X50000Y-31500
X50000Y-32500
X50000Y-33500
X50000Y-34500
X50000Y-35500
X50000Y-36500
X50000Y-37500
X50000Y-38500
X53000Y-31250
X53000Y-35750
X56000Y-31250
X56000Y-35750
X58000Y-24000
X58000Y-27000
X58000Y-32000
X58000Y-35000
X58000Y-40500
X58000Y-43500
X59000Y-24000
X59000Y-27000
X59000Y-32000
X59000Y-35000
X59000Y-40500
X59000Y-43500
X60000Y-24000
X60000Y-27000
X60000Y-32000
X60000Y-35000
X60000Y-40500
X60000Y-43500
X61000Y-24000
X61000Y-27000
X61000Y-32000
X61000Y-35000
X61000Y-40500
X61000Y-43500
X62000Y-24000
X62000Y-27000
X62000Y-32000
X62000Y-35000
X62000Y-40500
X62000Y-43500
X63000Y-24000
X63000Y-27000
X63000Y-32000
X63000Y-35000
X63000Y-40500
X63000Y-43500
X64000Y-24000
X64000Y-27000
X64000Y-32000
X64000Y-35000
X64000Y-40500
X64000Y-43500
X66500Y-33016
X66500Y-34000
X69000Y-33500
X70969Y-33500
T4
X68425Y-20500
X68425Y-22862
X68500Y-44638
X68500Y-47000
X70000Y-20500
X70000Y-22862
X70075Y-44638
X70075Y-47000
T0
M30
