G04 #@! TF.FileFunction,Copper,L2,Bot,Signal*
%FSLAX46Y46*%
G04 Gerber Fmt 4.6, Leading zero omitted, Abs format (unit mm)*
G04 Created by KiCad (PCBNEW 4.0.6) date 06/02/17 16:23:04*
%MOMM*%
%LPD*%
G01*
G04 APERTURE LIST*
%ADD10C,0.100000*%
%ADD11R,2.400000X1.600000*%
%ADD12O,2.400000X1.600000*%
%ADD13C,1.600000*%
%ADD14C,1.400000*%
%ADD15O,1.400000X1.400000*%
%ADD16C,1.700000*%
%ADD17R,1.600000X2.400000*%
%ADD18O,1.600000X2.400000*%
%ADD19R,1.600000X1.600000*%
%ADD20O,1.600000X1.600000*%
%ADD21R,10.000000X1.700000*%
%ADD22R,5.000000X1.700000*%
%ADD23C,0.900000*%
%ADD24C,0.600000*%
%ADD25C,0.508000*%
%ADD26C,0.762000*%
%ADD27C,0.304800*%
G04 APERTURE END LIST*
D10*
D11*
X127000000Y-97790000D03*
D12*
X111760000Y-69850000D03*
X127000000Y-95250000D03*
X111760000Y-72390000D03*
X127000000Y-92710000D03*
X111760000Y-74930000D03*
X127000000Y-90170000D03*
X111760000Y-77470000D03*
X127000000Y-87630000D03*
X111760000Y-80010000D03*
X127000000Y-85090000D03*
X111760000Y-82550000D03*
X127000000Y-82550000D03*
X111760000Y-85090000D03*
X127000000Y-80010000D03*
X111760000Y-87630000D03*
X127000000Y-77470000D03*
X111760000Y-90170000D03*
X127000000Y-74930000D03*
X111760000Y-92710000D03*
X127000000Y-72390000D03*
X111760000Y-95250000D03*
X127000000Y-69850000D03*
X111760000Y-97790000D03*
D13*
X175260000Y-85090000D03*
X180260000Y-85090000D03*
D14*
X172720000Y-73660000D03*
D15*
X180340000Y-73660000D03*
D14*
X180340000Y-99060000D03*
D15*
X172720000Y-99060000D03*
D16*
X173800000Y-58070000D03*
X173800000Y-52070000D03*
X177800000Y-58070000D03*
X177800000Y-52070000D03*
X177990000Y-113380000D03*
X177990000Y-119380000D03*
X173990000Y-113380000D03*
X173990000Y-119380000D03*
D17*
X162560000Y-81280000D03*
D18*
X147320000Y-88900000D03*
X160020000Y-81280000D03*
X149860000Y-88900000D03*
X157480000Y-81280000D03*
X152400000Y-88900000D03*
X154940000Y-81280000D03*
X154940000Y-88900000D03*
X152400000Y-81280000D03*
X157480000Y-88900000D03*
X149860000Y-81280000D03*
X160020000Y-88900000D03*
X147320000Y-81280000D03*
X162560000Y-88900000D03*
D17*
X162560000Y-102870000D03*
D18*
X147320000Y-110490000D03*
X160020000Y-102870000D03*
X149860000Y-110490000D03*
X157480000Y-102870000D03*
X152400000Y-110490000D03*
X154940000Y-102870000D03*
X154940000Y-110490000D03*
X152400000Y-102870000D03*
X157480000Y-110490000D03*
X149860000Y-102870000D03*
X160020000Y-110490000D03*
X147320000Y-102870000D03*
X162560000Y-110490000D03*
D17*
X162560000Y-60960000D03*
D18*
X147320000Y-68580000D03*
X160020000Y-60960000D03*
X149860000Y-68580000D03*
X157480000Y-60960000D03*
X152400000Y-68580000D03*
X154940000Y-60960000D03*
X154940000Y-68580000D03*
X152400000Y-60960000D03*
X157480000Y-68580000D03*
X149860000Y-60960000D03*
X160020000Y-68580000D03*
X147320000Y-60960000D03*
X162560000Y-68580000D03*
D14*
X138430000Y-79375000D03*
D15*
X138430000Y-90805000D03*
D19*
X134620000Y-90805000D03*
D20*
X134620000Y-79375000D03*
D19*
X142240000Y-90805000D03*
D20*
X142240000Y-79375000D03*
D21*
X90170000Y-120650000D03*
X90170000Y-118110000D03*
X90170000Y-115570000D03*
X90170000Y-113030000D03*
X90170000Y-110490000D03*
X90170000Y-107950000D03*
X90170000Y-105410000D03*
X90170000Y-102870000D03*
X90170000Y-100330000D03*
X90170000Y-97790000D03*
X90170000Y-95250000D03*
X90170000Y-92710000D03*
X90170000Y-90170000D03*
X90170000Y-87630000D03*
X90170000Y-85090000D03*
X90170000Y-82550000D03*
X90170000Y-80010000D03*
X90170000Y-77470000D03*
X90170000Y-74930000D03*
X90170000Y-72390000D03*
X90170000Y-69850000D03*
X90170000Y-67310000D03*
X90170000Y-64770000D03*
D22*
X92670000Y-62230000D03*
D21*
X90170000Y-59690000D03*
X90170000Y-57150000D03*
X90170000Y-54610000D03*
X90170000Y-52070000D03*
D19*
X168910000Y-86360000D03*
D13*
X168910000Y-83860000D03*
D23*
X129540000Y-88900000D03*
X123190000Y-57150000D03*
X139700000Y-57150000D03*
X132080000Y-57150000D03*
X106680000Y-100330000D03*
X97790000Y-97790000D03*
D24*
X102870000Y-118110000D03*
D23*
X100330000Y-93980000D03*
D25*
X157480000Y-68580000D02*
X157480000Y-81280000D01*
X154940000Y-88900000D02*
X152400000Y-88900000D01*
X157480000Y-88900000D02*
X154940000Y-88900000D01*
X149860000Y-60960000D02*
X149860000Y-66040000D01*
X149860000Y-66040000D02*
X156210000Y-66040000D01*
X156210000Y-66040000D02*
X156210000Y-74930000D01*
X156210000Y-74930000D02*
X154940000Y-76200000D01*
X154940000Y-76200000D02*
X154940000Y-81280000D01*
D26*
X168910000Y-76200000D02*
X168910000Y-83860000D01*
X182880000Y-85090000D02*
X182880000Y-57150000D01*
X182880000Y-57150000D02*
X177800000Y-52070000D01*
X177800000Y-52070000D02*
X173800000Y-52070000D01*
X127000000Y-60960000D02*
X99695000Y-60960000D01*
D25*
X144780000Y-81280000D02*
X144780000Y-102870000D01*
X144780000Y-102870000D02*
X147320000Y-102870000D01*
X147320000Y-81280000D02*
X144780000Y-81280000D01*
D26*
X144780000Y-81280000D02*
X144780000Y-60960000D01*
X147320000Y-60960000D02*
X144780000Y-60960000D01*
X144780000Y-60960000D02*
X127000000Y-60960000D01*
X127000000Y-60960000D02*
X127000000Y-69850000D01*
X173800000Y-52070000D02*
X151130000Y-52070000D01*
X147320000Y-55880000D02*
X147320000Y-60960000D01*
X151130000Y-52070000D02*
X147320000Y-55880000D01*
X168910000Y-77075000D02*
X168910000Y-76200000D01*
X168910000Y-76200000D02*
X168910000Y-52070000D01*
D27*
X168910000Y-52070000D02*
X173800000Y-52070000D01*
D26*
X173990000Y-119380000D02*
X177800000Y-119380000D01*
X177800000Y-119380000D02*
X182880000Y-119380000D01*
X182880000Y-119380000D02*
X182880000Y-119380000D01*
X182880000Y-119380000D02*
X182880000Y-85090000D01*
X182880000Y-85090000D02*
X182880000Y-85090000D01*
X182880000Y-85090000D02*
X180340000Y-85090000D01*
X99695000Y-60960000D02*
X99695000Y-64770000D01*
X99695000Y-64770000D02*
X99695000Y-67310000D01*
X91440000Y-64770000D02*
X99695000Y-64770000D01*
X99695000Y-67310000D02*
X91440000Y-67310000D01*
D25*
X160020000Y-102870000D02*
X160020000Y-105410000D01*
X149860000Y-105410000D02*
X149860000Y-110490000D01*
X160020000Y-105410000D02*
X149860000Y-105410000D01*
X154940000Y-68580000D02*
X152400000Y-68580000D01*
X149860000Y-68580000D02*
X152400000Y-68580000D01*
X149860000Y-102870000D02*
X149860000Y-95250000D01*
X149860000Y-71120000D02*
X149860000Y-68580000D01*
X148590000Y-72390000D02*
X149860000Y-71120000D01*
X148590000Y-93980000D02*
X148590000Y-72390000D01*
X149860000Y-95250000D02*
X148590000Y-93980000D01*
X160020000Y-81280000D02*
X160020000Y-88900000D01*
X180340000Y-73660000D02*
X175260000Y-74930000D01*
X175260000Y-74930000D02*
X175260000Y-85090000D01*
X142240000Y-86360000D02*
X142240000Y-79375000D01*
X138430000Y-90805000D02*
X138430000Y-88900000D01*
X138430000Y-88900000D02*
X138430000Y-86360000D01*
X138430000Y-86360000D02*
X142240000Y-86360000D01*
D26*
X111760000Y-90170000D02*
X114300000Y-90170000D01*
X114300000Y-97790000D02*
X111760000Y-97790000D01*
X114300000Y-90170000D02*
X114300000Y-97790000D01*
X168910000Y-86360000D02*
X165100000Y-86360000D01*
D25*
X129540000Y-88900000D02*
X129540000Y-83820000D01*
X129540000Y-83820000D02*
X138430000Y-83820000D01*
X138430000Y-83820000D02*
X138430000Y-79375000D01*
D26*
X123190000Y-57150000D02*
X91440000Y-57150000D01*
X180340000Y-99060000D02*
X180340000Y-104140000D01*
X180340000Y-104140000D02*
X165100000Y-104140000D01*
X162560000Y-88900000D02*
X165100000Y-88900000D01*
X162560000Y-110490000D02*
X165100000Y-110490000D01*
X165100000Y-68580000D02*
X162560000Y-68580000D01*
X165100000Y-110490000D02*
X165100000Y-104140000D01*
X165100000Y-104140000D02*
X165100000Y-92075000D01*
X165100000Y-92075000D02*
X165100000Y-88900000D01*
X165100000Y-88900000D02*
X165100000Y-86360000D01*
X165100000Y-86360000D02*
X165100000Y-68580000D01*
D25*
X149860000Y-88900000D02*
X149860000Y-92075000D01*
X152400000Y-94615000D02*
X152400000Y-102870000D01*
X149860000Y-92075000D02*
X152400000Y-94615000D01*
X152400000Y-81280000D02*
X152400000Y-83820000D01*
X149860000Y-86360000D02*
X149860000Y-88900000D01*
X152400000Y-83820000D02*
X149860000Y-86360000D01*
X177800000Y-58070000D02*
X173800000Y-58070000D01*
D27*
X173800000Y-58070000D02*
X173990000Y-58260000D01*
D25*
X173990000Y-58260000D02*
X173990000Y-99060000D01*
X173990000Y-99060000D02*
X172720000Y-99060000D01*
X90170000Y-113030000D02*
X96520000Y-113030000D01*
X142240000Y-113030000D02*
X96520000Y-113030000D01*
X96520000Y-113030000D02*
X91440000Y-113030000D01*
X142240000Y-90805000D02*
X142240000Y-113030000D01*
X139700000Y-52070000D02*
X139700000Y-57150000D01*
X93980000Y-52070000D02*
X139700000Y-52070000D01*
X91440000Y-52070000D02*
X93980000Y-52070000D01*
X132080000Y-54610000D02*
X132080000Y-57150000D01*
X91440000Y-54610000D02*
X132080000Y-54610000D01*
X100330000Y-72390000D02*
X91440000Y-72390000D01*
X101600000Y-73660000D02*
X100330000Y-72390000D01*
X118110000Y-73660000D02*
X101600000Y-73660000D01*
X124460000Y-80010000D02*
X118110000Y-73660000D01*
X127000000Y-80010000D02*
X124460000Y-80010000D01*
X100330000Y-74930000D02*
X91440000Y-74930000D01*
X101600000Y-76200000D02*
X100330000Y-74930000D01*
X118110000Y-76200000D02*
X101600000Y-76200000D01*
X124460000Y-82550000D02*
X118110000Y-76200000D01*
X127000000Y-82550000D02*
X124460000Y-82550000D01*
X100330000Y-77470000D02*
X91440000Y-77470000D01*
X101600000Y-78740000D02*
X100330000Y-77470000D01*
X118110000Y-78740000D02*
X101600000Y-78740000D01*
X124460000Y-85090000D02*
X118110000Y-78740000D01*
X127000000Y-85090000D02*
X124460000Y-85090000D01*
X100330000Y-80010000D02*
X91440000Y-80010000D01*
X101600000Y-81280000D02*
X100330000Y-80010000D01*
X118110000Y-81280000D02*
X101600000Y-81280000D01*
X124460000Y-87630000D02*
X118110000Y-81280000D01*
X127000000Y-87630000D02*
X124460000Y-87630000D01*
X157480000Y-102870000D02*
X157480000Y-96520000D01*
X152400000Y-63500000D02*
X152400000Y-60960000D01*
X158750000Y-63500000D02*
X152400000Y-63500000D01*
X158750000Y-95250000D02*
X158750000Y-63500000D01*
X157480000Y-96520000D02*
X158750000Y-95250000D01*
X172720000Y-113030000D02*
X173640000Y-113030000D01*
X173640000Y-113030000D02*
X173990000Y-113380000D01*
X160020000Y-110490000D02*
X160020000Y-113030000D01*
X173070000Y-113380000D02*
X177990000Y-113380000D01*
X172720000Y-113030000D02*
X173070000Y-113380000D01*
X160020000Y-113030000D02*
X172720000Y-113030000D01*
X106680000Y-100330000D02*
X91440000Y-100330000D01*
X127000000Y-97790000D02*
X127000000Y-102870000D01*
X127000000Y-102870000D02*
X91440000Y-102870000D01*
D27*
X127000000Y-95250000D02*
X128270000Y-95250000D01*
D25*
X129540000Y-105410000D02*
X91440000Y-105410000D01*
X129540000Y-96520000D02*
X129540000Y-105410000D01*
X128270000Y-95250000D02*
X129540000Y-96520000D01*
D27*
X127000000Y-92710000D02*
X128270000Y-92710000D01*
D25*
X132080000Y-107950000D02*
X91440000Y-107950000D01*
X132080000Y-96520000D02*
X132080000Y-107950000D01*
X128270000Y-92710000D02*
X132080000Y-96520000D01*
D27*
X127000000Y-90170000D02*
X128270000Y-90170000D01*
D25*
X134620000Y-110490000D02*
X91440000Y-110490000D01*
X134620000Y-96520000D02*
X134620000Y-110490000D01*
X128270000Y-90170000D02*
X134620000Y-96520000D01*
X111760000Y-95250000D02*
X104140000Y-95250000D01*
X101600000Y-97790000D02*
X104140000Y-95250000D01*
X97790000Y-97790000D02*
X101600000Y-97790000D01*
X102870000Y-118110000D02*
X91440000Y-118110000D01*
X100330000Y-93980000D02*
X100330000Y-85090000D01*
X100330000Y-85090000D02*
X111760000Y-85090000D01*
X158750000Y-120650000D02*
X158750000Y-107950000D01*
X158750000Y-107950000D02*
X161290000Y-107950000D01*
X161290000Y-107950000D02*
X161290000Y-73660000D01*
X91440000Y-120650000D02*
X157480000Y-120650000D01*
X157480000Y-120650000D02*
X158750000Y-120650000D01*
X161290000Y-73660000D02*
X160020000Y-72390000D01*
X160020000Y-72390000D02*
X160020000Y-68580000D01*
M02*
